<?xml version="1.0" encoding="UTF-8"?>
<svg xmlns="http://www.w3.org/2000/svg" xmlns:xlink="http://www.w3.org/1999/xlink" version="1.2" >
<font id="Style Clubs Serif">
<font-face  font-family="Style Clubs" units-per-em="1000" ascent="750" descent="-250" font-style="normal" font-weight="400" font-stretch="normal" cap-height="700" x-height="500" underline-position="-75" underline-thickness="50" />
<missing-glyph  horiz-adv-x="157" d="" />
<glyph glyph-name="NULL" d="" />
<glyph glyph-name="CR" unicode="&#xd;" horiz-adv-x="157" d="" />
<glyph glyph-name="space" unicode="&#x20;" horiz-adv-x="157" d="" />
<glyph glyph-name="exclam" unicode="&#x21;" horiz-adv-x="229" d="M37 644 L95 185 L119 185 L179 644 L179 664 L37 648 L37 644 Z M42 63 C42 29 108 0 108 0 C108 0 174 29 174 63 C174 99 108 128 108 128 C108 128 42 99 42 63 L42 63 Z " />
<glyph glyph-name="quotedbl" unicode="&#x22;" horiz-adv-x="401" d="M89 637 L90 431 L110 431 L182 637 L181 654 L96 654 L89 637 Z M229 637 L229 431 L249 431 L322 637 L321 654 L235 654 L229 637 Z " />
<glyph glyph-name="numbersign" unicode="&#x23;" horiz-adv-x="548" d="M143 183 L108 0 L148 0 L181 183 L318 183 L285 0 L324 0 L357 183 L485 183 L485 221 L364 221 L389 367 L516 367 L516 406 L396 406 L428 580 L388 580 L358 406 L223 406 L256 580 L216 580 L185 406 L56 406 L56 367 L177 367 L150 221 L25 221 L25 183 L143 183 Z M325 221 L188 221 L215 367 L350 367 L325 221 Z " />
<glyph glyph-name="dollar" unicode="&#x24;" horiz-adv-x="516" d="M468 170 C468 290 376 337 327 360 L281 381 L273 384 L273 590 C323 559 426 489 426 489 L413 616 C390 623 341 638 273 641 L273 721 L239 721 L239 641 C133 638 49 576 49 465 C49 374 108 321 173 292 L239 263 L239 38 C183 76 44 177 44 177 L59 30 C91 19 164 -8 239 -13 L239 -115 L273 -115 L273 -13 C365 -9 468 45 468 170 L468 170 Z M142 514 C142 567 185 601 239 604 L239 398 C189 420 142 459 142 514 L142 514 Z M273 24 L273 248 C332 221 374 181 374 126 C374 72 336 29 273 24 L273 24 Z " />
<glyph glyph-name="percent" unicode="&#x25;" horiz-adv-x="686" d="M27 492 C27 397 87 331 183 331 C278 331 338 396 338 492 C338 588 279 653 183 653 C88 653 27 588 27 492 L27 492 Z M96 -10 L137 -10 L588 660 L547 660 L96 -10 Z M246 492 C246 400 218 358 183 358 C149 358 120 402 120 492 C120 583 149 626 183 626 C218 626 246 593 246 492 L246 492 Z M349 161 C349 67 409 0 504 0 C601 0 660 66 660 161 C660 257 601 323 504 323 C409 323 349 257 349 161 L349 161 Z M567 161 C567 69 539 28 504 28 C470 28 441 70 441 161 C441 252 470 296 504 296 C539 296 567 262 567 161 L567 161 Z " />
<glyph glyph-name="ampersand" unicode="&#x26;" horiz-adv-x="667" d="M30 170 C30 74 106 -11 225 -11 C299 -11 377 20 427 85 L496 0 L642 0 C642 0 617 20 566 79 L496 161 C519 192 548 276 565 320 C584 370 592 413 592 413 L461 413 L524 333 C524 311 493 223 471 190 L317 375 C395 417 444 472 444 531 C444 594 389 655 288 655 C189 655 126 592 126 513 C126 465 148 419 191 365 C87 327 30 254 30 170 L30 170 Z M404 112 C376 82 336 55 276 55 C194 55 127 123 127 207 C127 259 157 308 216 336 L404 112 Z M366 529 C366 479 348 434 294 404 C245 465 220 500 220 545 C220 592 250 617 292 617 C333 617 366 594 366 529 L366 529 Z " />
<glyph glyph-name="quotesingle" unicode="&#x27;" horiz-adv-x="234" d="M79 637 L79 431 L100 431 L172 637 L171 654 L85 654 L79 637 L79 637 Z " />
<glyph glyph-name="parenleft" unicode="&#x28;" horiz-adv-x="326" d="M55 301 C55 67 183 -75 289 -140 L301 -120 C225 -47 151 87 151 301 C151 515 226 649 301 721 L289 741 C183 675 55 535 55 301 L55 301 Z " />
<glyph glyph-name="parenright" unicode="&#x29;" horiz-adv-x="331" d="M25 -120 L37 -140 C143 -75 271 67 271 301 C271 535 143 675 37 741 L25 721 C100 649 175 515 175 301 C175 87 101 -47 25 -120 L25 -120 Z " />
<glyph glyph-name="asterisk" unicode="&#x2a;" horiz-adv-x="438" d="M82 377 L159 321 L216 456 L273 322 L351 378 L241 473 L384 486 L355 578 L231 503 L264 643 L168 643 L200 502 L77 576 L47 484 L191 473 L82 377 L82 377 Z " />
<glyph glyph-name="plus" unicode="&#x2b;" horiz-adv-x="515" d="M240 300 L240 135 L276 135 L276 300 L440 300 L440 336 L276 336 L276 500 L240 500 L240 336 L75 336 L75 300 L240 300 L240 300 Z " />
<glyph glyph-name="comma" unicode="&#x2c;" horiz-adv-x="253" d="M200 47 C200 81 135 110 135 110 C135 110 69 81 69 47 C69 29 88 12 105 0 L105 -116 L126 -116 C126 -116 200 24 200 47 L200 47 Z " />
<glyph glyph-name="hyphen" unicode="&#x2d;" horiz-adv-x="403" d="M70 334 L70 277 L333 277 L333 334 L70 334 L70 334 Z " />
<glyph glyph-name="period" unicode="&#x2e;" horiz-adv-x="249" d="M64 63 C64 29 129 0 129 0 C129 0 195 29 195 63 C195 97 129 126 129 126 C129 126 64 97 64 63 L64 63 Z " />
<glyph glyph-name="slash" unicode="&#x2f;" horiz-adv-x="328" d="M276 750 L16 -50 L54 -50 L314 750 L276 750 L276 750 Z " />
<glyph glyph-name="zero" unicode="0" horiz-adv-x="615" d="M64 316 C64 104 184 -12 308 -12 C433 -12 551 103 551 316 C551 521 432 643 308 643 C184 643 64 522 64 316 L64 316 Z M428 316 C428 117 375 26 309 26 C241 26 188 116 188 316 C188 512 240 606 307 606 C374 606 428 512 428 316 L428 316 Z " />
<glyph glyph-name="one" unicode="1" horiz-adv-x="334" d="M110 70 L21 0 L313 0 L224 70 L224 643 L23 558 L110 510 L110 70 L110 70 Z " />
<glyph glyph-name="two" unicode="2" horiz-adv-x="456" d="M17 40 L17 0 L423 0 L431 107 L113 85 C113 85 415 387 415 493 C415 597 330 643 236 643 C169 643 90 612 60 599 L48 456 C48 456 206 606 232 606 C281 606 304 563 304 489 C304 342 212 245 92 118 L17 40 L17 40 Z " />
<glyph glyph-name="three" unicode="3" horiz-adv-x="479" d="M26 36 C84 14 154 -1 202 -1 C321 -1 436 70 436 201 C436 317 344 391 246 391 C224 391 201 387 186 384 L418 605 L418 643 C231 623 82 643 82 643 L44 538 C44 538 247 526 309 552 L108 362 L134 330 C151 337 173 343 195 343 C258 343 317 299 317 187 C317 84 264 37 207 37 L46 176 L26 36 L26 36 Z " />
<glyph glyph-name="four" unicode="4" horiz-adv-x="526" d="M498 208 L416 208 L416 372 L302 328 L302 208 L108 208 C195 290 347 470 412 632 L259 632 C259 632 259 632 259 632 C257 627 213 430 32 198 L32 172 L302 172 L302 0 L416 0 L416 172 L479 172 L498 208 L498 208 Z " />
<glyph glyph-name="five" unicode="5" horiz-adv-x="485" d="M30 43 C80 20 164 -1 217 -1 C329 -1 449 69 449 212 C449 345 341 411 245 411 C191 411 142 394 97 366 L123 538 L398 538 L436 643 L103 643 L52 320 L81 309 C110 337 151 358 195 358 C258 358 333 314 333 191 C333 81 269 37 215 37 L60 178 L30 43 L30 43 Z " />
<glyph glyph-name="six" unicode="6" horiz-adv-x="547" d="M432 615 L432 645 C228 601 54 450 54 234 C54 69 152 -10 280 -10 C407 -10 510 74 510 199 C510 321 410 388 318 388 C263 388 212 363 181 328 C210 463 282 573 432 615 L432 615 Z M175 284 C203 320 244 332 277 332 C352 332 391 269 391 180 C391 91 346 28 282 28 C206 28 171 118 171 219 C171 239 173 263 175 284 L175 284 Z " />
<glyph glyph-name="seven" unicode="7" horiz-adv-x="449" d="M434 637 L52 637 L11 521 L352 521 C352 521 352 521 352 521 C350 519 144 335 69 0 L142 0 C194 259 319 446 393 521 L434 600 L434 637 L434 637 Z " />
<glyph glyph-name="eight" unicode="8" horiz-adv-x="514" d="M37 157 C37 59 128 -10 255 -10 C389 -10 477 68 477 167 C477 262 392 317 343 347 L323 359 C373 381 449 432 449 508 C449 591 357 645 259 645 C158 645 61 590 61 485 C61 401 127 351 169 324 L178 318 C105 292 37 244 37 157 L37 157 Z M376 129 C376 76 328 28 255 28 C178 28 127 83 127 158 C127 228 173 272 215 295 L251 273 C304 239 376 193 376 129 L376 129 Z M366 498 C366 438 327 402 287 381 L273 390 C227 416 163 458 163 519 C163 573 204 608 260 608 C320 608 366 568 366 498 L366 498 Z " />
<glyph glyph-name="nine" unicode="9" horiz-adv-x="545" d="M104 24 L112 -6 C316 37 490 189 490 405 C490 570 392 648 264 648 C138 648 33 566 33 440 C33 318 133 251 226 251 C282 251 332 277 363 311 C335 176 243 79 104 24 L104 24 Z M370 355 C342 319 300 307 267 307 C192 307 153 370 153 459 C153 548 199 611 263 611 C337 611 373 521 373 420 C373 400 372 376 370 355 L370 355 Z " />
<glyph glyph-name="colon" unicode="&#x3a;" horiz-adv-x="250" d="M58 367 C58 331 125 300 125 300 C125 300 190 331 190 367 C190 402 125 433 125 433 C125 433 58 402 58 367 L58 367 Z M58 65 C58 30 125 0 125 0 C125 0 190 30 190 65 C190 101 125 132 125 132 C125 132 58 101 58 65 L58 65 Z " />
<glyph glyph-name="semicolon" unicode="&#x3b;" horiz-adv-x="264" d="M66 360 C66 327 132 297 132 297 C132 297 197 327 197 360 C197 394 132 424 132 424 C132 424 66 394 66 360 L66 360 Z M197 57 C197 91 132 120 132 120 C132 120 66 91 66 57 C66 39 85 22 102 10 L102 -105 L123 -105 C123 -105 197 34 197 57 L197 57 Z " />
<glyph glyph-name="less" unicode="&#x3c;" horiz-adv-x="463" d="M403 452 L48 268 L48 266 L48 235 L48 233 L403 48 L403 135 L96 250 L403 366 L403 452 L403 452 Z " />
<glyph glyph-name="equal" unicode="&#x3d;" horiz-adv-x="480" d="M395 360 L395 396 L85 396 L85 360 L395 360 Z M395 263 L395 300 L85 300 L85 263 L395 263 Z " />
<glyph glyph-name="greater" unicode="&#x3e;" horiz-adv-x="463" d="M60 452 L60 366 L367 250 L60 135 L60 48 L415 233 L415 268 L60 452 L60 452 Z " />
<glyph glyph-name="question" unicode="&#x3f;" horiz-adv-x="440" d="M104 339 L127 182 L147 184 L173 268 C259 299 400 373 400 506 C400 612 315 660 223 660 C170 660 86 639 40 620 L76 511 L227 622 C264 622 297 589 297 532 C297 414 189 368 104 339 L104 339 Z M80 64 C80 29 147 0 147 0 C147 0 212 29 212 64 C212 99 147 128 147 128 C147 128 80 99 80 64 L80 64 Z " />
<glyph glyph-name="at" unicode="&#x40;" horiz-adv-x="847" d="M62 161 C92 -20 254 -111 421 -111 C554 -111 644 -54 702 -12 L644 -12 C596 -48 520 -83 423 -83 C270 -83 136 2 109 165 C74 377 252 539 450 539 C623 539 716 416 734 306 C755 178 668 104 629 87 C611 80 596 79 589 79 C573 79 564 85 562 97 C560 106 562 116 564 123 L629 422 L529 405 C508 412 491 415 473 415 C328 415 186 258 207 133 C216 74 261 39 318 39 C417 39 476 138 476 138 C469 112 468 94 470 82 C474 53 499 36 550 36 C666 36 800 147 774 303 C755 420 643 566 445 566 C228 566 25 390 62 161 L62 161 Z M476 197 C440 125 400 103 370 103 C339 103 316 126 311 161 C297 245 384 384 485 384 C495 384 507 383 517 377 L476 197 Z " />
<glyph glyph-name="A" unicode="A" horiz-adv-x="687" d="M47 14 L19 0 L220 0 L187 25 C159 49 152 81 166 116 L200 210 L406 210 L449 95 C461 71 448 48 429 29 L391 0 L668 0 C607 33 589 73 581 95 L370 643 L313 643 L124 116 C110 82 86 34 47 14 L47 14 Z M391 250 L215 250 L301 490 L302 490 L391 250 Z " />
<glyph glyph-name="B" unicode="B" horiz-adv-x="627" d="M56 15 L32 0 L341 0 C499 0 585 73 585 175 C585 322 408 346 408 346 C495 362 551 415 551 493 C551 571 496 643 342 643 L32 643 L105 560 L105 84 C105 61 86 32 56 15 L56 15 Z M315 356 L228 356 L228 602 L313 602 C398 602 437 546 437 483 C437 407 377 356 315 356 L315 356 Z M310 41 L228 41 L228 315 L329 315 C399 315 457 275 457 176 C457 77 399 41 310 41 L310 41 Z " />
<glyph glyph-name="C" unicode="C" horiz-adv-x="634" d="M59 322 C59 94 207 -13 371 -13 C436 -13 523 8 567 20 L580 163 C580 163 422 24 379 24 C285 24 193 125 193 322 C193 523 281 632 372 632 L581 479 L568 623 C516 638 436 654 372 654 C198 654 59 530 59 322 L59 322 Z " />
<glyph glyph-name="D" unicode="D" horiz-adv-x="686" d="M60 16 L27 0 L309 0 C514 0 637 133 637 323 C637 513 511 643 310 643 L27 643 L100 560 L100 84 C100 61 87 30 60 16 L60 16 Z M300 41 L223 41 L223 602 L301 602 C435 602 505 495 505 321 C505 151 435 41 300 41 L300 41 Z " />
<glyph glyph-name="E" unicode="E" horiz-adv-x="580" d="M46 12 L22 0 L519 0 L538 182 C538 182 417 40 376 40 L218 40 L218 313 L352 313 C378 313 450 239 450 239 L450 354 L218 354 L218 603 L353 603 L511 466 L493 643 L22 643 L95 560 L95 84 C95 61 73 25 46 12 L46 12 Z " />
<glyph glyph-name="F" unicode="F" horiz-adv-x="567" d="M69 16 L37 0 L329 0 L287 17 C252 31 233 61 233 84 L233 313 L358 313 C385 313 457 239 457 239 L457 353 C457 353 385 353 358 353 L233 353 L233 603 L359 603 L518 466 L500 643 L37 643 L110 560 L110 84 C110 61 96 30 69 16 L69 16 Z " />
<glyph glyph-name="G" unicode="G" horiz-adv-x="690" d="M65 316 C65 99 206 -13 369 -13 C440 -13 506 8 558 34 L609 0 L625 309 L358 309 L358 286 L527 273 L506 68 C487 47 439 30 386 30 C278 30 198 115 198 310 C198 517 283 632 386 632 C429 632 594 477 594 477 L581 620 C535 632 458 654 380 654 C205 654 65 529 65 316 L65 316 Z " />
<glyph glyph-name="H" unicode="H" horiz-adv-x="773" d="M80 16 L52 0 L322 0 C265 29 248 61 248 84 L248 313 L525 313 L525 84 C525 61 508 29 451 0 L721 0 C664 29 648 61 648 84 L648 560 C648 582 664 617 721 643 L451 643 C508 617 525 582 525 560 L525 356 L248 356 L248 560 C248 582 262 615 322 643 L52 643 C100 615 125 582 125 560 L125 84 C125 61 107 29 80 16 L80 16 Z " />
<glyph glyph-name="I" unicode="I" horiz-adv-x="368" d="M67 11 L47 0 L317 0 L243 84 L243 560 C243 582 259 616 317 643 L47 643 L120 560 L120 84 C120 61 92 25 67 11 L67 11 Z " />
<glyph glyph-name="J" unicode="J" horiz-adv-x="458" d="M26 26 C59 9 111 -13 174 -13 C260 -13 363 27 363 146 L363 560 C363 582 380 616 406 630 L437 643 L167 643 L240 560 L240 130 C240 57 215 30 174 30 C141 30 41 180 41 180 L26 26 L26 26 Z " />
<glyph glyph-name="K" unicode="K" horiz-adv-x="674" d="M564 113 L387 413 L487 531 C507 555 542 600 591 629 L629 643 L400 643 L426 607 L426 521 L233 291 L233 560 C233 582 252 618 282 632 L307 643 L37 643 L62 630 C89 616 110 582 110 560 L110 84 C110 61 96 26 66 13 L37 0 L286 0 L233 87 L233 230 L307 318 L488 0 L649 0 C649 0 625 16 564 113 L564 113 Z " />
<glyph glyph-name="L" unicode="L" horiz-adv-x="588" d="M75 14 L47 0 L529 0 L549 182 L387 40 L243 40 L243 560 C243 582 259 617 285 631 L317 643 L47 643 L120 560 L120 84 C120 61 102 28 75 14 L75 14 Z " />
<glyph glyph-name="M" unicode="M" horiz-adv-x="867" d="M757 84 L757 560 C757 582 776 618 804 631 L830 643 L605 643 L425 52 L227 643 L10 643 L95 573 L95 104 C95 73 64 29 34 14 L7 0 L136 0 L224 0 L136 105 L136 535 L137 535 L321 0 L452 0 L632 592 L633 592 L633 84 C633 61 617 28 561 0 L830 0 C774 30 757 61 757 84 L757 84 Z " />
<glyph glyph-name="N" unicode="N" horiz-adv-x="711" d="M471 643 L559 540 L559 52 L243 643 L36 643 L120 575 L120 104 C120 73 96 35 69 20 L32 0 L250 0 L161 107 L161 540 L162 540 L452 0 L601 0 L601 540 C601 571 624 608 651 623 L688 643 L471 643 L471 643 Z " />
<glyph glyph-name="O" unicode="O" horiz-adv-x="726" d="M49 321 C49 120 180 -13 363 -13 C547 -13 677 120 677 321 C677 523 547 654 363 654 C179 654 49 523 49 321 L49 321 Z M544 321 C544 143 468 30 365 30 C261 30 182 142 182 319 C182 498 260 611 362 611 C467 611 544 501 544 321 L544 321 Z " />
<glyph glyph-name="P" unicode="P" horiz-adv-x="592" d="M95 84 C95 20 22 0 22 0 L304 0 C304 0 218 20 218 84 L218 259 L320 259 C449 259 559 323 559 455 C559 583 449 643 322 643 L22 643 L95 560 L95 84 Z M293 301 L218 301 L218 602 L295 602 C386 602 433 548 433 454 C433 349 381 301 293 301 L293 301 Z " />
<glyph glyph-name="Q" unicode="Q" horiz-adv-x="776" d="M484 1 C616 39 702 157 702 321 C702 523 572 654 388 654 C203 654 74 523 74 321 C74 120 204 -13 388 -13 C402 -13 416 -12 429 -10 L608 -113 L715 -88 L484 1 L484 1 Z M387 611 C488 611 569 501 569 321 C569 163 506 57 423 35 C362 67 249 141 224 188 C213 226 207 270 207 319 C207 498 288 611 387 611 L387 611 Z M230 151 C249 127 307 69 360 34 C312 42 250 93 230 151 L230 151 Z " />
<glyph glyph-name="R" unicode="R" horiz-adv-x="631" d="M278 288 L458 0 L622 0 C622 0 591 25 532 111 L397 297 C492 316 551 380 551 469 C551 572 476 643 330 643 L23 643 L95 560 L95 84 C95 22 23 0 23 0 L290 0 L256 21 C226 38 219 61 219 84 L219 288 L278 288 L278 288 Z M219 602 L309 602 C381 602 427 555 427 464 C427 364 377 329 289 329 L219 329 L219 602 L219 602 Z " />
<glyph glyph-name="S" unicode="S" horiz-adv-x="511" d="M58 32 C107 14 185 -13 257 -13 C355 -13 467 41 467 173 C467 296 375 343 326 365 L240 404 C187 428 142 466 142 521 C142 580 190 611 246 611 C285 611 425 498 425 498 L412 628 C372 641 306 654 248 654 C137 654 48 589 48 473 C48 381 106 328 172 299 L269 255 C329 228 371 188 371 130 C371 70 333 30 260 30 C208 30 43 180 43 180 L58 32 L58 32 Z " />
<glyph glyph-name="T" unicode="T" horiz-adv-x="573" d="M181 16 L152 0 L422 0 L391 16 C365 29 348 61 348 84 L348 602 L413 602 C450 602 471 577 550 466 L549 643 L25 643 L22 466 C103 579 123 602 160 602 L225 602 L225 84 C225 61 208 29 181 16 L181 16 Z " />
<glyph glyph-name="U" unicode="U" horiz-adv-x="673" d="M95 214 C95 39 221 -13 335 -13 C476 -13 579 65 579 208 L579 540 C579 615 652 643 652 643 L465 643 L538 540 L538 213 C538 103 459 55 376 55 C283 55 218 113 218 225 L218 560 C218 619 291 643 291 643 L21 643 L95 560 L95 214 L95 214 Z " />
<glyph glyph-name="V" unicode="V" horiz-adv-x="660" d="M90 547 L257 0 L391 0 L547 526 C558 561 581 611 619 631 L647 643 L431 643 L510 554 C510 545 508 535 505 526 L365 50 L217 547 C215 554 214 559 214 564 C214 581 219 608 254 629 L278 643 L6 643 L90 547 L90 547 Z " />
<glyph glyph-name="W" unicode="W" horiz-adv-x="994" d="M90 547 L257 0 L389 0 L492 336 L597 0 L731 0 L885 526 C896 561 915 605 954 628 L985 643 L770 643 L848 553 C848 545 847 535 844 526 L705 50 L524 643 L341 643 C341 643 397 621 426 547 L471 403 L365 57 L217 547 C216 554 215 559 215 565 C211 621 279 643 279 643 L6 643 L90 547 L90 547 Z " />
<glyph glyph-name="X" unicode="X" horiz-adv-x="659" d="M141 113 C83 32 11 0 11 0 L230 0 C230 0 167 27 167 65 C167 77 174 88 192 113 L300 269 L418 92 C423 84 427 75 427 68 C427 25 369 0 369 0 L650 0 C650 0 600 21 553 92 L382 347 L512 531 C573 614 643 643 643 643 L425 643 L489 581 C489 569 477 553 462 531 L358 382 L246 552 C241 560 237 568 237 576 C237 627 295 643 295 643 L13 643 L110 552 L277 303 L141 113 L141 113 Z " />
<glyph glyph-name="Y" unicode="Y" horiz-adv-x="659" d="M267 84 C267 30 193 0 193 0 L463 0 C463 0 390 26 390 84 L390 294 L534 533 C591 621 650 643 650 643 L444 643 L501 571 C501 559 496 546 488 533 L370 338 L182 643 L6 643 L101 552 L267 281 L267 84 L267 84 Z " />
<glyph glyph-name="Z" unicode="Z" horiz-adv-x="551" d="M31 24 L31 0 L497 0 L517 182 L355 40 L171 40 L515 618 L515 643 L71 643 L52 465 L210 602 L374 602 L31 24 L31 24 Z " />
<glyph glyph-name="bracketleft" unicode="&#x5b;" horiz-adv-x="297" d="M70 748 L70 -117 L246 -117 L246 -83 L152 -83 L152 713 L246 713 L246 748 L70 748 L70 748 Z " />
<glyph glyph-name="backslash" unicode="&#x5c;" horiz-adv-x="327" d="M270 -54 L307 -54 L47 746 L10 746 L270 -54 L270 -54 Z " />
<glyph glyph-name="bracketright" unicode="&#x5d;" horiz-adv-x="296" d="M51 -117 L226 -117 L226 748 L51 748 L51 713 L145 713 L145 -83 L51 -83 L51 -117 L51 -117 Z " />
<glyph glyph-name="asciicircum" unicode="&#x5e;" horiz-adv-x="413" d="M223 654 L222 654 L199 654 L198 654 L44 339 L110 339 L210 591 L311 339 L376 339 L223 654 L223 654 Z " />
<glyph glyph-name="underscore" unicode="&#x5f;" horiz-adv-x="550" d="M74 36 L74 0 L474 0 L474 36 L74 36 L74 36 Z " />
<glyph glyph-name="grave" unicode="&#x60;" horiz-adv-x="290" d="M43 592 L232 470 L246 482 L126 654 L43 592 L43 592 Z " />
<glyph glyph-name="a" unicode="a" horiz-adv-x="479" d="M461 0 C461 0 403 32 403 95 L404 319 C404 401 349 447 261 447 C195 447 115 418 56 394 L113 306 C113 306 192 424 245 424 C287 424 290 365 290 343 L290 280 L110 261 C110 261 29 193 29 99 C29 25 91 -10 152 -10 C214 -10 264 25 291 68 L295 0 L461 0 L461 0 Z M290 105 C269 81 236 58 202 58 C167 58 141 81 141 119 C141 155 166 191 203 215 C234 232 266 242 290 246 L290 105 L290 105 Z " />
<glyph glyph-name="b" unicode="b" horiz-adv-x="542" d="M322 447 C322 447 223 450 186 369 L186 670 L12 639 L70 568 L70 57 C68 40 59 0 34 0 L70 0 L72 0 L177 0 L180 68 C216 22 258 -10 312 -10 C399 -10 496 73 496 223 C496 359 418 447 322 447 L322 447 Z M279 50 C249 50 214 66 186 102 L186 330 C214 365 246 380 277 380 C343 380 378 310 378 215 C378 122 345 50 279 50 L279 50 Z " />
<glyph glyph-name="c" unicode="c" horiz-adv-x="443" d="M43 218 C43 76 136 -10 244 -10 C353 -10 409 74 421 120 L401 127 C375 90 333 72 291 72 C205 72 148 148 148 262 C148 353 193 421 238 421 C257 421 381 308 381 308 L395 415 C341 434 287 447 246 447 C139 447 43 363 43 218 L43 218 Z " />
<glyph glyph-name="d" unicode="d" horiz-adv-x="558" d="M48 215 C48 80 126 -10 220 -10 C276 -10 320 18 360 72 L363 0 L532 0 C477 26 473 58 473 80 L473 670 L300 639 L358 568 L358 374 C338 446 231 447 231 447 C144 447 48 365 48 215 L48 215 Z M358 108 C329 74 298 58 268 58 C200 58 165 127 165 222 C165 315 198 387 264 387 C296 387 329 371 358 336 L358 108 Z " />
<glyph glyph-name="e" unicode="e" horiz-adv-x="464" d="M34 218 C34 79 129 -10 247 -10 C345 -10 412 61 431 126 L410 132 C389 79 352 55 302 55 C234 55 144 124 141 241 L384 251 L423 259 C423 362 352 447 239 447 C125 447 34 358 34 218 L34 218 Z M314 283 L141 278 C148 367 185 427 231 427 C283 427 310 363 314 283 L314 283 Z " />
<glyph glyph-name="f" unicode="f" horiz-adv-x="441" d="M61 13 L37 0 L285 0 L256 13 C222 27 211 58 211 80 L211 394 L311 394 L330 436 L211 436 L211 552 C211 610 237 638 255 638 L379 556 L435 645 C387 655 325 665 279 665 C168 665 95 602 95 459 L95 436 L37 436 L37 394 L95 394 L95 80 C95 58 88 26 61 13 L61 13 Z " />
<glyph glyph-name="g" unicode="g" horiz-adv-x="498" d="M31 -118 C31 -178 135 -203 211 -203 C315 -203 471 -157 471 -36 C471 39 410 73 322 73 C298 73 204 70 176 70 C162 70 152 77 152 88 C152 98 159 107 198 141 C210 140 225 139 238 139 C360 139 429 202 429 284 C429 368 361 399 313 415 L428 415 L444 491 L265 437 L242 437 C129 437 49 384 49 288 C49 220 89 171 154 150 C154 150 46 67 46 33 C46 9 62 -17 108 -25 L108 -31 C86 -41 31 -75 31 -118 L31 -118 Z M385 -81 C385 -128 315 -165 225 -165 C148 -165 115 -139 115 -103 C115 -70 142 -44 163 -29 C195 -28 296 -25 313 -25 C363 -25 385 -52 385 -81 L385 -81 Z M321 288 C321 211 285 166 240 166 C196 166 159 212 159 288 C159 365 197 415 240 415 C283 415 321 366 321 288 L321 288 Z " />
<glyph glyph-name="h" unicode="h" horiz-adv-x="560" d="M43 8 L27 0 L258 0 L239 10 C211 23 201 58 201 80 L201 312 C232 350 267 369 302 369 C343 369 370 344 370 279 L370 80 C370 58 356 22 328 8 L312 0 L544 0 L523 11 C496 25 485 58 485 80 L485 316 C485 415 418 447 359 447 C290 447 236 403 201 354 L201 670 L27 639 L85 568 L85 80 C85 58 70 22 43 8 L43 8 Z " />
<glyph glyph-name="i" unicode="i" horiz-adv-x="276" d="M50 8 L32 0 L263 0 L243 9 C215 23 206 58 206 80 L206 452 L32 408 L90 343 L90 80 C90 58 77 21 50 8 L50 8 Z M73 569 C73 535 137 508 137 508 C137 508 202 535 202 569 C202 602 137 630 137 630 C137 630 73 602 73 569 L73 569 Z " />
<glyph glyph-name="j" unicode="j" horiz-adv-x="280" d="M31 -159 L15 -193 C127 -168 210 -106 210 39 L210 452 L36 408 L95 343 L95 -13 C95 -104 83 -130 31 -159 L31 -159 Z M78 569 C78 535 142 508 142 508 C142 508 207 535 207 569 C207 602 142 630 142 630 C142 630 78 602 78 569 L78 569 Z " />
<glyph glyph-name="k" unicode="k" horiz-adv-x="560" d="M484 75 L346 289 C441 365 529 436 529 436 L320 436 L359 389 C365 383 374 371 374 365 C374 362 369 353 359 345 L210 221 L210 671 L36 639 L95 568 L95 80 C95 58 85 26 57 11 L36 0 L262 0 L210 85 L210 178 L264 222 L400 0 L539 0 C539 0 508 36 484 75 L484 75 Z " />
<glyph glyph-name="l" unicode="l" horiz-adv-x="280" d="M210 52 C210 63 210 73 210 80 L210 671 L37 639 L95 568 L95 80 C95 58 88 26 61 12 L37 0 L242 0 L210 52 L210 52 Z " />
<glyph glyph-name="m" unicode="m" horiz-adv-x="823" d="M46 10 L27 0 L200 0 C200 0 200 58 200 80 L200 309 C233 349 262 367 295 367 C333 367 359 340 359 278 L359 80 C359 58 346 22 319 8 L302 0 L474 0 C474 0 474 58 474 80 L474 309 C507 349 537 367 568 367 C607 367 632 340 632 278 L632 80 C632 58 621 23 594 10 L576 0 L806 0 L785 11 C758 25 748 58 748 80 L748 316 C748 415 681 447 626 447 C559 447 503 401 472 346 C460 420 401 447 352 447 C285 447 228 399 196 345 L198 452 L27 408 L85 343 L85 80 C85 58 73 24 46 10 L46 10 Z " />
<glyph glyph-name="n" unicode="n" horiz-adv-x="560" d="M337 10 L317 0 L548 0 L528 11 C501 25 490 58 490 80 L490 316 C490 416 422 447 362 447 C294 447 238 401 203 350 L204 452 L32 408 L90 343 L90 80 C90 58 80 24 53 11 L32 0 L254 0 L206 79 C206 79 206 80 206 80 L206 312 C237 350 272 369 306 369 C348 369 375 344 375 279 L375 80 C375 58 365 23 337 10 L337 10 Z " />
<glyph glyph-name="o" unicode="o" horiz-adv-x="523" d="M33 219 C33 86 119 -10 262 -10 C405 -10 490 86 490 219 C490 351 405 447 262 447 C119 447 33 351 33 219 L33 219 Z M368 219 C368 86 319 28 262 28 C206 28 155 86 155 219 C155 352 206 410 262 410 C319 410 368 357 368 219 L368 219 Z " />
<glyph glyph-name="p" unicode="p" horiz-adv-x="571" d="M90 -106 C90 -161 32 -186 32 -186 L286 -186 C286 -186 205 -161 205 -106 L205 63 C239 19 279 -10 332 -10 C418 -10 516 73 516 223 C516 357 437 447 342 447 C287 447 242 419 203 365 L203 452 L32 408 L90 343 L90 -106 Z M398 215 C398 122 364 50 299 50 C267 50 233 66 205 102 L205 330 C233 365 265 380 295 380 C363 380 398 310 398 215 L398 215 Z " />
<glyph glyph-name="q" unicode="q" horiz-adv-x="547" d="M362 -108 L296 -188 L536 -188 C536 -188 477 -163 477 -108 L477 453 L366 436 L370 373 C370 373 317 447 236 447 C149 447 53 365 53 215 C53 80 131 -10 225 -10 C280 -10 324 16 362 68 L362 -108 Z M362 107 C334 73 302 58 273 58 C206 58 171 127 171 222 C171 315 203 387 269 387 C300 387 334 372 362 337 L362 107 Z " />
<glyph glyph-name="r" unicode="r" horiz-adv-x="395" d="M95 80 C95 28 36 0 36 0 L288 0 C288 0 210 22 210 80 L210 307 C245 361 293 413 293 413 C293 413 328 370 358 330 L377 434 C365 441 352 446 331 447 C268 450 226 421 207 366 L207 452 L36 408 L95 343 L95 80 L95 80 Z " />
<glyph glyph-name="s" unicode="s" horiz-adv-x="436" d="M76 18 C116 4 177 -10 228 -10 C324 -10 393 40 393 119 C393 190 341 235 284 257 L214 286 C180 300 154 319 154 352 C154 386 182 409 218 409 C244 409 367 316 367 316 L356 428 C320 439 266 446 225 446 C141 446 64 400 64 321 C64 254 109 210 173 183 L240 155 C277 139 303 116 303 84 C303 51 274 28 234 28 C190 28 64 142 64 142 L76 18 L76 18 Z " />
<glyph glyph-name="t" unicode="t" horiz-adv-x="335" d="M70 106 C70 20 126 -10 183 -10 C243 -10 285 23 305 47 L293 65 C282 52 263 34 243 34 C214 34 185 65 185 123 L185 394 L308 394 L308 436 L185 436 L185 572 L183 572 L70 483 L70 436 L37 436 L10 394 L70 394 L70 106 L70 106 Z " />
<glyph glyph-name="u" unicode="u" horiz-adv-x="555" d="M85 122 C85 20 156 -10 215 -10 C284 -10 338 37 373 87 L372 0 L544 0 C544 0 485 26 485 80 L485 436 L312 436 L370 356 L370 125 C338 87 304 68 269 68 C228 68 200 93 200 157 L200 436 L26 436 C73 407 85 356 85 356 L85 122 L85 122 Z " />
<glyph glyph-name="v" unicode="v" horiz-adv-x="495" d="M77 356 L190 0 L305 0 L405 317 C413 343 433 400 465 419 L491 436 L319 436 L379 351 C379 347 378 343 376 338 L288 52 L195 356 C194 361 193 365 193 369 C193 383 198 414 225 427 L246 436 L11 436 L77 356 L77 356 Z " />
<glyph glyph-name="w" unicode="w" horiz-adv-x="762" d="M71 356 L191 0 L305 0 L379 220 L454 0 L567 0 L673 317 C681 344 691 387 725 412 L759 436 L585 436 L645 354 C645 347 644 342 642 336 L550 52 L427 436 L269 436 C269 436 309 417 335 356 L361 275 L288 52 L190 356 C189 361 188 365 188 369 C187 417 241 436 241 436 L5 436 L71 356 L71 356 Z " />
<glyph glyph-name="x" unicode="x" horiz-adv-x="516" d="M115 85 C53 18 12 0 12 0 L196 0 L169 15 C146 31 144 48 147 65 C148 70 150 76 156 85 L226 173 L294 76 C297 69 300 64 300 58 C300 18 258 0 258 0 L505 0 C505 0 464 22 424 76 L305 242 L389 349 C443 416 491 436 491 436 L307 436 L355 371 C355 365 352 358 347 351 L285 270 L222 361 C218 366 215 372 215 377 C215 413 259 436 259 436 L10 436 C10 436 52 413 91 361 L206 201 L115 85 L115 85 Z " />
<glyph glyph-name="y" unicode="y" horiz-adv-x="515" d="M73 -175 C87 -183 107 -187 125 -187 C154 -187 214 -180 238 -117 L407 318 C445 414 497 436 497 436 L324 436 L382 354 C382 349 381 344 379 339 L289 98 L194 357 C193 362 166 436 166 436 L5 436 L73 357 L208 2 L251 2 L212 -100 C205 -118 191 -137 175 -137 L66 -53 L73 -175 L73 -175 Z " />
<glyph glyph-name="z" unicode="z" horiz-adv-x="427" d="M36 26 L36 0 L390 0 L403 149 L276 38 L162 38 L403 409 L403 436 L62 436 L49 292 L177 399 L274 399 L36 26 L36 26 Z " />
<glyph glyph-name="braceleft" unicode="&#x7b;" horiz-adv-x="323" d="M121 80 C121 -82 197 -130 297 -143 L300 -124 C226 -103 205 -29 205 76 L205 199 C205 263 161 303 111 303 C161 303 205 342 205 406 L205 529 C205 635 226 708 300 729 L297 748 C197 736 121 687 121 525 L121 398 C121 348 80 320 50 313 L50 292 C80 286 121 257 121 207 L121 80 L121 80 Z " />
<glyph glyph-name="bar" unicode="&#x7c;" horiz-adv-x="176" d="M70 748 L70 -52 L106 -52 L106 748 L70 748 L70 748 Z " />
<glyph glyph-name="braceright" unicode="&#x7d;" horiz-adv-x="333" d="M23 -124 L27 -143 C127 -130 202 -82 202 80 L202 207 C202 257 244 286 273 292 L273 313 C244 320 202 348 202 398 L202 525 C202 687 127 736 27 748 L23 729 C98 708 119 635 119 529 L119 406 C119 342 163 303 212 303 C163 303 119 263 119 199 L119 76 C119 -29 98 -103 23 -124 L23 -124 Z " />
<glyph glyph-name="asciitilde" unicode="&#x7e;" horiz-adv-x="471" d="M167 290 C211 290 267 251 318 251 C350 251 374 264 401 282 L401 351 L317 306 C274 306 221 344 167 344 C131 344 99 330 70 313 L70 251 L167 290 L167 290 Z " />
<glyph glyph-name="exclamdown" unicode="&#xa1;" horiz-adv-x="229" d="M184 -2 L126 457 L102 457 L42 -2 L42 -23 L184 -6 L184 -2 Z M179 579 C179 613 112 643 112 643 C112 643 47 613 47 579 C47 544 112 514 112 514 C112 514 179 544 179 579 L179 579 Z " />
<glyph glyph-name="cent" unicode="&#xa2;" horiz-adv-x="474" d="M436 224 L416 230 C390 193 348 175 305 175 C290 175 277 177 264 181 L264 503 L395 411 L410 518 C356 545 284 550 264 550 L264 636 L230 636 L230 548 C136 533 58 451 58 321 C58 215 138 114 230 96 L230 -1 L264 -1 L264 93 C369 96 424 178 436 224 L436 224 Z M163 365 C163 440 193 492 230 507 L230 199 C204 218 163 265 163 365 L163 365 Z " />
<glyph glyph-name="sterling" unicode="&#xa3;" horiz-adv-x="397" d="M28 30 L28 0 L332 0 L365 93 L132 64 C132 64 191 155 196 205 L304 205 L304 235 L202 235 L202 242 C202 301 166 348 166 399 C166 438 190 460 223 460 C249 460 357 364 357 364 L347 474 C317 480 264 491 227 491 C140 491 75 435 75 344 C75 305 87 269 96 235 L28 235 L28 205 L104 205 C105 193 107 179 107 163 C107 125 92 103 60 68 L28 30 L28 30 Z " />
<glyph glyph-name="currency" unicode="&#xa4;" horiz-adv-x="500" d="M127 107 C160 80 204 64 250 64 C297 64 340 80 373 108 L413 69 L438 96 L400 135 C427 169 444 212 444 258 C444 304 427 348 400 381 L438 420 L413 446 L374 408 C340 436 297 452 250 452 C204 452 159 436 127 408 L87 447 L61 421 L100 382 C72 348 56 305 56 258 C56 211 73 168 101 133 L61 95 L87 68 L127 107 Z M405 258 C405 171 338 101 250 101 C162 101 94 171 94 258 C94 345 162 415 250 415 C338 415 405 345 405 258 L405 258 Z " />
<glyph glyph-name="yen" unicode="&#xa5;" horiz-adv-x="530" d="M523 481 L360 481 L409 415 C409 406 405 400 403 394 L311 251 L158 481 L7 481 C7 481 59 441 77 413 L190 238 L114 238 L114 211 L208 211 L211 207 L211 167 L115 167 L115 139 L211 139 L211 68 C211 21 155 0 155 0 L381 0 L325 68 L325 139 L421 139 L421 167 L325 167 L325 211 L420 211 L420 238 L335 238 L437 395 C478 453 523 481 523 481 L523 481 Z " />
<glyph glyph-name="section" unicode="&#xa7;" horiz-adv-x="537" d="M138 -57 C166 -71 220 -90 271 -90 C365 -90 431 -31 431 55 C431 96 416 128 389 154 C433 183 477 223 477 293 C477 398 368 446 307 476 C230 516 190 548 190 592 C190 636 225 664 262 664 L420 555 L410 678 C382 685 320 702 269 702 C174 702 108 646 108 559 C108 518 123 486 148 462 C112 438 62 397 62 325 C62 228 151 182 221 145 C313 97 352 61 352 16 C352 -20 321 -52 277 -52 L127 73 L138 -57 Z M402 249 C402 214 382 195 362 178 C332 200 296 218 260 237 C200 268 133 304 133 365 C133 401 153 423 174 438 C200 418 231 403 262 386 C348 343 402 313 402 249 L402 249 Z " />
<glyph glyph-name="dieresis" unicode="&#xa8;" horiz-adv-x="411" d="M68 597 C68 566 124 541 124 541 C124 541 181 566 181 597 C181 628 124 654 124 654 C124 654 68 628 68 597 L68 597 Z M238 597 C238 566 295 541 295 541 C295 541 352 566 352 597 C352 628 295 654 295 654 C295 654 238 628 238 597 L238 597 Z " />
<glyph glyph-name="copyright" unicode="&#xa9;" horiz-adv-x="775" d="M59 319 C59 141 207 -4 389 -4 C569 -4 716 141 716 319 C716 498 569 643 389 643 C207 643 59 498 59 319 L59 319 Z M677 319 C677 169 551 33 389 33 C234 33 101 161 101 319 C101 479 234 606 389 606 C551 606 677 471 677 319 L677 319 Z M199 324 C199 178 296 123 391 123 C431 123 486 134 513 140 L524 247 C524 247 419 148 393 148 C350 148 302 206 302 324 C302 444 350 501 397 501 L524 401 L514 507 C478 517 424 525 395 525 C286 525 199 456 199 324 L199 324 Z " />
<glyph glyph-name="ordfeminine" unicode="&#xaa;" horiz-adv-x="353" d="M285 424 L285 570 C285 623 248 654 188 654 C145 654 90 636 50 620 L89 551 C89 551 163 634 179 633 C211 631 210 591 210 581 L210 544 L194 541 L194 541 L73 520 C73 520 32 482 33 425 C33 376 74 353 116 353 C158 353 192 377 210 404 L213 353 L324 353 C324 353 285 413 285 424 L285 424 Z M210 433 C194 416 171 401 146 401 C124 401 106 415 106 437 C106 454 116 468 131 481 C154 497 181 512 210 519 L210 433 L210 433 Z " />
<glyph glyph-name="guillemotleft" unicode="&#xab;" horiz-adv-x="477" d="M31 238 L240 38 L265 38 L140 245 L265 453 L240 453 L31 253 L31 238 Z M210 238 L419 38 L443 38 L319 245 L443 453 L419 453 L210 253 L210 238 Z " />
<glyph glyph-name="registered" unicode="&#xae;" horiz-adv-x="565" d="M284 643 C153 643 46 536 46 410 C46 282 153 176 284 176 C412 176 519 282 519 410 C519 536 412 643 284 643 L284 643 Z M284 213 C175 213 82 300 82 410 C82 519 175 607 284 607 C394 607 484 513 484 410 C484 306 394 213 284 213 L284 213 Z M335 404 C370 416 392 441 392 475 C392 523 357 552 294 552 L159 552 L189 514 L189 312 C189 291 159 274 159 274 L279 274 C279 274 249 291 249 312 L249 396 L274 396 L345 274 L418 274 L392 306 L335 404 L335 404 Z M249 417 L249 531 L284 531 C314 531 332 509 332 477 C332 431 311 417 275 417 L249 417 L249 417 Z " />
<glyph glyph-name="degree" unicode="&#xb0;" horiz-adv-x="411" d="M79 512 C79 439 140 381 213 381 C285 381 346 439 346 512 C346 586 284 643 213 643 C140 643 79 586 79 512 L79 512 Z M302 512 C302 463 264 420 213 420 C162 420 124 463 124 512 C124 564 162 604 213 604 C264 604 302 564 302 512 L302 512 Z " />
<glyph glyph-name="acute" unicode="&#xb4;" horiz-adv-x="272" d="M43 482 L56 470 L245 592 L163 654 L43 482 L43 482 Z " />
<glyph glyph-name="mu" unicode="&#xb5;" horiz-adv-x="536" d="M524 0 C524 0 466 25 466 80 L466 435 L292 435 L351 355 L351 125 C318 87 284 68 250 68 C209 68 181 92 181 157 L181 467 L7 435 L7 435 L7 435 L8 435 L65 365 C65 362 65 358 65 355 L65 121 C65 121 65 121 65 -123 C65 -145 58 -178 31 -192 L7 -204 L212 -204 L181 -152 L181 -10 C186 -10 191 -10 196 -10 C264 -10 318 36 353 87 L352 0 L524 0 L524 0 Z " />
<glyph glyph-name="paragraph" unicode="&#xb6;" horiz-adv-x="457" d="M195 84 C195 23 122 0 122 0 L245 0 L245 643 L175 643 C91 643 23 575 23 491 C23 408 91 339 175 339 L195 339 L195 84 Z M308 643 L308 0 L430 0 C430 0 357 24 357 84 L357 560 C357 612 430 643 430 643 L308 643 Z " />
<glyph glyph-name="cedilla" unicode="&#xb8;" horiz-adv-x="309" d="M49 -164 C78 -172 116 -179 145 -179 C200 -179 250 -154 250 -99 C250 -43 196 -17 156 -13 L181 19 L146 19 L83 -58 L110 -60 C154 -66 182 -85 182 -114 C182 -140 162 -147 149 -147 L88 -101 L49 -164 L49 -164 Z " />
<glyph glyph-name="ordmasculine" unicode="&#xba;" horiz-adv-x="386" d="M39 504 C39 416 97 353 194 353 C291 353 349 418 349 504 C349 591 290 654 194 654 C98 654 39 591 39 504 L39 504 Z M267 504 C267 419 233 382 194 382 C156 382 120 419 120 504 C120 588 156 625 194 625 C233 625 267 593 267 504 L267 504 Z " />
<glyph glyph-name="guillemotright" unicode="&#xbb;" horiz-adv-x="487" d="M34 37 L59 37 L268 237 L268 252 L59 452 L34 452 L159 244 L34 37 Z M212 37 L238 37 L447 237 L447 252 L238 452 L212 452 L338 244 L212 37 Z " />
<glyph glyph-name="questiondown" unicode="&#xbf;" horiz-adv-x="440" d="M333 304 L311 461 L290 459 L265 375 C178 344 37 270 37 137 C37 31 123 -17 214 -17 C267 -17 351 4 398 23 L361 132 L211 21 C174 21 141 54 141 111 C141 229 249 275 333 304 L333 304 Z M357 579 C357 614 291 643 291 643 C291 643 225 614 225 579 C225 544 291 515 291 515 C291 515 357 544 357 579 L357 579 Z " />
<glyph glyph-name="Agrave" unicode="&#xc0;" horiz-adv-x="687" d="M47 14 L19 0 L220 0 L187 25 C159 49 152 81 166 116 L200 210 L406 210 L449 95 C461 71 448 48 429 29 L391 0 L668 0 C607 33 589 73 581 95 L370 643 L313 643 L124 116 C110 82 86 34 47 14 L47 14 Z M391 250 L215 250 L301 490 L302 490 L391 250 Z M242 792 L431 670 L445 682 L325 854 L242 792 Z " />
<glyph glyph-name="Aacute" unicode="&#xc1;" horiz-adv-x="687" d="M47 14 L19 0 L220 0 L187 25 C159 49 152 81 166 116 L200 210 L406 210 L449 95 C461 71 448 48 429 29 L391 0 L668 0 C607 33 589 73 581 95 L370 643 L313 643 L124 116 C110 82 86 34 47 14 L47 14 Z M391 250 L215 250 L301 490 L302 490 L391 250 Z M242 682 L255 670 L444 792 L362 854 L242 682 Z " />
<glyph glyph-name="Acircumflex" unicode="&#xc2;" horiz-adv-x="687" d="M47 14 L19 0 L220 0 L187 25 C159 49 152 81 166 116 L200 210 L406 210 L449 95 C461 71 448 48 429 29 L391 0 L668 0 C607 33 589 73 581 95 L370 643 L313 643 L124 116 C110 82 86 34 47 14 L47 14 Z M391 250 L215 250 L301 490 L302 490 L391 250 Z M221 687 L234 677 L343 754 L453 678 L466 687 L351 854 L336 854 L221 687 Z " />
<glyph glyph-name="Atilde" unicode="&#xc3;" horiz-adv-x="687" d="M47 14 L19 0 L220 0 L187 25 C159 49 152 81 166 116 L200 210 L406 210 L449 95 C461 71 448 48 429 29 L391 0 L668 0 C607 33 589 73 581 95 L370 643 L313 643 L124 116 C110 82 86 34 47 14 L47 14 Z M391 250 L215 250 L301 490 L302 490 L391 250 Z M329 773 C349 766 370 760 386 760 C464 760 454 854 454 854 C443 835 432 826 414 826 C398 826 381 831 355 842 C333 851 313 856 297 856 C223 856 229 760 229 760 C244 779 252 789 268 789 C283 789 301 784 329 773 L329 773 Z " />
<glyph glyph-name="Adieresis" unicode="&#xc4;" horiz-adv-x="687" d="M47 14 L19 0 L220 0 L187 25 C159 49 152 81 166 116 L200 210 L406 210 L449 95 C461 71 448 48 429 29 L391 0 L668 0 C607 33 589 73 581 95 L370 643 L313 643 L124 116 C110 82 86 34 47 14 L47 14 Z M391 250 L215 250 L301 490 L302 490 L391 250 Z M201 797 C201 766 257 741 257 741 C257 741 314 766 314 797 C314 828 257 854 257 854 C257 854 201 828 201 797 L201 797 Z M371 797 C371 766 428 741 428 741 C428 741 485 766 485 797 C485 828 428 854 428 854 C428 854 371 828 371 797 L371 797 Z " />
<glyph glyph-name="Aring" unicode="&#xc5;" horiz-adv-x="687" d="M47 14 L19 0 L220 0 L187 25 C159 49 152 81 166 116 L200 210 L406 210 L449 95 C461 71 448 48 429 29 L391 0 L668 0 C607 33 589 73 581 95 L370 643 L313 643 L124 116 C110 82 86 34 47 14 L47 14 Z M391 250 L215 250 L301 490 L302 490 L391 250 Z M253 769 C253 719 295 681 343 681 C393 681 434 721 434 769 C434 815 393 854 343 854 C295 854 253 816 253 769 L253 769 Z M397 769 C397 739 374 714 343 714 C314 714 291 739 291 769 C291 797 314 820 343 820 C374 820 397 797 397 769 L397 769 Z " />
<glyph glyph-name="AE" unicode="&#xc6;" horiz-adv-x="910" d="M126 112 C75 30 11 0 11 0 L215 0 C215 0 158 33 158 72 C158 84 165 96 173 112 L251 247 L448 247 L448 84 C448 61 432 50 405 37 L375 22 L375 0 L859 0 L880 182 C880 182 781 41 717 41 L571 41 L571 314 L686 314 C745 314 785 240 785 240 L785 355 L571 355 L571 603 L692 603 L851 466 L831 643 L432 643 C432 643 389 568 126 112 L126 112 Z M448 583 L448 287 L274 287 L448 583 Z " />
<glyph glyph-name="Ccedilla" unicode="&#xc7;" horiz-adv-x="634" d="M59 322 C59 94 207 -13 371 -13 C436 -13 523 8 567 20 L580 163 C580 163 422 24 379 24 C285 24 193 125 193 322 C193 523 281 632 372 632 L581 479 L568 623 C516 638 436 654 372 654 C198 654 59 530 59 322 L59 322 Z M216 -164 C245 -172 283 -179 312 -179 C367 -179 417 -154 417 -99 C417 -43 363 -17 323 -13 L348 19 L313 19 L250 -58 L277 -60 C321 -66 349 -85 349 -114 C349 -140 329 -147 316 -147 L255 -101 L216 -164 Z " />
<glyph glyph-name="Egrave" unicode="&#xc8;" horiz-adv-x="580" d="M46 12 L22 0 L519 0 L538 182 C538 182 417 40 376 40 L218 40 L218 313 L352 313 C378 313 450 239 450 239 L450 354 L218 354 L218 603 L353 603 L511 466 L493 643 L22 643 L95 560 L95 84 C95 61 73 25 46 12 L46 12 Z M188 792 L377 670 L391 682 L271 854 L188 792 Z " />
<glyph glyph-name="Eacute" unicode="&#xc9;" horiz-adv-x="580" d="M46 12 L22 0 L519 0 L538 182 C538 182 417 40 376 40 L218 40 L218 313 L352 313 C378 313 450 239 450 239 L450 354 L218 354 L218 603 L353 603 L511 466 L493 643 L22 643 L95 560 L95 84 C95 61 73 25 46 12 L46 12 Z M189 682 L202 670 L391 792 L309 854 L189 682 Z " />
<glyph glyph-name="Ecircumflex" unicode="&#xca;" horiz-adv-x="580" d="M46 12 L22 0 L519 0 L538 182 C538 182 417 40 376 40 L218 40 L218 313 L352 313 C378 313 450 239 450 239 L450 354 L218 354 L218 603 L353 603 L511 466 L493 643 L22 643 L95 560 L95 84 C95 61 73 25 46 12 L46 12 Z M167 687 L180 677 L289 754 L399 678 L412 687 L297 854 L282 854 L167 687 Z " />
<glyph glyph-name="Edieresis" unicode="&#xcb;" horiz-adv-x="580" d="M46 12 L22 0 L519 0 L538 182 C538 182 417 40 376 40 L218 40 L218 313 L352 313 C378 313 450 239 450 239 L450 354 L218 354 L218 603 L353 603 L511 466 L493 643 L22 643 L95 560 L95 84 C95 61 73 25 46 12 L46 12 Z M148 797 C148 766 204 741 204 741 C204 741 261 766 261 797 C261 828 204 854 204 854 C204 854 148 828 148 797 L148 797 Z M318 797 C318 766 375 741 375 741 C375 741 432 766 432 797 C432 828 375 854 375 854 C375 854 318 828 318 797 L318 797 Z " />
<glyph glyph-name="Igrave" unicode="&#xcc;" horiz-adv-x="368" d="M67 11 L47 0 L317 0 L243 84 L243 560 C243 582 259 616 317 643 L47 643 L120 560 L120 84 C120 61 92 25 67 11 L67 11 Z M82 792 L271 670 L285 682 L165 854 L82 792 Z " />
<glyph glyph-name="Iacute" unicode="&#xcd;" horiz-adv-x="368" d="M67 11 L47 0 L317 0 L243 84 L243 560 C243 582 259 616 317 643 L47 643 L120 560 L120 84 C120 61 92 25 67 11 L67 11 Z M83 682 L96 670 L285 792 L203 854 L83 682 Z " />
<glyph glyph-name="Icircumflex" unicode="&#xce;" horiz-adv-x="368" d="M67 11 L47 0 L317 0 L243 84 L243 560 C243 582 259 616 317 643 L47 643 L120 560 L120 84 C120 61 92 25 67 11 L67 11 Z M61 687 L74 677 L183 754 L293 678 L306 687 L191 854 L176 854 L61 687 Z " />
<glyph glyph-name="Idieresis" unicode="&#xcf;" horiz-adv-x="368" d="M67 11 L47 0 L317 0 L243 84 L243 560 C243 582 259 616 317 643 L47 643 L120 560 L120 84 C120 61 92 25 67 11 L67 11 Z M42 797 C42 766 98 741 98 741 C98 741 155 766 155 797 C155 828 98 854 98 854 C98 854 42 828 42 797 L42 797 Z M212 797 C212 766 269 741 269 741 C269 741 326 766 326 797 C326 828 269 854 269 854 C269 854 212 828 212 797 L212 797 Z " />
<glyph glyph-name="Eth" unicode="&#xd0;" horiz-adv-x="712" d="M327 643 L43 643 L116 559 L116 350 L50 350 L50 293 L116 293 L116 83 C116 61 103 29 76 15 L43 0 L326 0 C531 0 653 133 653 322 C653 512 527 643 327 643 L327 643 Z M317 41 L239 41 L239 293 L314 293 L314 350 L239 350 L239 602 L317 602 C451 602 521 495 521 321 C521 151 451 41 317 41 L317 41 Z " />
<glyph glyph-name="Ntilde" unicode="&#xd1;" horiz-adv-x="711" d="M471 643 L559 540 L559 52 L243 643 L36 643 L120 575 L120 104 C120 73 96 35 69 20 L32 0 L250 0 L161 107 L161 540 L162 540 L452 0 L601 0 L601 540 C601 571 624 608 651 623 L688 643 L471 643 L471 643 Z M341 773 C361 766 382 760 398 760 C476 760 466 854 466 854 C455 835 444 826 426 826 C410 826 393 831 367 842 C345 851 325 856 309 856 C235 856 241 760 241 760 C256 779 264 789 280 789 C295 789 313 784 341 773 L341 773 Z " />
<glyph glyph-name="Ograve" unicode="&#xd2;" horiz-adv-x="726" d="M49 321 C49 120 180 -13 363 -13 C547 -13 677 120 677 321 C677 523 547 654 363 654 C179 654 49 523 49 321 L49 321 Z M544 321 C544 143 468 30 365 30 C261 30 182 142 182 319 C182 498 260 611 362 611 C467 611 544 501 544 321 L544 321 Z M261 792 L450 670 L464 682 L344 854 L261 792 Z " />
<glyph glyph-name="Oacute" unicode="&#xd3;" horiz-adv-x="726" d="M49 321 C49 120 180 -13 363 -13 C547 -13 677 120 677 321 C677 523 547 654 363 654 C179 654 49 523 49 321 L49 321 Z M544 321 C544 143 468 30 365 30 C261 30 182 142 182 319 C182 498 260 611 362 611 C467 611 544 501 544 321 L544 321 Z M262 682 L275 670 L464 792 L382 854 L262 682 Z " />
<glyph glyph-name="Ocircumflex" unicode="&#xd4;" horiz-adv-x="726" d="M49 321 C49 120 180 -13 363 -13 C547 -13 677 120 677 321 C677 523 547 654 363 654 C179 654 49 523 49 321 L49 321 Z M544 321 C544 143 468 30 365 30 C261 30 182 142 182 319 C182 498 260 611 362 611 C467 611 544 501 544 321 L544 321 Z M240 687 L253 677 L362 754 L472 678 L485 687 L370 854 L355 854 L240 687 Z " />
<glyph glyph-name="Otilde" unicode="&#xd5;" horiz-adv-x="726" d="M49 321 C49 120 180 -13 363 -13 C547 -13 677 120 677 321 C677 523 547 654 363 654 C179 654 49 523 49 321 L49 321 Z M544 321 C544 143 468 30 365 30 C261 30 182 142 182 319 C182 498 260 611 362 611 C467 611 544 501 544 321 L544 321 Z M348 773 C368 766 389 760 405 760 C483 760 473 854 473 854 C462 835 451 826 433 826 C417 826 400 831 374 842 C352 851 332 856 316 856 C242 856 248 760 248 760 C263 779 271 789 287 789 C302 789 320 784 348 773 L348 773 Z " />
<glyph glyph-name="Odieresis" unicode="&#xd6;" horiz-adv-x="726" d="M49 321 C49 120 180 -13 363 -13 C547 -13 677 120 677 321 C677 523 547 654 363 654 C179 654 49 523 49 321 L49 321 Z M544 321 C544 143 468 30 365 30 C261 30 182 142 182 319 C182 498 260 611 362 611 C467 611 544 501 544 321 L544 321 Z M221 797 C221 766 277 741 277 741 C277 741 334 766 334 797 C334 828 277 854 277 854 C277 854 221 828 221 797 L221 797 Z M391 797 C391 766 448 741 448 741 C448 741 505 766 505 797 C505 828 448 854 448 854 C448 854 391 828 391 797 L391 797 Z " />
<glyph glyph-name="multiply" unicode="&#xd7;" horiz-adv-x="328" d="M23 179 L46 154 L164 271 L283 154 L305 175 L187 294 L304 412 L280 436 L164 318 L46 433 L25 412 L140 294 L23 179 L23 179 Z " />
<glyph glyph-name="Oslash" unicode="&#xd8;" horiz-adv-x="766" d="M697 321 C697 439 652 533 578 591 L648 700 L607 700 L549 611 C501 639 446 654 383 654 C198 654 69 523 69 321 C69 203 113 110 186 52 L111 -65 L152 -65 L215 31 C262 3 320 -13 383 -13 C566 -13 697 120 697 321 L697 321 Z M240 134 C215 182 202 245 202 319 C202 499 279 611 382 611 C430 611 474 587 505 543 L240 134 Z M564 321 C564 143 487 30 385 30 C335 30 292 56 259 101 L525 510 C549 463 564 398 564 321 L564 321 Z " />
<glyph glyph-name="Ugrave" unicode="&#xd9;" horiz-adv-x="673" d="M95 214 C95 39 221 -13 335 -13 C476 -13 579 65 579 208 L579 540 C579 615 652 643 652 643 L465 643 L538 540 L538 213 C538 103 459 55 376 55 C283 55 218 113 218 225 L218 560 C218 619 291 643 291 643 L21 643 L95 560 L95 214 Z M235 792 L424 670 L438 682 L318 854 L235 792 Z " />
<glyph glyph-name="Uacute" unicode="&#xda;" horiz-adv-x="673" d="M95 214 C95 39 221 -13 335 -13 C476 -13 579 65 579 208 L579 540 C579 615 652 643 652 643 L465 643 L538 540 L538 213 C538 103 459 55 376 55 C283 55 218 113 218 225 L218 560 C218 619 291 643 291 643 L21 643 L95 560 L95 214 Z M235 682 L248 670 L437 792 L355 854 L235 682 Z " />
<glyph glyph-name="Ucircumflex" unicode="&#xdb;" horiz-adv-x="673" d="M95 214 C95 39 221 -13 335 -13 C476 -13 579 65 579 208 L579 540 C579 615 652 643 652 643 L465 643 L538 540 L538 213 C538 103 459 55 376 55 C283 55 218 113 218 225 L218 560 C218 619 291 643 291 643 L21 643 L95 560 L95 214 Z M214 687 L227 677 L336 754 L446 678 L459 687 L344 854 L329 854 L214 687 Z " />
<glyph glyph-name="Udieresis" unicode="&#xdc;" horiz-adv-x="673" d="M95 214 C95 39 221 -13 335 -13 C476 -13 579 65 579 208 L579 540 C579 615 652 643 652 643 L465 643 L538 540 L538 213 C538 103 459 55 376 55 C283 55 218 113 218 225 L218 560 C218 619 291 643 291 643 L21 643 L95 560 L95 214 Z M194 797 C194 766 250 741 250 741 C250 741 307 766 307 797 C307 828 250 854 250 854 C250 854 194 828 194 797 L194 797 Z M364 797 C364 766 421 741 421 741 C421 741 478 766 478 797 C478 828 421 854 421 854 C421 854 364 828 364 797 L364 797 Z " />
<glyph glyph-name="Yacute" unicode="&#xdd;" horiz-adv-x="659" d="M267 84 C267 30 193 0 193 0 L463 0 C463 0 390 26 390 84 L390 294 L534 533 C591 621 650 643 650 643 L444 643 L501 571 C501 559 496 546 488 533 L370 338 L182 643 L6 643 L101 552 L267 281 L267 84 Z M228 682 L241 670 L430 792 L348 854 L228 682 Z " />
<glyph glyph-name="Thorn" unicode="&#xde;" horiz-adv-x="619" d="M95 84 L22 0 L292 0 C292 0 219 61 219 84 L219 135 L322 135 C451 135 561 199 561 329 C561 459 451 519 324 519 L219 519 L219 560 C219 582 292 643 292 643 L22 643 L95 560 L95 84 Z M294 176 L219 176 L219 478 L297 478 C388 478 436 423 436 329 C436 224 383 176 294 176 L294 176 Z " />
<glyph glyph-name="germandbls" unicode="&#xdf;" horiz-adv-x="589" d="M266 33 C287 14 345 -11 397 -11 C468 -11 557 37 557 138 C557 290 364 322 364 386 C364 437 458 451 458 548 C458 628 370 654 288 654 C151 654 80 577 80 456 L80 80 C80 24 22 0 22 0 L253 0 L195 80 L195 509 C195 599 246 616 293 616 C329 616 376 594 376 540 C376 430 293 416 293 336 C293 221 466 210 466 92 C466 50 435 27 399 27 L255 155 L266 33 L266 33 Z " />
<glyph glyph-name="agrave" unicode="&#xe0;" horiz-adv-x="479" d="M461 0 C461 0 403 32 403 95 L404 319 C404 401 349 447 261 447 C195 447 115 418 56 394 L113 306 C113 306 192 424 245 424 C287 424 290 365 290 343 L290 280 L110 261 C110 261 29 193 29 99 C29 25 91 -10 152 -10 C214 -10 264 25 291 68 L295 0 L461 0 L461 0 Z M290 105 C269 81 236 58 202 58 C167 58 141 81 141 119 C141 155 166 191 203 215 C234 232 266 242 290 246 L290 105 L290 105 Z M138 592 L327 470 L341 482 L221 654 L138 592 Z " />
<glyph glyph-name="aacute" unicode="&#xe1;" horiz-adv-x="479" d="M461 0 C461 0 403 32 403 95 L404 319 C404 401 349 447 261 447 C195 447 115 418 56 394 L113 306 C113 306 192 424 245 424 C287 424 290 365 290 343 L290 280 L110 261 C110 261 29 193 29 99 C29 25 91 -10 152 -10 C214 -10 264 25 291 68 L295 0 L461 0 L461 0 Z M290 105 C269 81 236 58 202 58 C167 58 141 81 141 119 C141 155 166 191 203 215 C234 232 266 242 290 246 L290 105 L290 105 Z M138 482 L151 470 L340 592 L258 654 L138 482 Z " />
<glyph glyph-name="acircumflex" unicode="&#xe2;" horiz-adv-x="479" d="M461 0 C461 0 403 32 403 95 L404 319 C404 401 349 447 261 447 C195 447 115 418 56 394 L113 306 C113 306 192 424 245 424 C287 424 290 365 290 343 L290 280 L110 261 C110 261 29 193 29 99 C29 25 91 -10 152 -10 C214 -10 264 25 291 68 L295 0 L461 0 L461 0 Z M290 105 C269 81 236 58 202 58 C167 58 141 81 141 119 C141 155 166 191 203 215 C234 232 266 242 290 246 L290 105 L290 105 Z M117 487 L130 477 L239 554 L349 478 L362 487 L247 654 L232 654 L117 487 Z " />
<glyph glyph-name="atilde" unicode="&#xe3;" horiz-adv-x="479" d="M461 0 C461 0 403 32 403 95 L404 319 C404 401 349 447 261 447 C195 447 115 418 56 394 L113 306 C113 306 192 424 245 424 C287 424 290 365 290 343 L290 280 L110 261 C110 261 29 193 29 99 C29 25 91 -10 152 -10 C214 -10 264 25 291 68 L295 0 L461 0 L461 0 Z M290 105 C269 81 236 58 202 58 C167 58 141 81 141 119 C141 155 166 191 203 215 C234 232 266 242 290 246 L290 105 L290 105 Z M225 573 C245 566 266 560 282 560 C360 560 350 654 350 654 C339 635 328 626 310 626 C294 626 277 631 251 642 C229 651 209 656 193 656 C119 656 125 560 125 560 C140 579 148 589 164 589 C179 589 197 584 225 573 L225 573 Z " />
<glyph glyph-name="adieresis" unicode="&#xe4;" horiz-adv-x="479" d="M461 0 C461 0 403 32 403 95 L404 319 C404 401 349 447 261 447 C195 447 115 418 56 394 L113 306 C113 306 192 424 245 424 C287 424 290 365 290 343 L290 280 L110 261 C110 261 29 193 29 99 C29 25 91 -10 152 -10 C214 -10 264 25 291 68 L295 0 L461 0 L461 0 Z M290 105 C269 81 236 58 202 58 C167 58 141 81 141 119 C141 155 166 191 203 215 C234 232 266 242 290 246 L290 105 L290 105 Z M97 597 C97 566 153 541 153 541 C153 541 210 566 210 597 C210 628 153 654 153 654 C153 654 97 628 97 597 L97 597 Z M267 597 C267 566 324 541 324 541 C324 541 381 566 381 597 C381 628 324 654 324 654 C324 654 267 628 267 597 L267 597 Z " />
<glyph glyph-name="aring" unicode="&#xe5;" horiz-adv-x="479" d="M461 0 C461 0 403 32 403 95 L404 319 C404 401 349 447 261 447 C195 447 115 418 56 394 L113 306 C113 306 192 424 245 424 C287 424 290 365 290 343 L290 280 L110 261 C110 261 29 193 29 99 C29 25 91 -10 152 -10 C214 -10 264 25 291 68 L295 0 L461 0 L461 0 Z M290 105 C269 81 236 58 202 58 C167 58 141 81 141 119 C141 155 166 191 203 215 C234 232 266 242 290 246 L290 105 L290 105 Z M149 569 C149 519 191 481 239 481 C289 481 330 521 330 569 C330 615 289 654 239 654 C191 654 149 616 149 569 L149 569 Z M293 569 C293 539 270 514 239 514 C210 514 187 539 187 569 C187 597 210 620 239 620 C270 620 293 597 293 569 L293 569 Z " />
<glyph glyph-name="ae" unicode="&#xe6;" horiz-adv-x="718" d="M657 132 C643 78 596 54 545 54 C479 54 396 121 388 233 C388 236 388 238 388 241 L388 241 L633 250 L672 259 C672 362 599 447 487 447 C439 447 395 432 361 403 C336 432 296 447 245 447 C180 447 100 418 40 394 L98 306 C98 306 177 424 230 424 C272 424 275 365 275 343 L275 280 L95 261 C95 261 14 193 14 99 C14 25 75 -10 137 -10 C197 -10 282 43 311 96 C312 97 312 98 313 99 L312 95 C337 48 379 15 428 0 C449 -7 471 -10 494 -10 C592 -10 660 61 679 126 L657 132 L657 132 Z M275 105 C254 81 221 58 187 58 C152 58 126 81 126 119 C126 155 154 191 191 215 C222 232 251 243 275 246 L275 105 L275 105 Z M480 427 C531 427 559 363 563 283 L388 278 L388 278 C388 280 388 282 388 284 C398 369 434 427 480 427 L480 427 Z " />
<glyph glyph-name="ccedilla" unicode="&#xe7;" horiz-adv-x="461" d="M43 218 C43 76 136 -10 244 -10 C353 -10 409 74 421 120 L401 127 C375 90 333 72 291 72 C205 72 148 148 148 262 C148 353 193 421 238 421 C257 421 381 308 381 308 L395 415 C341 434 287 447 246 447 C139 447 43 363 43 218 L43 218 Z M130 -164 C159 -172 197 -179 226 -179 C281 -179 331 -154 331 -99 C331 -43 277 -17 237 -13 L262 19 L227 19 L164 -58 L191 -60 C235 -66 263 -85 263 -114 C263 -140 243 -147 230 -147 L169 -101 L130 -164 Z " />
<glyph glyph-name="egrave" unicode="&#xe8;" horiz-adv-x="494" d="M49 218 C49 79 144 -10 262 -10 C360 -10 427 61 446 126 L425 132 C404 79 367 55 317 55 C249 55 159 124 156 241 L399 251 L438 259 C438 362 367 447 254 447 C140 447 49 358 49 218 L49 218 Z M329 283 L156 278 C163 367 200 427 246 427 C298 427 325 363 329 283 L329 283 Z M145 592 L334 470 L348 482 L228 654 L145 592 Z " />
<glyph glyph-name="eacute" unicode="&#xe9;" horiz-adv-x="494" d="M49 218 C49 79 144 -10 262 -10 C360 -10 427 61 446 126 L425 132 C404 79 367 55 317 55 C249 55 159 124 156 241 L399 251 L438 259 C438 362 367 447 254 447 C140 447 49 358 49 218 L49 218 Z M329 283 L156 278 C163 367 200 427 246 427 C298 427 325 363 329 283 L329 283 Z M146 482 L159 470 L348 592 L266 654 L146 482 Z " />
<glyph glyph-name="ecircumflex" unicode="&#xea;" horiz-adv-x="494" d="M49 218 C49 79 144 -10 262 -10 C360 -10 427 61 446 126 L425 132 C404 79 367 55 317 55 C249 55 159 124 156 241 L399 251 L438 259 C438 362 367 447 254 447 C140 447 49 358 49 218 L49 218 Z M329 283 L156 278 C163 367 200 427 246 427 C298 427 325 363 329 283 L329 283 Z M124 487 L137 477 L246 554 L356 478 L369 487 L254 654 L239 654 L124 487 Z " />
<glyph glyph-name="edieresis" unicode="&#xeb;" horiz-adv-x="494" d="M49 218 C49 79 144 -10 262 -10 C360 -10 427 61 446 126 L425 132 C404 79 367 55 317 55 C249 55 159 124 156 241 L399 251 L438 259 C438 362 367 447 254 447 C140 447 49 358 49 218 L49 218 Z M329 283 L156 278 C163 367 200 427 246 427 C298 427 325 363 329 283 L329 283 Z M105 597 C105 566 161 541 161 541 C161 541 218 566 218 597 C218 628 161 654 161 654 C161 654 105 628 105 597 L105 597 Z M275 597 C275 566 332 541 332 541 C332 541 389 566 389 597 C389 628 332 654 332 654 C332 654 275 628 275 597 L275 597 Z " />
<glyph glyph-name="igrave" unicode="&#xec;" horiz-adv-x="296" d="M50 8 L32 0 L263 0 L243 9 C215 23 206 58 206 80 L206 452 L32 408 L90 343 L90 80 C90 58 77 21 50 8 L50 8 Z M46 592 L235 470 L249 482 L129 654 L46 592 Z " />
<glyph glyph-name="iacute" unicode="&#xed;" horiz-adv-x="296" d="M50 8 L32 0 L263 0 L243 9 C215 23 206 58 206 80 L206 452 L32 408 L90 343 L90 80 C90 58 77 21 50 8 L50 8 Z M47 482 L60 470 L249 592 L167 654 L47 482 Z " />
<glyph glyph-name="icircumflex" unicode="&#xee;" horiz-adv-x="296" d="M50 8 L32 0 L263 0 L243 9 C215 23 206 58 206 80 L206 452 L32 408 L90 343 L90 80 C90 58 77 21 50 8 L50 8 Z M26 487 L39 477 L148 554 L258 478 L271 487 L156 654 L141 654 L26 487 Z " />
<glyph glyph-name="idieresis" unicode="&#xef;" horiz-adv-x="296" d="M50 8 L32 0 L263 0 L243 9 C215 23 206 58 206 80 L206 452 L32 408 L90 343 L90 80 C90 58 77 21 50 8 L50 8 Z M6 597 C6 566 62 541 62 541 C62 541 119 566 119 597 C119 628 62 654 62 654 C62 654 6 628 6 597 L6 597 Z M176 597 C176 566 233 541 233 541 C233 541 290 566 290 597 C290 628 233 654 233 654 C233 654 176 628 176 597 L176 597 Z " />
<glyph glyph-name="eth" unicode="&#xf0;" horiz-adv-x="547" d="M354 577 L421 617 L421 660 L325 602 C268 647 201 679 130 696 L130 663 C190 644 238 613 274 572 L193 523 L193 480 L297 543 C335 490 359 425 373 354 C342 392 293 419 241 419 C151 419 54 346 54 215 C54 80 154 -10 277 -10 C400 -10 495 74 495 253 C495 387 439 498 354 577 L354 577 Z M275 31 C213 31 170 99 170 195 C170 291 207 359 280 359 C312 359 352 345 378 306 C380 284 382 258 382 236 C382 128 348 31 275 31 L275 31 Z " />
<glyph glyph-name="ntilde" unicode="&#xf1;" horiz-adv-x="560" d="M337 10 L317 0 L548 0 L528 11 C501 25 490 58 490 80 L490 316 C490 416 422 447 362 447 C294 447 238 401 203 350 L204 452 L32 408 L90 343 L90 80 C90 58 80 24 53 11 L32 0 L254 0 L206 79 C206 79 206 80 206 80 L206 312 C237 350 272 369 306 369 C348 369 375 344 375 279 L375 80 C375 58 365 23 337 10 L337 10 Z M265 573 C285 566 306 560 322 560 C400 560 390 654 390 654 C379 635 368 626 350 626 C334 626 317 631 291 642 C269 651 249 656 233 656 C159 656 165 560 165 560 C180 579 188 589 204 589 C219 589 237 584 265 573 L265 573 Z " />
<glyph glyph-name="ograve" unicode="&#xf2;" horiz-adv-x="551" d="M47 219 C47 86 133 -10 276 -10 C419 -10 504 86 504 219 C504 351 419 447 276 447 C133 447 47 351 47 219 L47 219 Z M382 219 C382 86 333 28 276 28 C220 28 169 86 169 219 C169 352 220 410 276 410 C333 410 382 357 382 219 L382 219 Z M174 592 L363 470 L377 482 L257 654 L174 592 Z " />
<glyph glyph-name="oacute" unicode="&#xf3;" horiz-adv-x="551" d="M47 219 C47 86 133 -10 276 -10 C419 -10 504 86 504 219 C504 351 419 447 276 447 C133 447 47 351 47 219 L47 219 Z M382 219 C382 86 333 28 276 28 C220 28 169 86 169 219 C169 352 220 410 276 410 C333 410 382 357 382 219 L382 219 Z M174 482 L187 470 L376 592 L294 654 L174 482 Z " />
<glyph glyph-name="ocircumflex" unicode="&#xf4;" horiz-adv-x="551" d="M47 219 C47 86 133 -10 276 -10 C419 -10 504 86 504 219 C504 351 419 447 276 447 C133 447 47 351 47 219 L47 219 Z M382 219 C382 86 333 28 276 28 C220 28 169 86 169 219 C169 352 220 410 276 410 C333 410 382 357 382 219 L382 219 Z M153 487 L166 477 L275 554 L385 478 L398 487 L283 654 L268 654 L153 487 Z " />
<glyph glyph-name="otilde" unicode="&#xf5;" horiz-adv-x="551" d="M47 219 C47 86 133 -10 276 -10 C419 -10 504 86 504 219 C504 351 419 447 276 447 C133 447 47 351 47 219 L47 219 Z M382 219 C382 86 333 28 276 28 C220 28 169 86 169 219 C169 352 220 410 276 410 C333 410 382 357 382 219 L382 219 Z M261 573 C281 566 302 560 318 560 C396 560 386 654 386 654 C375 635 364 626 346 626 C330 626 313 631 287 642 C265 651 245 656 229 656 C155 656 161 560 161 560 C176 579 184 589 200 589 C215 589 233 584 261 573 L261 573 Z " />
<glyph glyph-name="odieresis" unicode="&#xf6;" horiz-adv-x="551" d="M47 219 C47 86 133 -10 276 -10 C419 -10 504 86 504 219 C504 351 419 447 276 447 C133 447 47 351 47 219 L47 219 Z M382 219 C382 86 333 28 276 28 C220 28 169 86 169 219 C169 352 220 410 276 410 C333 410 382 357 382 219 L382 219 Z M133 597 C133 566 189 541 189 541 C189 541 246 566 246 597 C246 628 189 654 189 654 C189 654 133 628 133 597 L133 597 Z M303 597 C303 566 360 541 360 541 C360 541 417 566 417 597 C417 628 360 654 360 654 C360 654 303 628 303 597 L303 597 Z " />
<glyph glyph-name="divide" unicode="&#xf7;" horiz-adv-x="431" d="M60 300 L60 264 L371 264 L371 300 L60 300 Z M168 378 C168 351 218 329 218 329 C218 329 268 351 268 378 C268 405 218 428 218 428 C218 428 168 405 168 378 L168 378 Z M168 184 C168 157 218 134 218 134 C218 134 268 157 268 184 C268 211 218 233 218 233 C218 233 168 211 168 184 L168 184 Z " />
<glyph glyph-name="oslash" unicode="&#xf8;" horiz-adv-x="544" d="M501 219 C501 300 468 367 411 408 L469 500 L431 500 L383 424 C351 439 314 447 272 447 C129 447 43 351 43 219 C43 139 75 71 132 31 L66 -72 L105 -72 L159 14 C192 -1 229 -10 272 -10 C415 -10 501 86 501 219 L501 219 Z M181 109 C171 137 166 174 166 219 C166 352 216 410 272 410 C301 410 327 397 347 366 L181 109 Z M378 219 C378 86 329 28 272 28 C244 28 217 42 197 74 L363 332 C373 304 378 266 378 219 L378 219 Z " />
<glyph glyph-name="ugrave" unicode="&#xf9;" horiz-adv-x="576" d="M85 122 C85 20 156 -10 215 -10 C284 -10 338 37 373 87 L372 0 L544 0 C544 0 485 26 485 80 L485 436 L312 436 L370 356 L370 125 C338 87 304 68 269 68 C228 68 200 93 200 157 L200 436 L26 436 C73 407 85 356 85 356 L85 122 Z M186 592 L375 470 L389 482 L269 654 L186 592 Z " />
<glyph glyph-name="uacute" unicode="&#xfa;" horiz-adv-x="576" d="M85 122 C85 20 156 -10 215 -10 C284 -10 338 37 373 87 L372 0 L544 0 C544 0 485 26 485 80 L485 436 L312 436 L370 356 L370 125 C338 87 304 68 269 68 C228 68 200 93 200 157 L200 436 L26 436 C73 407 85 356 85 356 L85 122 Z M187 482 L200 470 L389 592 L307 654 L187 482 Z " />
<glyph glyph-name="ucircumflex" unicode="&#xfb;" horiz-adv-x="576" d="M85 122 C85 20 156 -10 215 -10 C284 -10 338 37 373 87 L372 0 L544 0 C544 0 485 26 485 80 L485 436 L312 436 L370 356 L370 125 C338 87 304 68 269 68 C228 68 200 93 200 157 L200 436 L26 436 C73 407 85 356 85 356 L85 122 Z M165 487 L178 477 L287 554 L397 478 L410 487 L295 654 L280 654 L165 487 Z " />
<glyph glyph-name="udieresis" unicode="&#xfc;" horiz-adv-x="576" d="M85 122 C85 20 156 -10 215 -10 C284 -10 338 37 373 87 L372 0 L544 0 C544 0 485 26 485 80 L485 436 L312 436 L370 356 L370 125 C338 87 304 68 269 68 C228 68 200 93 200 157 L200 436 L26 436 C73 407 85 356 85 356 L85 122 Z M146 597 C146 566 202 541 202 541 C202 541 259 566 259 597 C259 628 202 654 202 654 C202 654 146 628 146 597 L146 597 Z M316 597 C316 566 373 541 373 541 C373 541 430 566 430 597 C430 628 373 654 373 654 C373 654 316 628 316 597 L316 597 Z " />
<glyph glyph-name="yacute" unicode="&#xfd;" horiz-adv-x="515" d="M73 -175 C87 -183 107 -187 125 -187 C154 -187 214 -180 238 -117 L407 318 C445 414 497 436 497 436 L324 436 L382 354 C382 349 381 344 379 339 L289 98 L194 357 C193 362 166 436 166 436 L5 436 L73 357 L208 2 L251 2 L212 -100 C205 -118 191 -137 175 -137 L66 -53 L73 -175 Z M156 482 L169 470 L358 592 L276 654 L156 482 Z " />
<glyph glyph-name="thorn" unicode="&#xfe;" horiz-adv-x="556" d="M80 -30 C80 -79 22 -110 22 -110 L277 -110 C277 -110 195 -81 195 -30 L195 142 C230 98 270 69 322 69 C409 69 506 152 506 302 C506 436 427 526 333 526 C279 526 235 500 195 447 L195 750 L21 718 L80 647 L80 -30 Z M388 294 C388 201 355 129 290 129 C257 129 224 145 195 181 L195 409 C224 443 256 459 285 459 C353 459 388 389 388 294 L388 294 Z " />
<glyph glyph-name="ydieresis" unicode="&#xff;" horiz-adv-x="515" d="M73 -175 C87 -183 107 -187 125 -187 C154 -187 214 -180 238 -117 L407 318 C445 414 497 436 497 436 L324 436 L382 354 C382 349 381 344 379 339 L289 98 L194 357 C193 362 166 436 166 436 L5 436 L73 357 L208 2 L251 2 L212 -100 C205 -118 191 -137 175 -137 L66 -53 L73 -175 Z M115 597 C115 566 171 541 171 541 C171 541 228 566 228 597 C228 628 171 654 171 654 C171 654 115 628 115 597 L115 597 Z M285 597 C285 566 342 541 342 541 C342 541 399 566 399 597 C399 628 342 654 342 654 C342 654 285 628 285 597 L285 597 Z " />
<glyph glyph-name="Lslash" unicode="&#x141;" horiz-adv-x="588" d="M387 40 L243 40 L243 310 L361 380 L361 419 L243 350 L243 560 C243 582 260 617 286 631 L317 643 L47 643 L120 560 L120 277 L33 225 L33 186 L120 238 L120 84 C120 61 103 28 76 14 L47 0 L530 0 L549 182 L387 40 L387 40 Z " />
<glyph glyph-name="lslash" unicode="&#x142;" horiz-adv-x="295" d="M211 342 L271 382 L271 422 L211 381 L211 671 L37 639 L95 568 L95 303 L33 261 L33 221 L95 264 L95 80 C95 59 88 25 61 12 L37 0 L242 0 L211 52 C211 63 211 73 211 80 L211 342 L211 342 Z " />
<glyph glyph-name="OE" unicode="&#x152;" horiz-adv-x="1016" d="M89 322 C89 113 229 -13 393 -13 C458 -13 512 13 554 56 L554 0 L967 0 L987 182 C987 182 904 41 825 41 L677 41 L677 314 L792 314 C849 314 891 240 891 240 L891 355 L677 355 L677 603 L798 603 L958 466 L938 643 L554 643 L554 588 C512 630 458 653 393 653 C229 653 89 532 89 322 L89 322 Z M554 148 C524 70 469 30 404 30 C300 30 223 140 223 321 C223 502 298 610 403 610 C469 610 524 573 554 494 L554 148 Z " />
<glyph glyph-name="oe" unicode="&#x153;" horiz-adv-x="833" d="M761 132 C747 78 700 54 650 54 C597 54 534 96 506 169 C498 190 493 215 492 241 L509 242 L737 251 L777 259 C777 362 704 447 591 447 C535 447 484 425 447 386 C407 424 351 447 282 447 C139 447 53 351 53 219 C53 86 139 -10 282 -10 C352 -10 408 13 447 52 C486 12 539 -10 598 -10 C697 -10 764 61 783 126 L761 132 L761 132 Z M387 191 C381 77 335 28 282 28 C226 28 176 85 176 219 C176 352 226 409 282 409 C335 409 381 364 387 246 C387 230 387 203 387 191 L387 191 Z M584 427 C636 427 663 363 668 283 L504 278 L492 278 C493 288 494 297 496 307 C509 379 543 427 584 427 L584 427 Z " />
<glyph glyph-name="Scaron" unicode="&#x160;" horiz-adv-x="511" d="M58 32 C107 14 185 -13 257 -13 C355 -13 467 41 467 173 C467 296 375 343 326 365 L240 404 C187 428 142 466 142 521 C142 580 190 611 246 611 C285 611 425 498 425 498 L412 628 C372 641 306 654 248 654 C137 654 48 589 48 473 C48 381 106 328 172 299 L269 255 C329 228 371 188 371 130 C371 70 333 30 260 30 C208 30 43 180 43 180 L58 32 Z M254 779 L145 855 L133 845 L247 678 L262 678 L377 845 L364 855 L254 779 Z " />
<glyph glyph-name="scaron" unicode="&#x161;" horiz-adv-x="436" d="M76 18 C116 4 177 -10 228 -10 C324 -10 393 40 393 119 C393 190 341 235 284 257 L214 286 C180 300 154 319 154 352 C154 386 182 409 218 409 C244 409 367 316 367 316 L356 428 C320 439 266 446 225 446 C141 446 64 400 64 321 C64 254 109 210 173 183 L240 155 C277 139 303 116 303 84 C303 51 274 28 234 28 C190 28 64 142 64 142 L76 18 Z M217 579 L108 655 L96 645 L210 478 L225 478 L340 645 L327 655 L217 579 Z " />
<glyph glyph-name="Ydieresis" unicode="&#x178;" horiz-adv-x="659" d="M267 84 C267 30 193 0 193 0 L463 0 C463 0 390 26 390 84 L390 294 L534 533 C591 621 650 643 650 643 L444 643 L501 571 C501 559 496 546 488 533 L370 338 L182 643 L6 643 L101 552 L267 281 L267 84 Z M187 797 C187 766 243 741 243 741 C243 741 300 766 300 797 C300 828 243 854 243 854 C243 854 187 828 187 797 L187 797 Z M357 797 C357 766 414 741 414 741 C414 741 471 766 471 797 C471 828 414 854 414 854 C414 854 357 828 357 797 L357 797 Z " />
<glyph glyph-name="Zcaron" unicode="&#x17d;" horiz-adv-x="551" d="M31 24 L31 0 L497 0 L517 182 L355 40 L171 40 L515 618 L515 643 L71 643 L52 465 L210 602 L374 602 L31 24 Z M274 779 L165 855 L153 845 L267 678 L282 678 L397 845 L384 855 L274 779 Z " />
<glyph glyph-name="zcaron" unicode="&#x17e;" horiz-adv-x="427" d="M36 26 L36 0 L390 0 L403 149 L276 38 L162 38 L403 409 L403 436 L62 436 L49 292 L177 399 L274 399 L36 26 Z M212 579 L103 655 L91 645 L205 478 L220 478 L335 645 L322 655 L212 579 Z " />
<glyph glyph-name="circumflex" unicode="&#x2c6;" horiz-adv-x="355" d="M59 487 L72 477 L181 554 L291 478 L304 487 L189 654 L174 654 L59 487 L59 487 Z " />
<glyph glyph-name="caron" unicode="&#x2c7;" horiz-adv-x="337" d="M171 579 L62 655 L50 645 L164 478 L179 478 L294 645 L281 655 L171 579 L171 579 Z " />
<glyph glyph-name="breve" unicode="&#x2d8;" horiz-adv-x="329" d="M45 643 C54 551 88 496 162 496 C235 496 270 552 279 643 L259 643 C249 590 207 566 162 566 C117 566 75 590 63 643 L45 643 L45 643 Z " />
<glyph glyph-name="dotaccent" unicode="&#x2d9;" horiz-adv-x="225" d="M55 586 C55 555 112 530 112 530 C112 530 169 555 169 586 C169 617 112 643 112 643 C112 643 55 617 55 586 L55 586 Z " />
<glyph glyph-name="ring" unicode="&#x2da;" horiz-adv-x="282" d="M54 569 C54 519 96 481 144 481 C194 481 235 521 235 569 C235 615 194 654 144 654 C96 654 54 616 54 569 L54 569 Z M198 569 C198 539 175 514 144 514 C115 514 92 539 92 569 C92 597 115 620 144 620 C175 620 198 597 198 569 L198 569 Z " />
<glyph glyph-name="ogonek" unicode="&#x2db;" horiz-adv-x="284" d="M46 -130 C46 -166 78 -190 119 -190 C168 -190 215 -154 237 -116 L214 -93 L168 -134 C146 -134 127 -120 127 -93 C127 -55 165 -10 193 16 L154 16 C106 -23 46 -80 46 -130 L46 -130 Z " />
<glyph glyph-name="tilde" unicode="&#x2dc;" horiz-adv-x="301" d="M142 573 C162 566 183 560 199 560 C277 560 267 654 267 654 C256 635 245 626 227 626 C211 626 194 631 168 642 C146 651 126 656 110 656 C36 656 42 560 42 560 C57 579 65 589 81 589 C96 589 114 584 142 573 L142 573 Z " />
<glyph glyph-name="hungarumlaut" unicode="&#x2dd;" horiz-adv-x="416" d="M43 464 L58 454 L213 605 L125 653 L43 464 Z M210 465 L224 455 L379 606 L291 654 L210 465 Z " />
<glyph glyph-name="endash" unicode="&#x2013;" horiz-adv-x="495" d="M51 336 L51 299 L445 299 L445 336 L51 336 L51 336 Z " />
<glyph glyph-name="emdash" unicode="&#x2014;" horiz-adv-x="907" d="M60 300 L60 263 L847 263 L847 300 L60 300 L60 300 Z " />
<glyph glyph-name="quoteleft" unicode="&#x2018;" horiz-adv-x="197" d="M143 448 L143 654 L122 654 L51 448 L51 432 L137 432 L143 448 L143 448 Z " />
<glyph glyph-name="quoteright" unicode="&#x2019;" horiz-adv-x="241" d="M79 637 L79 431 L100 431 L172 637 L171 654 L85 654 L79 637 L79 637 Z " />
<glyph glyph-name="quotesinglbase" unicode="&#x201a;" horiz-adv-x="214" d="M65 73 L65 -133 L86 -133 L158 73 L157 90 L71 90 L65 73 L65 73 Z " />
<glyph glyph-name="quotedblleft" unicode="&#x201c;" horiz-adv-x="347" d="M284 448 L284 654 L263 654 L192 448 L192 432 L278 432 L284 448 Z M145 448 L145 654 L125 654 L52 448 L53 432 L138 432 L145 448 Z " />
<glyph glyph-name="quotedblright" unicode="&#x201d;" horiz-adv-x="394" d="M89 637 L90 431 L110 431 L182 637 L181 654 L96 654 L89 637 Z M229 637 L229 431 L249 431 L322 637 L321 654 L235 654 L229 637 Z " />
<glyph glyph-name="quotedblbase" unicode="&#x201e;" horiz-adv-x="385" d="M76 73 L77 -133 L97 -133 L169 73 L168 90 L83 90 L76 73 Z M216 73 L216 -133 L236 -133 L309 73 L308 90 L222 90 L216 73 Z " />
<glyph glyph-name="dagger" unicode="&#x2020;" horiz-adv-x="305" d="M289 564 L165 528 L198 644 L103 644 L137 528 L12 564 L12 470 L137 507 L119 0 L188 0 C188 0 165 507 165 507 L289 470 L289 564 L289 564 Z " />
<glyph glyph-name="daggerdbl" unicode="&#x2021;" horiz-adv-x="309" d="M292 470 L292 564 L169 528 L201 644 L106 644 L140 528 L16 564 L16 470 L140 506 L140 137 L16 173 L16 80 L140 116 L106 0 L201 0 L169 116 L292 80 L292 173 L169 137 C169 287 169 506 169 506 L292 470 L292 470 Z " />
<glyph glyph-name="bullet" unicode="&#x2022;" horiz-adv-x="353" d="M57 318 C57 253 177 198 177 198 C177 198 296 253 296 318 C296 381 177 436 177 436 C177 436 57 381 57 318 L57 318 Z " />
<glyph glyph-name="ellipsis" unicode="&#x2026;" horiz-adv-x="747" d="M64 63 C64 29 129 0 129 0 C129 0 195 29 195 63 C195 97 129 126 129 126 C129 126 64 97 64 63 L64 63 Z M313 63 C313 29 378 0 378 0 C378 0 444 29 444 63 C444 97 378 126 378 126 C378 126 313 97 313 63 L313 63 Z M562 63 C562 29 627 0 627 0 C627 0 693 29 693 63 C693 97 627 126 627 126 C627 126 562 97 562 63 L562 63 Z " />
<glyph glyph-name="perthousand" unicode="&#x2030;" horiz-adv-x="1037" d="M27 492 L27 492 C27 397 87 331 183 331 C278 331 338 396 338 492 C338 588 279 653 183 653 C88 653 27 588 27 492 L27 492 Z M96 -10 L137 -10 L588 660 L547 660 L96 -10 Z M246 492 L246 492 C246 400 218 358 183 358 C149 358 120 402 120 492 C120 583 149 626 183 626 C218 626 246 593 246 492 L246 492 Z M349 161 L349 161 C349 67 409 0 504 0 C601 0 660 66 660 161 C660 257 601 323 504 323 C409 323 349 257 349 161 L349 161 Z M567 161 C567 69 539 28 504 28 C470 28 441 70 441 161 C441 252 470 296 504 296 C539 296 567 262 567 161 L567 161 Z M698 162 L698 162 C698 68 758 1 853 1 C950 1 1009 67 1009 162 C1009 258 950 324 853 324 C758 324 698 258 698 162 L698 162 Z M916 162 C916 70 888 29 853 29 C819 29 790 71 790 162 C790 253 819 297 853 297 C888 297 916 263 916 162 L916 162 Z " />
<glyph glyph-name="guilsinglleft" unicode="&#x2039;" horiz-adv-x="306" d="M35 232 L244 32 L269 32 L144 239 L269 447 L244 447 L35 247 L35 232 L35 232 Z " />
<glyph glyph-name="guilsinglright" unicode="&#x203a;" horiz-adv-x="300" d="M27 32 L51 32 L261 232 L261 247 L51 447 L27 447 L151 239 L27 32 L27 32 Z " />
<glyph glyph-name="Euro" unicode="&#x20ac;" horiz-adv-x="574" d="M93 185 C115 44 225 -13 340 -13 C393 -13 460 0 498 9 L510 136 C510 136 375 18 341 18 C285 18 227 69 213 185 L400 185 L400 214 L212 214 C212 222 211 230 211 237 C211 245 211 253 212 260 L423 260 L423 289 L213 289 C227 405 285 456 342 456 C382 456 511 337 511 337 L499 465 C453 477 385 487 342 487 C217 487 114 418 93 289 L25 289 L25 260 L89 260 C88 253 88 244 88 237 C88 229 89 222 89 214 L25 214 L25 185 L93 185 L93 185 Z " />
<glyph glyph-name="trademark" unicode="&#x2122;" horiz-adv-x="801" d="M143 359 C143 340 106 321 106 321 L241 321 C241 321 204 338 204 359 L204 625 L236 625 C254 624 314 554 314 554 L304 643 L42 643 L32 554 C32 554 94 624 111 625 L143 625 L143 359 Z M386 359 C386 334 343 321 343 321 L448 321 C448 321 404 334 404 359 L404 589 L494 321 L560 321 L654 618 L655 618 L655 359 C655 333 619 321 619 321 L753 321 C753 321 717 333 717 359 L717 605 C717 627 753 643 753 643 L643 643 L549 346 L450 643 L344 643 L386 608 L386 359 Z " />
<glyph glyph-name="fi" unicode="&#xfb01;" horiz-adv-x="590" d="M360 8 L341 0 L573 0 L552 9 C524 23 515 58 515 80 L515 434 L516 436 L515 436 L515 452 L451 436 L200 436 L200 552 C200 610 226 638 245 638 L368 556 L424 645 C376 655 314 665 268 665 C158 665 85 602 85 459 L85 436 L26 436 L26 394 L85 394 L85 80 C85 58 78 26 50 13 L26 0 L274 0 L246 13 C211 27 200 58 200 80 L200 394 L354 394 L400 343 L400 80 C400 58 387 21 360 8 L360 8 Z " />
<glyph glyph-name="fl" unicode="&#xfb02;" horiz-adv-x="544" d="M479 52 C479 63 479 73 479 80 L479 670 L381 653 C341 659 298 665 264 665 C153 665 80 602 80 459 L80 436 L22 436 L22 394 L80 394 L80 80 C80 58 73 26 46 13 L22 0 L269 0 L241 13 C207 27 196 58 196 80 L196 394 L295 394 L315 436 L196 436 L196 552 C196 610 221 638 240 638 L364 556 L364 557 L364 80 C364 58 356 25 329 12 L305 0 L423 0 L479 0 L511 0 L479 52 L479 52 Z " />
</font>
</svg>
