<?xml version="1.0" standalone="no"?>
<!DOCTYPE svg PUBLIC "-//W3C//DTD SVG 1.1//EN" "http://www.w3.org/Graphics/SVG/1.1/DTD/svg11.dtd" >
<svg>
<metadata>
Created by FontForge 20120731 at Thu Apr 18 13:47:30 2019
 By www-data
Copyright (C) 2019 by Webhance Studio. All rights reserved.
</metadata>
<defs>
<font id="ProximateKiddo-Regular" horiz-adv-x="636" >
  <font-face 
    font-family="Proximate Kiddo"
    font-weight="400"
    font-stretch="normal"
    units-per-em="1000"
    panose-1="0 0 5 0 0 0 0 0 0 0"
    ascent="800"
    descent="-200"
    x-height="541"
    cap-height="720"
    bbox="-81 -210 1098 750"
    underline-thickness="50"
    underline-position="-50"
    unicode-range="U+0020-007D"
  />
<missing-glyph horiz-adv-x="500" 
 />
    <glyph glyph-name=".notdef" horiz-adv-x="500" 
 />
    <glyph glyph-name="space" unicode=" " horiz-adv-x="483" 
 />
    <glyph glyph-name="exclam" unicode="!" horiz-adv-x="328" 
d="M209 264q-19 -54 -45 -54t-45 54t-21 137l-3 113q-2 89 17.5 147.5t51.5 58.5t51.5 -58.5t17.5 -147.5l-3 -113q-2 -83 -21 -137zM109 10.5q-23 23.5 -23 56.5t23 56.5t56 23.5t56 -23.5t23 -56.5t-23 -56.5t-56 -23.5t-56 23.5z" />
    <glyph glyph-name="quotedbl" unicode="&#x22;" horiz-adv-x="530" 
d="M198.5 501q-17.5 -36 -39.5 -36q-23 0 -40.5 36t-21.5 92q-1 7 -1 20q0 47 17.5 77t45.5 30q27 0 44.5 -30t17.5 -77q0 -13 -1 -20q-4 -56 -21.5 -92zM411.5 501q-17.5 -36 -39.5 -36q-23 0 -40.5 36t-21.5 92q-1 7 -1 20q0 47 17.5 77t45.5 30q27 0 44.5 -30t17.5 -77
q0 -13 -1 -20q-4 -56 -21.5 -92z" />
    <glyph glyph-name="ampersand" unicode="&#x26;" horiz-adv-x="675" 
d="M506 23l-24 28q-17 19 -41 19q-20 0 -37 -14q-52 -40 -94.5 -55.5t-98.5 -15.5q-52 0 -96.5 21t-72.5 59q-27 38 -27 93q0 43 13.5 78t46.5 71q21 24 56 56q19 18 19 40q0 16 -10 32q-46 75 -46 134q0 70 46 110t127 40q79 0 121.5 -38t42.5 -110q0 -40 -16 -73.5
t-53 -72.5q-18 -18 -18 -42q0 -19 14 -36l45 -50q18 -20 42 -20q25 0 43 20l28 30q18 19 41 19q21 0 37 -15l1 -1q18 -16 18 -39q0 -21 -15 -38l-46 -51q-6 -6 -30 -6q-7 0 -21 0.5t-21 -1t-7 -5.5q0 -12 79 -60q18 -11 27 -28t9 -36q0 -24 -13 -41.5t-34 -17.5
q-22 0 -35 16zM216.5 588q-19.5 -15 -19.5 -40q0 -18 6 -38q7 -20 24 -31.5t36 -11.5q25 0 38 19q25 32 25 64q0 25 -16 39t-44 14q-30 0 -49.5 -15zM291 88q30 11 65 40q26 22 26 56q0 29 -19 49l-60 68q-23 26 -55 26q-27 0 -49 -20q-44 -40 -56 -57q-31 -42 -31 -84
t29 -65.5t78 -23.5q42 0 72 11z" />
    <glyph glyph-name="quotesingle" unicode="'" horiz-adv-x="317" 
d="M198.5 501q-17.5 -36 -39.5 -36q-23 0 -40.5 36t-21.5 92q-1 7 -1 20q0 47 17.5 77t45.5 30q27 0 44.5 -30t17.5 -77q0 -13 -1 -20q-4 -56 -21.5 -92z" />
    <glyph glyph-name="parenleft" unicode="(" horiz-adv-x="435" 
d="M298 47q33 -65 47.5 -97.5t14.5 -54.5q0 -19 -11 -27q-6 -5 -18 -5q-23 0 -57 21t-70.5 61t-65.5 94q-66 127 -66 253q0 89 33 179q28 77 72 134t87 87t69 30q10 0 15 -4q11 -9 11 -26q0 -22 -15 -56.5t-50 -103.5l-17 -33q-52 -102 -52 -207q0 -106 52 -205z" />
    <glyph glyph-name="parenright" unicode=")" horiz-adv-x="435" 
d="M232 -55q-36 -40 -70 -61t-57 -21q-12 0 -18 5q-11 8 -11 27q0 22 15 56.5t50 102.5q5 11 17 33q52 99 52 205q0 80 -31 161q-19 47 -58 130q-23 48 -33 73t-10 41q0 26 26 26q23 0 57 -21t70.5 -61.5t65.5 -95.5q66 -127 66 -253t-66 -253q-29 -54 -65 -94z" />
    <glyph glyph-name="asterisk" unicode="*" horiz-adv-x="480" 
d="M112 395q0 25 19 51q10 14 10 31q0 15 -9 27.5t-26 18.5q-24 8 -39 23t-15 30q0 16 12.5 25t32.5 9q17 0 35 -6q9 -3 19 -3q20 0 33.5 14t13.5 36q0 30 12 49.5t30 19.5t30 -19.5t12 -49.5q0 -22 13.5 -36t33.5 -14q10 0 19 3q18 6 34 6q21 0 33.5 -9t12.5 -25
q0 -15 -15 -30t-39 -23q-17 -6 -26.5 -18.5t-9.5 -27.5q0 -17 11 -31q20 -28 20 -52q0 -19 -13 -29q-7 -6 -19 -6q-13 0 -28 10t-28 27q-16 22 -41 22t-40 -22q-13 -18 -27.5 -27.5t-28.5 -9.5q-10 0 -19 6q-13 10 -13 30z" />
    <glyph glyph-name="plus" unicode="+" horiz-adv-x="510" 
d="M215 516.5q16 19.5 40 19.5t40 -19.5t16 -49.5t20 -50t50 -20t50 -16t20 -40q0 -25 -20 -41t-50 -16t-50 -19.5t-20 -49.5t-16 -50t-40 -20t-40 20t-16 50t-20 49.5t-50 19.5t-50 16.5t-20 40.5t20 40t50 16t50 19.5t20 50.5q0 30 16 49.5z" />
    <glyph glyph-name="comma" unicode="," horiz-adv-x="332" 
d="M156 -93.5q-24 -32.5 -45 -32.5q-13 0 -20.5 20t-7.5 54q0 28 6 61q10 60 36 97t57 37q16 0 24.5 -17t8.5 -46q0 -39 -16 -84q-19 -57 -43 -89.5z" />
    <glyph glyph-name="hyphen" unicode="-" horiz-adv-x="337" 
d="M271.5 220.5q-40.5 -16.5 -102.5 -16.5t-103 16.5t-41 40.5t41 40t103 16t102.5 -16t40.5 -40t-40.5 -40.5z" />
    <glyph glyph-name="period" unicode="." horiz-adv-x="295" 
d="M91 11.5q-23 23.5 -23 56.5t23 56.5t56 23.5t56 -23.5t23 -56.5t-23 -56.5t-56 -23.5t-56 23.5z" />
    <glyph glyph-name="slash" unicode="/" horiz-adv-x="467" 
d="M150 45.5q-40 -45.5 -75 -45.5q-14 0 -14 32q0 45 27 136.5t71 191.5l84 190q35 79 75 124.5t75 45.5q9 0 9 -21q0 -52 -47.5 -196.5t-119.5 -308.5l-10 -23q-35 -80 -75 -125.5z" />
    <glyph glyph-name="zero" unicode="0" horiz-adv-x="651" 
d="M160.5 31.5q-69.5 44.5 -107.5 128.5q-38 85 -38 200q0 114 37.5 199t107.5 130q70 44 164 44q95 0 165.5 -44.5t108.5 -128.5q38 -87 38 -200q0 -115 -38 -199t-108 -129q-71 -45 -165 -45q-95 0 -164.5 44.5zM441.5 183q42.5 63 42.5 175q0 115 -42.5 178.5
t-118.5 63.5q-74 0 -115 -63.5t-41 -178.5q0 -112 41.5 -175t115.5 -63q75 0 117.5 63z" />
    <glyph glyph-name="one" unicode="1" horiz-adv-x="287" 
d="M262.5 156q-9.5 -73 -26.5 -114.5t-38 -41.5t-38 38.5t-27 106t-10 152.5q0 128 -15.5 212t-38.5 84q-18 0 -29.5 14t-11.5 34q0 6 2 16q7 29 42 46t87 17q32 0 58 -41.5t40.5 -114.5t14.5 -165v-78q0 -92 -9.5 -165z" />
    <glyph glyph-name="two" unicode="2" horiz-adv-x="549" 
d="M94.5 18q-72.5 18 -72.5 45q0 30 17 61.5t49 59.5l66 59q92 81 132 120q42 41 62.5 75t20.5 68q0 46 -27.5 73.5t-71.5 27.5q-10 0 -24 -2q-37 -7 -62.5 -22t-54.5 -40q-17 -15 -26 -21t-18 -6q-3 0 -9 2q-10 4 -16.5 19t-6.5 36q0 30 13.5 59.5t41.5 50.5q69 50 165 50
q72 0 129 -26.5t89 -73.5q31 -46 31 -108q0 -59 -30 -112.5t-96 -117.5q0 1 -48.5 -32.5t-87.5 -68.5t-39 -57q0 -25 56 -25q34 0 90 10q28 4 41 4q35 0 64 -10t45.5 -25t16.5 -30q0 -26 -72.5 -43.5t-183.5 -17.5t-183.5 18z" />
    <glyph glyph-name="three" unicode="3" horiz-adv-x="554" 
d="M71 70.5q-15 29.5 -15 58.5q0 16 5 28t13 17q13 7 26 7q16 0 32 -8.5t32.5 -20t22.5 -15.5q37 -23 83 -23q52 0 84 28t32 76q0 99 -145 99q-19 0 -31.5 15t-12.5 37t6 37t15 15h21q61 0 96.5 24.5t35.5 73.5q0 40 -28.5 64t-72.5 24q-13 0 -19 -1q-33 -5 -57 -17.5
t-51 -32.5q-19 -13 -29 -18.5t-20 -5.5q-3 0 -11 2q-9 3 -14.5 16.5t-5.5 32.5q0 29 13.5 58t40.5 47q68 45 158 45q70 -1 126 -23.5t89 -65.5t33 -108q0 -13 -1 -19q-2 -27 -7 -53t-10 -46q-10 -38 -10 -59q0 -27 16 -50q28 -40 28 -101q0 -70 -36 -120.5t-99 -75.5
q-60 -25 -133 -25q-89 0 -155 37q-30 17 -45 46.5z" />
    <glyph glyph-name="four" unicode="4" horiz-adv-x="588" 
d="M469.5 654q14.5 -66 14.5 -166t13 -166t32 -66h44q0 -50 -12.5 -83.5t-31.5 -33.5h-45q0 -60 -20.5 -99.5t-51.5 -39.5t-52 20t-21 50t-46 49.5t-116 19.5t-116 11.5t-46 28.5v39l283 390q39 54 73.5 83t60.5 29q23 0 37.5 -66zM233 348q-25 -27 -36.5 -42t-11.5 -27
q0 -14 21 -21.5t69 -7.5q11 0 22.5 -3t14.5 -4q22 -6 30 -6q18 0 27.5 22t9.5 82q0 13 -2 55q-5 102 -28 102q-11 0 -23 -17.5t-31 -50.5q-11 -21 -20 -34q-8 -12 -42 -48z" />
    <glyph glyph-name="five" unicode="5" horiz-adv-x="555" 
d="M445.5 702.5q50.5 -17.5 50.5 -43.5t-35 -43.5t-88 -17.5q-55 0 -92.5 -18.5t-43.5 -48.5q-2 -14 -2 -20q0 -18 7 -29t19 -11q10 0 21 1t23 1q65 0 118 -27t85 -78q32 -53 32 -125q0 -80 -36.5 -137.5t-102.5 -87.5q-68 -31 -145 -31t-141 32q-4 6 -16.5 27.5t-24.5 48.5
t-12 44q0 12 7 18q15 11 34 11q28 0 77 -32q35 -21 79 -21q56 0 92 31.5t36 84.5q0 55 -34 84.5t-90 29.5h-15q-38 -2 -85 -15q-34 -8 -42 -8q-10 0 -17 4l-36 20l24 127q14 74 47 130t79.5 86.5t99.5 30.5q77 0 127.5 -17.5z" />
    <glyph glyph-name="six" unicode="6" horiz-adv-x="590" 
d="M385 702q0 -22 -14.5 -53t-38.5 -59l-121 -139q23 24 52 35.5t67 11.5q72 0 128 -31.5t87 -86.5q30 -55 30 -124q0 -75 -34.5 -135t-97.5 -93t-142 -33q-92 0 -156.5 32.5t-97.5 92.5q-32 59 -32 135q0 78 33.5 151t107.5 167l42 53q39 49 82.5 75.5t85.5 26.5
q19 0 19 -26zM389.5 156.5q34.5 35.5 34.5 96.5q0 60 -36.5 95.5t-97.5 35.5q-56 0 -89.5 -35.5t-33.5 -94.5q0 -61 35.5 -97t95.5 -36q57 0 91.5 35.5z" />
    <glyph glyph-name="seven" unicode="7" horiz-adv-x="561" 
d="M90.5 702.5q75.5 17.5 190.5 17.5q67 0 106 -53.5t39 -137.5q0 -83 -38 -169l-84 -190q-35 -80 -77 -125t-80 -45q-20 0 -20 43q0 42 19.5 112t53.5 144q22 49 33.5 96.5t11.5 88.5q0 52 -18 83t-51 31q-70 0 -115.5 17.5t-45.5 43.5t75.5 43.5z" />
    <glyph glyph-name="eight" unicode="8" horiz-adv-x="589" 
d="M20 249q9 41 35 101q10 21 14.5 35t4.5 27q0 17 -10 33q-24 39 -24 90q0 94 66 146t187 52q122 0 188.5 -52t66.5 -146v-7q-2 -44 -15 -105q-9 -40 -9 -58q0 -29 18 -54q32 -47 32 -107q0 -102 -74 -159.5t-206 -57.5t-205.5 57.5t-73.5 159.5q0 22 5 45zM218.5 448.5
q26.5 -25.5 74.5 -25.5q49 0 76 25.5t27 71.5q0 47 -27.5 73.5t-76.5 26.5q-47 0 -73.5 -26.5t-26.5 -73.5q0 -46 26.5 -71.5zM200.5 131.5q33.5 -30.5 92.5 -30.5q61 0 94.5 30.5t33.5 84.5q0 56 -34 88.5t-95 32.5q-59 0 -92 -32t-33 -89q0 -54 33.5 -84.5z" />
    <glyph glyph-name="nine" unicode="9" horiz-adv-x="590" 
d="M206 26q0 22 14.5 53.5t38.5 59.5l120 138q-24 -24 -52.5 -35.5t-67.5 -11.5q-72 0 -127.5 31t-85.5 87q-31 55 -31 124q0 76 35 135.5t98 92.5q61 33 141 33q92 0 156.5 -32.5t97.5 -92.5q32 -59 32 -135q0 -78 -33.5 -150.5t-108.5 -167.5l-41 -52q-39 -50 -82 -76.5
t-85 -26.5q-19 0 -19 26zM202 379.5q36 -35.5 97 -35.5q57 0 90 35.5t33 94.5q0 61 -35.5 97t-94.5 36q-58 0 -92 -35.5t-34 -96.5q0 -60 36 -95.5z" />
    <glyph glyph-name="colon" unicode=":" horiz-adv-x="188" 
d="M38 417.5q-23 23.5 -23 56.5t23 56.5t56 23.5t56 -23.5t23 -56.5t-23 -56.5t-56 -23.5t-56 23.5zM38 11.5q-23 23.5 -23 56.5t23 56.5t56 23.5t56 -23.5t23 -56.5t-23 -56.5t-56 -23.5t-56 23.5z" />
    <glyph glyph-name="semicolon" unicode=";" horiz-adv-x="220" 
d="M70 417.5q-23 23.5 -23 56.5t23 56.5t56 23.5t56 -23.5t23 -56.5t-23 -56.5t-56 -23.5t-56 23.5zM106 -93.5q-24 -32.5 -45 -32.5q-13 0 -20.5 20t-7.5 54q0 28 6 61q10 60 36 97t57 37q16 0 24.5 -17t8.5 -46q0 -39 -16 -84q-19 -57 -43 -89.5z" />
    <glyph glyph-name="equal" unicode="=" horiz-adv-x="422" 
d="M351 409.5q-56 -16.5 -140 -16.5t-140 16.5t-56 40.5t55.5 40t140.5 16t140.5 -16t55.5 -40t-56 -40.5zM351 191.5q-56 -16.5 -140 -16.5t-140 16.5t-56 40.5t55.5 40t140.5 16t140.5 -16t55.5 -40t-56 -40.5z" />
    <glyph glyph-name="question" unicode="?" horiz-adv-x="541" 
d="M189 337q0 49 5 49h8q83 0 127.5 31.5t44.5 88.5q0 47 -29.5 74t-82.5 27q-11 0 -16 -1q-36 -5 -61 -18.5t-53 -34.5q-16 -13 -26 -19t-20 -6q-3 0 -9 2q-15 5 -25 22.5t-10 39.5q0 30 20 54q31 38 85 63q53 24 121 24q80 0 138.5 -27t89.5 -76q30 -49 30 -114
q0 -115 -89 -176l-58 -36q-32 -18 -45.5 -28.5t-14.5 -22.5l-5 -43q-53 0 -88 24.5t-36 63.5q-1 14 -1 39zM197 10.5q-23 23.5 -23 56.5t23 56.5t56 23.5t56 -23.5t23 -56.5t-23 -56.5t-56 -23.5t-56 23.5z" />
    <glyph glyph-name="A" unicode="A" horiz-adv-x="771" 
d="M667 176.5q24 -87.5 24 -135.5q0 -41 -18 -41q-39 0 -69.5 20.5t-44.5 55.5t-62 55t-117 20q-20 0 -36 7t-34 19q-23 16 -35 16q-17 0 -33.5 -25.5t-39.5 -91.5q-12 -36 -41.5 -56t-66.5 -20q-16 0 -16 38q0 47 24.5 136.5t66.5 185.5l80 186q34 81 70.5 127.5t65.5 46.5
t66 -46.5t71 -126.5l80 -187q41 -96 65 -183.5zM376 559q-11 0 -18.5 -28t-15.5 -76q-10 -53 -14 -62q-9 -21 -35 -49q-9 -9 -15.5 -17.5t-6.5 -15.5q0 -13 24.5 -24t84.5 -24q57 -11 79 -11q36 0 36 19q0 16 -28 55q-17 26 -24.5 39.5t-10.5 27.5q-32 166 -56 166z" />
    <glyph glyph-name="B" unicode="B" horiz-adv-x="534" 
d="M28.5 564q13.5 73 37.5 114.5t54 41.5h104q132 0 198 -47t66 -136q-2 -6 -7.5 -28.5t-11 -55.5t-5.5 -63q0 -53 19 -76q36 -43 36 -110q0 -97 -70.5 -150.5t-220.5 -53.5q-61 0 -109.5 41.5t-76 114.5t-27.5 165v78q0 92 13.5 165zM171 453q7 -25 18 -25h25
q65 0 93.5 22.5t28.5 68.5q0 83 -121 83q-22 0 -36.5 -25t-14.5 -62t7 -62zM173 146.5q9 -28.5 22 -28.5h30q143 0 143 100q0 48 -37.5 72.5t-109.5 24.5q-25 0 -41 -27.5t-16 -70.5q0 -42 9 -70.5z" />
    <glyph glyph-name="C" unicode="C" horiz-adv-x="563" 
d="M500 130q22 0 35 -11t13 -32q0 -32 -19.5 -59t-52.5 -33q-32 -7 -76 -7q-112 0 -199.5 46t-136.5 131q-49 83 -49 195q0 108 49.5 193t137.5 133q89 47 200 47q11 -4 45.5 -20t66.5 -37.5t32 -39.5q0 -22 -13 -34t-35 -12q-9 0 -21 3q-31 7 -73 7q-69 0 -123 -30t-84 -85
t-30 -127q0 -71 30 -124.5t85 -83.5q54 -30 123 -30q37 0 74 8q7 2 21 2z" />
    <glyph glyph-name="D" unicode="D" horiz-adv-x="663" 
d="M30 564q15 73 42 114.5t60 41.5h116q130 0 221.5 -46t135.5 -129q43 -82 43 -187q0 -106 -45 -186.5t-132 -125.5q-88 -46 -215 -46q-69 0 -124 41.5t-86 114.5t-31 165v78q0 92 15 165zM176 196.5q12 -64.5 30 -64.5h41q119 0 183.5 60t64.5 166t-66 168t-180 62
q-24 0 -43.5 -29.5t-30.5 -81.5t-11 -117q0 -99 12 -163.5z" />
    <glyph glyph-name="E" unicode="E" horiz-adv-x="464" 
d="M408.5 609.5q-40.5 -18.5 -101.5 -18.5q-62 0 -102.5 -22.5t-40.5 -56.5q0 -35 33.5 -57.5t85.5 -22.5t85.5 -17.5t33.5 -44.5t-33.5 -45t-85.5 -18t-85.5 -25.5t-33.5 -63.5t41 -63.5t102 -25.5q62 0 102 -18t40 -46t-62 -46.5t-155 -18.5q-62 0 -111.5 41.5
t-77.5 114.5t-28 165v78q0 92 28 165t77.5 114.5t111.5 41.5q94 0 155.5 -18t61.5 -46t-40.5 -46.5z" />
    <glyph glyph-name="F" unicode="F" horiz-adv-x="460" 
d="M405.5 609.5q-39.5 -18.5 -100.5 -18.5t-101 -27t-40 -69t33.5 -69.5t84.5 -27.5t84.5 -18t33.5 -46t-33.5 -46.5t-84.5 -18.5t-84.5 -38t-33.5 -96q0 -59 -21 -97t-53 -38q-21 0 -38 41.5t-27 114.5t-10 165v78q0 92 28 165t77 114.5t110 41.5q93 0 154 -18t61 -46
t-39.5 -46.5z" />
    <glyph glyph-name="G" unicode="G" horiz-adv-x="738" 
d="M665 572q0 -23 -12 -39.5t-28 -16.5q-67 0 -113 36q-12 10 -44 27q-36 16 -92 16q-98 0 -153.5 -63t-55.5 -171q0 -72 28 -126t80 -84q50 -30 114 -30q10 13 42.5 56t57 83t10.5 40q-36 0 -61.5 15.5t-32.5 41.5q-4 15 15 28t54.5 21t78.5 8q72 0 120 -10.5t49 -26.5
q1 -11 1 -37q0 -102 -42.5 -182.5t-120.5 -124.5q-78 -45 -177 -45q-106 0 -190 46t-131 131t-47 195t44.5 194.5t125.5 131.5q82 47 189 47q59 0 100 -10l16 -4q41 -11 72 -29q51 -28 87 -73q16 -20 16 -45z" />
    <glyph glyph-name="H" unicode="H" horiz-adv-x="651" 
d="M185 502q21 -33 57.5 -52t82.5 -19t82.5 19t57.5 52t21 74q0 62 21.5 103t53.5 41q21 0 38 -41.5t27 -114.5t10 -165v-78q0 -92 -10 -165t-27 -114.5t-38 -41.5q-32 0 -53.5 43t-21.5 108q0 43 -21 77.5t-57.5 54t-82.5 19.5t-82.5 -19.5t-57.5 -54t-21 -77.5
q0 -65 -21 -108t-53 -43q-21 0 -38 41.5t-27 114.5t-10 165v78q0 92 10 165t27 114.5t38 41.5q32 0 53 -40.5t21 -103.5q0 -41 21 -74z" />
    <glyph glyph-name="I" unicode="I" horiz-adv-x="179" 
d="M154.5 156q-9.5 -73 -26.5 -114.5t-38 -41.5t-38 41.5t-27 114.5t-10 165v78q0 92 10 165t27 114.5t38 41.5t38 -41.5t26.5 -114.5t9.5 -165v-78q0 -92 -9.5 -165z" />
    <glyph glyph-name="J" unicode="J" horiz-adv-x="332" 
d="M46 88q14 34 20 33q4 -1 13 -1q39 0 64 27.5t25 69.5v182q0 92 10 165t27 114.5t38 41.5t38 -32t26.5 -88.5t9.5 -127.5v-249q0 -68 -29 -122t-81 -84t-121 -30q-36 0 -71 9q17 58 31 92z" />
    <glyph glyph-name="K" unicode="K" horiz-adv-x="629" 
d="M156 511q-9 -49 -9 -62q0 -21 11 -21q27 0 130 133l42 54q39 51 83 78t88 27q10 0 16 -10t6 -27q0 -31 -19.5 -70t-54.5 -66q-188 -140 -188 -217q0 -32 25 -53t76 -47q38 -20 57.5 -33t29.5 -30l32 -54q28 -45 39.5 -67t11.5 -34t-14 -12q-47 0 -92.5 26t-84.5 75
l-32 43q-43 58 -72.5 91.5t-49.5 33.5q-25 0 -25 -66q0 -11 2 -41q1 -8 1 -24q0 -40 -10.5 -71.5t-27.5 -49t-37 -17.5q-21 0 -38 41.5t-27 114.5t-10 165v78q0 92 10 165t27 114.5t38 41.5q32 0 53 -45t21 -114q0 -12 -8 -50z" />
    <glyph glyph-name="L" unicode="L" horiz-adv-x="464" 
d="M163 352q-1 -19 -1 -56q0 -60 10.5 -96.5t42 -57t92.5 -20.5t101.5 -17.5t40.5 -43.5t-61.5 -43.5t-155.5 -17.5q-62 0 -111.5 41.5t-77.5 114.5t-28 165v78q0 92 10 165t27 114.5t38 41.5t38 -38.5t26.5 -107t9.5 -153.5z" />
    <glyph glyph-name="M" unicode="M" horiz-adv-x="905" 
d="M357.5 401.5q8.5 -20.5 14.5 -34.5q28 -68 43.5 -96t33.5 -28q21 0 50.5 47t80.5 160l47 103q36 78 71 122.5t61 44.5q25 0 48.5 -77.5t36.5 -201.5l8 -74q10 -89 10 -171q0 -90 -12 -143t-34 -53q-20 0 -43 23.5t-39 65.5t-16 94q0 11 2 35q18 168 18 234q0 65 -14 65
q-24 0 -99 -225q-20 -59 -27 -74l-24 -52q-36 -79 -69.5 -122.5t-57.5 -43.5q-26 0 -63 45t-65 121q-100 275 -133 275q-15 0 -15 -65q0 -33 4 -93q1 -15 2 -37t0 -30q-10 -96 -35.5 -156t-56.5 -60q-20 0 -31 50.5t-11 135.5q0 83 10 174l8 81q13 123 38.5 201t52.5 78
q29 0 66 -45t72 -123l46 -102q13 -28 21.5 -48.5z" />
    <glyph glyph-name="N" unicode="N" horiz-adv-x="671" 
d="M503 351q22 0 22 35q0 20 -5 50q-1 7 -3 23.5t-2 28.5q0 66 9.5 119t25.5 83t36 30t36 -41.5t25 -114.5t9 -165v-78q0 -139 -14 -230t-34 -91h-48q-29 119 -88.5 211.5t-127 143t-119.5 50.5q-36 0 -57.5 -25.5t-21.5 -76.5q0 -30 9 -71q8 -40 8 -70q0 -45 -12 -82.5
t-30.5 -58.5t-35.5 -21q-20 0 -36 41.5t-25 114.5t-9 165v78q0 139 14 230t34 91l250 -232q148 -137 190 -137z" />
    <glyph glyph-name="O" unicode="O" horiz-adv-x="783" 
d="M196.5 34q-85.5 47 -133.5 132q-48 84 -48 194q0 108 48 193t134 133q86 47 194 47q109 0 195 -47t134 -132t48 -194t-47.5 -193.5t-133.5 -132.5q-86 -47 -195 -47q-110 0 -195.5 47zM506.5 149.5q51.5 29.5 80.5 83.5q29 55 29 125q0 71 -28.5 126.5t-80.5 85.5
t-117 30q-64 0 -115 -30t-79 -85q-29 -56 -29 -127q0 -70 28.5 -124t80.5 -84q49 -30 114 -30t116.5 29.5z" />
    <glyph glyph-name="P" unicode="P" horiz-adv-x="546" 
d="M29.5 564q14.5 73 40.5 114.5t59 41.5h114q134 0 211 -61t77 -175q0 -121 -79 -185.5t-217 -64.5q-31 0 -51 -33.5t-20 -83.5t-21 -83.5t-53 -33.5q-21 0 -38 41.5t-27 114.5t-10 165v78q0 92 14.5 165zM170 387q9 -35 23 -35h32q73 0 112 31.5t39 93.5q0 58 -38.5 88.5
t-109.5 30.5q-29 0 -48 -34.5t-19 -87.5q0 -52 9 -87z" />
    <glyph glyph-name="Q" unicode="Q" horiz-adv-x="783" 
d="M718.5 190.5q-23.5 -17.5 -46.5 -17.5q-19 0 -29 11q-36 40 -36 87q0 14 3 27q6 29 6 60q0 71 -28.5 126.5t-80.5 85.5t-117 30q-64 0 -115 -30t-79 -85q-29 -56 -29 -127q0 -70 28.5 -124t80.5 -84q49 -30 114 -30q56 0 101 21q-21 23 -33.5 50t-12.5 46q0 21 16 21
q37 0 76.5 -23t78.5 -68q35 -41 59.5 -86.5t24.5 -67.5q0 -14 -11 -14q-35 0 -58 5t-29 13l-14 17q-89 -47 -196 -47q-110 0 -195.5 47t-133.5 132q-48 84 -48 194q0 108 48 193t134 133q86 47 194 47q109 0 195 -47t134 -132t48 -194q0 -64 -17 -123q-9 -29 -32.5 -46.5z
" />
    <glyph glyph-name="R" unicode="R" horiz-adv-x="594" 
d="M29.5 564q14.5 73 40.5 114.5t59 41.5h114q134 0 211 -58.5t77 -167.5q0 -42 -11 -80q-6 -19 -15.5 -43t-13.5 -35q-18 -46 -26 -71t-8 -50q0 -40 25 -76q18 -26 28 -53t10 -49q0 -17 -7 -27t-20 -10q-41 0 -85 32t-83 91l-6 9q-39 58 -70 90t-48 32h-37
q0 -73 -9.5 -130.5t-26.5 -90.5t-38 -33t-38 41.5t-27 114.5t-10 165v78q0 92 14.5 165zM173 403q9 -33 23 -33h32q73 0 112 30.5t39 89.5q0 53 -38.5 81t-109.5 28q-29 0 -48 -32.5t-19 -81.5t9 -82z" />
    <glyph glyph-name="S" unicode="S" horiz-adv-x="561" 
d="M72.5 69.5q-18.5 31.5 -18.5 60.5q0 26 14 37t31 11t35.5 -9t51.5 -30q41 -24 90 -24q57 0 87.5 22.5t30.5 63.5q0 28 -12.5 45t-40 30.5t-79.5 28.5q-112 34 -166 87.5t-54 142.5q0 52 29 97.5t83 72.5q58 30 107 30q7 0 23 -2q69 -11 114.5 -38t67 -59t21.5 -56
q0 -14 -7 -20q-16 -12 -33 -12q-16 0 -34.5 8.5t-46.5 27.5q-34 21 -83 21q-42 0 -65.5 -20.5t-23.5 -52.5q0 -24 12 -40.5t37 -28.5q23 -11 73 -28q80 -26 127.5 -54.5t74.5 -69.5q28 -43 28 -107q0 -58 -30 -107t-88 -79q-59 -31 -148 -31q-85 0 -154 33
q-35 18 -53.5 49.5z" />
    <glyph glyph-name="T" unicode="T" horiz-adv-x="564" 
d="M521.5 611.5q-27.5 -18.5 -68.5 -18.5q-67 0 -92 -21.5t-25 -65.5q0 -26 9 -80q1 -8 6.5 -48t5.5 -81q0 -85 -10 -152.5t-27 -106t-38 -38.5t-38 38.5t-27 106t-10 152.5q0 35 7 69.5t20 77.5q18 59 18 86q0 32 -24.5 48t-85.5 16l-38 -1q-38 0 -63.5 19t-25.5 45
q0 18 34.5 32.5t95.5 22.5t137 8q116 0 191.5 -17.5t75.5 -45.5q0 -27 -27.5 -45.5z" />
    <glyph glyph-name="U" unicode="U" horiz-adv-x="626" 
d="M143 662.5q21 -57.5 21 -145.5v-204q0 -199 148 -199q74 0 111.5 50.5t37.5 149.5v85q0 92 10 165t27 114.5t38 41.5q32 0 53.5 -57.5t21.5 -145.5v-203q0 -157 -77.5 -242t-221.5 -85q-297 0 -297 327v85q0 92 9.5 165t26.5 114.5t39 41.5q32 0 53 -57.5z" />
    <glyph glyph-name="V" unicode="V" horiz-adv-x="731" 
d="M289.5 414.5q5.5 -30.5 6.5 -38.5q11 -65 21 -97.5t28 -32.5q42 0 122 217l25 67q32 88 72 139t75 51q8 0 12.5 -10.5t4.5 -29.5q0 -48 -22.5 -135t-61.5 -185l-72 -179q-34 -84 -69.5 -132.5t-64.5 -48.5t-65 48.5t-70 132.5l-13 32q-59 148 -96 280t-37 191q0 36 14 36
q38 0 79.5 -51t73.5 -139l25 -67q7 -18 12.5 -48.5z" />
    <glyph glyph-name="W" unicode="W" horiz-adv-x="1171" 
d="M275 429q17 -60 32 -93.5t37 -33.5q42 0 101 160l26 70q33 87 66 137.5t56 50.5t56 -51t65 -139q10 -27 25 -96q20 -83 35 -125t37 -42q43 0 107 196l18 55q31 93 69.5 147.5t73.5 54.5q19 0 19 -48q0 -49 -19.5 -134t-53.5 -178l-61 -169q-32 -88 -67.5 -139.5
t-64.5 -51.5t-64.5 50t-68.5 137q-9 24 -25 90q-16 71 -30 107.5t-35 36.5q-44 0 -114 -180l-22 -56q-33 -86 -68.5 -135.5t-64.5 -49.5t-64.5 51t-67.5 140l-14 40q-51 140 -81.5 263t-30.5 183q0 43 16 43q38 0 78 -54.5t71 -147.5l18 -56z" />
    <glyph glyph-name="X" unicode="X" horiz-adv-x="740" 
d="M205 690.5q46 -29.5 80 -83.5l37 -60q21 -35 30.5 -48t17.5 -13q7 0 13.5 8t22.5 31q35 51 55 76l4 5q39 55 82 84.5t84 29.5q19 0 19 -28q0 -27 -17 -68.5t-45 -80.5l-4 -6q-56 -84 -80 -134.5t-24 -80.5q0 -23 11 -37t36 -34q3 -2 22 -18t35 -39q31 -44 50.5 -90
t19.5 -75t-19 -29q-52 0 -102.5 28t-68.5 85q-36 116 -83 116q-23 0 -45 -22.5t-50 -63.5l-12 -17l-10 -13q-39 -55 -81.5 -84t-83.5 -29q-18 0 -18 27q0 28 18 71.5t48 85.5l9 12q13 18 29.5 31t38.5 28q30 19 43.5 33.5t13.5 38.5q0 30 -29 80t-96 131q-29 36 -46 77
t-17 70q0 35 22 35q44 0 90 -29.5z" />
    <glyph glyph-name="Y" unicode="Y" horiz-adv-x="692" 
d="M179 679q42 -41 79 -114q9 -18 23 -62q13 -42 23.5 -63t26.5 -21q37 0 107 132l8 15q37 73 78 113.5t77 40.5q17 0 17 -31q0 -33 -18.5 -88.5t-50.5 -114.5l-98 -180q-30 -55 -30 -118q0 -82 -21.5 -135t-53.5 -53t-53.5 36t-21.5 90v62q0 61 -30 118q-66 122 -110.5 235
t-44.5 157q0 22 12 22q39 0 81 -41z" />
    <glyph glyph-name="Z" unicode="Z" horiz-adv-x="617" 
d="M111 702.5q81 17.5 205 17.5q67 0 107 -45.5t40 -114.5q0 -70 -41 -139q-56 -92 -88 -156t-32 -106q0 -48 52 -48q22 0 61 11q25 7 52 7q33 0 60.5 -11t43.5 -27t16 -30q0 -26 -81 -43.5t-205 -17.5q-67 0 -107 45.5t-40 114.5q0 71 42 139q9 15 45 70q39 57 59.5 95
t20.5 66q0 29 -27 46.5t-90 21.5q-79 5 -126.5 20.5t-47.5 40.5q0 26 81 43.5z" />
    <glyph glyph-name="bracketleft" unicode="[" horiz-adv-x="444" 
d="M391.5 645.5q-21.5 -17.5 -54.5 -17.5t-54.5 -56.5t-21.5 -142.5v-274q0 -86 21.5 -142.5t54.5 -56.5t54.5 -17.5t21.5 -43.5t-43 -43.5t-108 -17.5q-43 0 -77.5 25.5t-54 71t-19.5 102.5v518q0 57 19.5 102.5t54 71t77.5 25.5q65 0 108 -17.5t43 -43.5t-21.5 -43.5z" />
    <glyph glyph-name="backslash" unicode="\" horiz-adv-x="467" 
d="M385.5 157q23.5 -80 23.5 -122q0 -35 -16 -35q-35 0 -67.5 28t-54.5 77l-128 290q-38 88 -61 167.5t-23 122.5q0 35 16 35q35 0 67.5 -28t54.5 -78l127 -289q38 -88 61.5 -168z" />
    <glyph glyph-name="bracketright" unicode="]" horiz-adv-x="444" 
d="M161.5 571.5q-21.5 56.5 -54.5 56.5t-54.5 17.5t-21.5 43.5t43 43.5t108 17.5q43 0 77.5 -25.5t54 -71t19.5 -102.5v-518q0 -57 -19.5 -102.5t-54 -71t-77.5 -25.5q-65 0 -108 17.5t-43 43.5t21.5 43.5t54.5 17.5t54.5 56.5t21.5 142.5v274q0 86 -21.5 142.5z" />
    <glyph glyph-name="underscore" unicode="_" horiz-adv-x="483" 
d="M401.5 -97q-56.5 -16 -142.5 -16h-35q-86 0 -142.5 16t-56.5 40q0 25 56.5 41t142.5 16h35q86 0 142.5 -16t56.5 -41q0 -24 -56.5 -40z" />
    <glyph glyph-name="grave" unicode="`" horiz-adv-x="654" 
d="M399 597q-37 0 -91 18q-43 15 -70 35.5t-27 38.5q0 3 2 9q7 18 40 18q37 0 89 -23q42 -19 69 -41t27 -36q0 -19 -39 -19z" />
    <glyph glyph-name="a" unicode="a" 
d="M446 81q-31 -48 -72 -71t-98 -23q-70 0 -128.5 35.5t-93.5 100.5t-35 148t33.5 147.5t93.5 100.5q59 35 130 35q54 0 97.5 -21.5t70.5 -62.5h3v71q40 5 73 -32t51.5 -98.5t18.5 -126.5q0 -81 -9 -145.5t-25 -101.5t-36 -37q-31 0 -51 23t-20 58h-3zM377.5 132.5
q32.5 20.5 51.5 56.5q18 36 18 82q0 69 -40.5 113.5t-102.5 44.5t-102.5 -44.5t-40.5 -113.5q0 -46 18.5 -82t51.5 -56q32 -21 73 -21t73.5 20.5z" />
    <glyph glyph-name="b" unicode="b" 
d="M191 464h2q27 45 70.5 67.5t100.5 22.5q71 0 129 -35.5t92 -99.5q33 -64 33 -148q0 -82 -34 -147t-94 -101t-131 -36q-74 0 -121 37q-31 25 -39 39t-9 15h-2v-78q-40 0 -72 41.5t-50.5 114.5t-18.5 165q0 105 10 194.5t26 139.5t35 45q32 -9 51.5 -44t19.5 -84
q0 -108 2 -108zM406.5 132.5q32.5 20.5 51.5 56.5q18 36 18 82q0 69 -40.5 113.5t-102.5 44.5q-63 0 -103.5 -44.5t-40.5 -113.5q0 -70 41 -114.5t103 -44.5q41 0 73.5 20.5z" />
    <glyph glyph-name="c" unicode="c" horiz-adv-x="449" 
d="M412 37q-15 -41 -40 -45q-30 -5 -57 -5q-86 0 -153 36t-105 102q-38 65 -38 147q0 81 36.5 145t103.5 101q68 36 154 36q62 0 112 -24q0 -52 -15 -83t-38 -25q-25 7 -58 7q-69 0 -111 -43t-42 -113q0 -72 44 -116.5t116 -44.5q55 0 106 24q0 -58 -15 -99z" />
    <glyph glyph-name="d" unicode="d" 
d="M448.5 67.5q-0.5 10.5 -0.5 13.5h-2q-58 -94 -168 -94q-71 0 -130 35.5t-94 100.5t-35 148t33.5 147.5t93.5 100.5q59 35 130 35q70 0 122 -35q29 -21 38 -33.5t10 -13.5h1q0 64 10 117.5t27 82.5t35 23q33 -12 52 -74t19 -157v-143q0 -92 -9 -165t-25 -114.5t-36 -41.5
q-31 0 -51 11.5t-20 29.5q0 16 -0.5 26.5zM377.5 132.5q32.5 20.5 51.5 56.5q18 36 18 82q0 69 -40.5 113.5t-102.5 44.5t-102.5 -44.5t-40.5 -113.5q0 -45 18.5 -81t50.5 -56l2 -2q32 -20 72 -20q41 0 73.5 20.5z" />
    <glyph glyph-name="e" unicode="e" horiz-adv-x="600" 
d="M73.5 417q33.5 64 94.5 101q60 36 138 36q79 0 137 -36t88 -99q20 -44 25 -85l1 -8q0 -19 -13 -32.5t-34 -17.5l-244 -37q-36 0 -76 -13t-40 -40q0 -24 39 -56q17 -14 38.5 -18.5t52.5 -4.5h36q34 0 60.5 14.5t42.5 40.5q16 28 44 28h16q31 0 52.5 -10t18.5 -23
q-5 -20 -10 -30q-28 -64 -89 -102t-140 -38q-81 0 -143 36t-95 101t-33 149q0 80 33.5 144zM196 358q0 -33 81 -33h63q30 0 61.5 10t31.5 29t-40 47q-22 15 -42.5 22t-45.5 7q-47 0 -81 -34q-28 -28 -28 -48z" />
    <glyph glyph-name="f" unicode="f" horiz-adv-x="375" 
d="M358 718q14 -15 14 -38q0 -22 -6.5 -37t-16.5 -15h-24q-41 0 -66.5 -19.5t-25.5 -57.5v-10q57 0 94.5 -16t37.5 -40t-19 -40t-47 -16q-36 0 -67 -37t-31 -129q0 -31 2 -48q4 -39 4 -82q0 -62 -11.5 -97.5t-33.5 -35.5q-18 0 -36 20.5t-29.5 57t-11.5 81.5q0 24 5 56
q16 95 16 152q0 38 -7.5 52.5t-19.5 14.5q-5 0 -12 -2.5t-12 -2.5h-35q19 52 33.5 82t21.5 30h15v12q0 84 48.5 132t135.5 48h49q21 0 35 -15z" />
    <glyph glyph-name="g" unicode="g" horiz-adv-x="616" 
d="M110.5 -144.5q-15.5 26.5 -15.5 52.5q0 21 11 29q16 10 33 10q14 0 31 -6.5t41 -19.5q31 -17 72 -17q72 0 109 42t37 133q0 6 -0.5 10.5t-0.5 5.5h-2q-54 -82 -156 -82q-72 0 -129.5 34.5t-89.5 96.5t-32 140t31.5 139.5t88.5 96.5q55 34 127 34q66 0 115 -37
q28 -23 36 -35.5t9 -13.5h1v43q14 2 20 2q34 0 62 -25t44.5 -69.5t16.5 -99.5v-223q0 -105 -38 -175t-104 -101q-65 -30 -141 -30q-75 0 -132 26q-29 13 -44.5 39.5zM389.5 178.5q37.5 41.5 37.5 105.5t-37.5 104.5t-95.5 40.5t-95.5 -40.5t-37.5 -104.5t37.5 -105.5
t95.5 -41.5t95.5 41.5z" />
    <glyph glyph-name="h" unicode="h" horiz-adv-x="602" 
d="M191 470h2q27 43 67 63.5t98 20.5q97 0 152 -61t55 -165v-7q0 -92 -9 -165t-25.5 -114.5t-36.5 -41.5q-31 0 -51 40t-20 101v141q0 68 -29 107.5t-86 39.5q-59 0 -89 -41t-30 -117q0 -77 -9 -139t-25.5 -97t-36.5 -35t-36.5 41.5t-25.5 114.5t-9 165q0 105 10 194.5
t26 139.5t35 45q32 -9 51.5 -43t19.5 -82q0 -105 2 -105z" />
    <glyph glyph-name="i" unicode="i" horiz-adv-x="236" 
d="M62 596.5q-23 23.5 -23 56.5t23 56.5t56 23.5t56 -23.5t23 -56.5t-23 -56.5t-56 -23.5t-56 23.5zM180 132q-9 -62 -25.5 -97t-36.5 -35t-36.5 35t-25.5 97t-9 139t9 138.5t25.5 96.5t36.5 35t36.5 -34.5t25.5 -96.5t9 -139t-9 -139z" />
    <glyph glyph-name="j" unicode="j" horiz-adv-x="236" 
d="M62 596.5q-23 23.5 -23 56.5t23 56.5t56 23.5t56 -23.5t23 -56.5t-23 -56.5t-56 -23.5t-56 23.5zM-57.5 -120.5q13.5 28.5 23.5 26.5q13 -3 24 -3q28 0 42 19t15 60v238q0 92 9 165t25.5 114.5t36.5 41.5t36.5 -36t25.5 -100t9 -144v-281q0 -89 -46 -139.5t-132 -50.5
q-59 0 -92 16q10 45 23.5 73.5z" />
    <glyph glyph-name="k" unicode="k" horiz-adv-x="559" 
d="M81.5 41.5q-16.5 41.5 -25.5 114.5t-9 165q0 105 10 194.5t26 139.5t35 45q32 -9 51.5 -63t19.5 -136q0 -14 -8 -58q-8 -48 -8 -67q0 -26 13 -26q22 0 88 82l4 5q39 50 82.5 77t84.5 27q23 0 23 -34q0 -23 -12 -49t-34 -46q-22 -21 -44.5 -35t-50.5 -30
q-29 -16 -41.5 -26.5t-12.5 -23.5q0 -20 35.5 -54t125.5 -101q27 -20 41.5 -49t14.5 -55q0 -17 -6.5 -27.5t-18.5 -10.5q-44 0 -87.5 25.5t-83.5 74.5q-82 101 -104 101q-10 0 -10 -18q0 -8 2 -20l3 -18q4 -22 4 -30q0 -50 -20 -82.5t-51 -32.5q-20 0 -36.5 41.5z" />
    <glyph glyph-name="l" unicode="l" horiz-adv-x="236" 
d="M180 156q-9 -73 -25.5 -114.5t-36.5 -41.5t-36.5 41.5t-25.5 114.5t-9 165q0 102 10 191t26.5 139t34.5 44q33 -12 52 -74t19 -157v-143q0 -92 -9 -165z" />
    <glyph glyph-name="m" unicode="m" horiz-adv-x="905" 
d="M171 479q1 -7 1 -9h1q25 42 64 63t95 21q72 0 119 -38q29 -25 36.5 -38.5t8.5 -14.5h1q26 45 70 68t104 23q98 0 151 -60t53 -166v-7q0 -92 -9 -165t-25.5 -114.5t-36.5 -41.5q-31 0 -51 40.5t-20 102.5v142q0 68 -25.5 106t-77.5 38q-51 0 -78 -38t-28 -108
q0 -81 -9 -145.5t-25.5 -101t-36.5 -36.5q-31 0 -51.5 41t-20.5 102v142q0 144 -102 144q-53 0 -80 -39t-27 -114q0 -79 -9 -142t-25.5 -98.5t-36.5 -35.5t-36.5 35t-25.5 97t-9 139q0 74 9.5 135t25.5 94.5t35 30.5q31 -5 50.5 -14.5t19.5 -20.5q0 -10 1 -17z" />
    <glyph glyph-name="n" unicode="n" horiz-adv-x="602" 
d="M188 477.5q1 -5.5 1 -7.5h1q27 43 67.5 63.5t99.5 20.5q99 0 153.5 -61t54.5 -165v-7q0 -92 -9 -165t-25.5 -114.5t-36.5 -41.5q-31 0 -51 40t-20 101v141q0 68 -29 107.5t-86 39.5q-59 0 -89 -41t-30 -117q0 -77 -9 -139t-25.5 -97t-36.5 -35t-36.5 35t-25.5 97t-9 139
q0 73 9.5 133t25.5 93t35 29q32 -7 51 -16.5t19 -18.5q0 -8 1 -13.5z" />
    <glyph glyph-name="o" unicode="o" horiz-adv-x="591" 
d="M46.5 415.5q36.5 64.5 101.5 101.5q64 37 147 37q82 0 147.5 -36.5t102.5 -101.5q36 -64 36 -145t-36.5 -145.5t-101.5 -101.5q-64 -37 -148 -37q-81 0 -146.5 37t-101.5 102q-37 64 -37 145q0 80 36.5 144.5zM368.5 133.5q32.5 20.5 51.5 56.5q18 36 18 81
q0 70 -40.5 114t-102.5 44t-102.5 -44.5t-40.5 -113.5t40.5 -113.5t102.5 -44.5q41 0 73.5 20.5z" />
    <glyph glyph-name="p" unicode="p" 
d="M189 471q1 -6 1 -8h1q58 91 175 91q70 0 127.5 -35.5t91.5 -99.5q33 -64 33 -148q0 -82 -34 -147t-93 -101q-58 -36 -127 -36q-76 0 -125 38q-31 24 -39 38t-9 14h-2q0 -79 -9 -142t-25.5 -99t-36.5 -36t-36.5 41.5t-25.5 114.5t-9 165q0 113 10 207.5t26 148t35 49.5
q32 -7 51 -17.5t19 -21.5q0 -10 1 -16zM406.5 132.5q32.5 20.5 51.5 56.5q18 36 18 82q0 69 -40.5 113.5t-102.5 44.5q-63 0 -103.5 -44.5t-40.5 -113.5q0 -70 41 -114.5t103 -44.5q41 0 73.5 20.5z" />
    <glyph glyph-name="q" unicode="q" 
d="M448.5 33q-0.5 37 -0.5 48h-2q-31 -48 -72 -71t-98 -23q-70 0 -128.5 35.5t-93.5 100.5t-35 148t33.5 147.5t93.5 100.5q59 35 130 35t122 -36q30 -22 38.5 -35t9.5 -13h1v41q4 1 12 1q36 0 66 -45t47.5 -123t17.5 -173v-50q0 -92 -9 -165t-25 -114.5t-36 -41.5
q-31 0 -51 39.5t-20 100.5q0 56 -0.5 93zM377.5 132.5q32.5 20.5 51.5 56.5q18 36 18 82q0 69 -40.5 113.5t-102.5 44.5t-102.5 -44.5t-40.5 -113.5q0 -45 18.5 -81t50.5 -56l2 -2q32 -20 72 -20q41 0 73.5 20.5z" />
    <glyph glyph-name="r" unicode="r" horiz-adv-x="397" 
d="M161 467q1 -7 1 -9h1q24 45 64.5 65.5t102.5 20.5q29 0 54 -6t21 -11l-13 -16q-15 -19 -40 -68l-17 -35q-92 0 -132.5 -37t-40.5 -128q0 -70 -9 -125t-25.5 -86.5t-36.5 -31.5t-36.5 35t-25.5 97t-9 139q0 73 9.5 133t25.5 93t35 29q32 -7 51 -18t19 -23q0 -11 1 -18z
" />
    <glyph glyph-name="s" unicode="s" horiz-adv-x="453" 
d="M68 55q-11 23 -11 47q0 15 4.5 26t12.5 15q11 5 24 5q16 0 31 -8t37 -25q26 -17 61 -17q32 0 49.5 11.5t17.5 34.5q0 17 -8 28.5t-27 21.5q-16 9 -61 27q-78 30 -118 72.5t-40 100.5q0 45 22 81t64 58q49 25 99 21q52 -5 86.5 -28t50.5 -52t16 -52q0 -17 -8 -20
q-11 -5 -24 -5q-14 0 -27.5 7.5t-33.5 22.5q-23 17 -56 17q-27 0 -41.5 -11.5t-14.5 -30.5q0 -21 18 -33q17 -11 74 -36q83 -34 123 -76t40 -104q0 -43 -23 -80.5t-67 -60.5q-44 -25 -109 -25q-73 0 -128 32q-22 13 -33 36z" />
    <glyph glyph-name="t" unicode="t" horiz-adv-x="369" 
d="M121 685q16 20 39 20q8 0 17 -3q33 -12 52 -37t19 -56q0 -29 16 -48.5t40 -19.5t39.5 -16t15.5 -40t-15.5 -40t-39.5 -16t-40 -60.5t-16 -153.5t-20 -154t-51 -61q-20 0 -36.5 28t-26 77t-9.5 110q0 93 -12 153.5t-30 60.5h-43q19 52 35.5 82t27.5 30h22v93q0 31 16 51z
" />
    <glyph glyph-name="u" unicode="u" horiz-adv-x="578" 
d="M159 501q20 -40 20 -101v-141q0 -65 28.5 -105.5t81.5 -40.5q54 0 82 39.5t28 106.5q0 80 9.5 144.5t26 101t36.5 36.5q31 0 51 -43.5t20 -110.5v-155q0 -74 -33 -129.5t-91 -85.5t-129 -30t-128 30t-90 85q-34 55 -34 129q0 88 9 159t25.5 111t36.5 40q31 0 51 -40z" />
    <glyph glyph-name="v" unicode="v" horiz-adv-x="573" 
d="M244 305q13 -61 23 -93.5t24 -32.5q29 0 67 189q10 52 34 91.5t52.5 60.5t51.5 21q18 0 18 -41q0 -38 -16.5 -101t-44.5 -131l-41 -97q-34 -81 -68 -128.5t-57 -47.5t-57 47.5t-68 128.5q-42 100 -67.5 192t-25.5 140q0 38 16 38q37 0 75.5 -46.5t68.5 -126.5
q6 -15 15 -63z" />
    <glyph glyph-name="w" unicode="w" horiz-adv-x="890" 
d="M222 306q5 -46 10.5 -69t16.5 -23q26 0 85 153q32 82 63.5 128t54.5 46t54.5 -46.5t62.5 -127.5l10 -29q16 -48 30.5 -78t29.5 -30q29 0 52 137q9 52 29.5 91.5t45.5 61t47 21.5q20 0 20 -52q0 -38 -12 -96t-34 -122l-27 -76q-32 -90 -63.5 -142.5t-54.5 -52.5
t-56.5 48.5t-66.5 133.5q-6 15 -9.5 39.5l-4.5 31.5q-5 40 -11 61t-18 21q-30 0 -105 -150l-1 -2q-34 -85 -66.5 -134t-55.5 -49t-55.5 52.5t-63.5 143.5q-30 87 -47 165.5t-17 126.5q0 53 20 53q34 0 68.5 -47t59.5 -127q6 -19 9 -61z" />
    <glyph glyph-name="x" unicode="x" horiz-adv-x="570" 
d="M173.5 520.5q36.5 -20.5 63.5 -59.5q6 -8 9 -24.5t6 -45.5q1 -6 4 -26.5t7 -30.5t10 -10q22 0 74 137q15 40 52.5 60t78.5 20q11 0 16.5 -8.5t5.5 -23.5q0 -21 -10 -48.5t-28 -53.5q-9 -12 -22 -24.5t-25 -23.5q-25 -23 -37 -38t-12 -36q0 -52 101 -148
q21 -21 31.5 -45.5t10.5 -48.5q0 -19 -7 -31t-20 -12q-40 0 -78.5 22.5t-64.5 64.5q-52 84 -76 84q-9 0 -14.5 -10t-13.5 -33q-8 -29 -17 -41q-29 -42 -63.5 -64.5t-71.5 -22.5q-11 0 -17.5 11t-6.5 28q0 23 11.5 51t32.5 51q81 88 81 144q0 23 -11 41.5t-34 46.5
q-22 26 -31 39q-17 23 -26 48.5t-9 45.5q0 16 6.5 25.5t18.5 9.5q39 0 75.5 -20.5z" />
    <glyph glyph-name="y" unicode="y" horiz-adv-x="557" 
d="M149 497.5q39 -43.5 72 -119.5q9 -21 19 -73q14 -59 23.5 -88.5t22.5 -29.5q29 0 66 191q10 50 32.5 87t50 56.5t50.5 19.5q15 0 15 -37q0 -47 -24 -138.5t-64 -194.5l-74 -188q-34 -85 -72 -134t-71 -49q-17 0 -26 15.5t-9 40.5q0 33 15 72l9 22q20 51 20 99
q0 55 -26 112q-51 110 -83.5 209t-32.5 144q0 27 13 27q35 0 74 -43.5z" />
    <glyph glyph-name="z" unicode="z" horiz-adv-x="480" 
d="M98.5 524q61.5 17 164.5 17q50 0 80 -33t30 -83t-29 -98q-23 -39 -35.5 -78.5t-12.5 -71.5q0 -30 11 -47.5t32 -17.5q46 0 78 -14.5t32 -35.5q0 -28 -62.5 -45t-165.5 -17q-51 0 -81.5 33.5t-30.5 84.5q0 49 29 97q23 39 35.5 78t12.5 71q0 30 -11 47.5t-32 17.5
q-44 0 -75 14.5t-31 34.5q0 29 61.5 46z" />
    <glyph glyph-name="braceleft" unicode="{" horiz-adv-x="443" 
d="M152 146q0 33 -11.5 59.5t-33.5 42.5q-9 6 -16 10t-12 7q-15 8 -21 13.5t-6 13.5v27q46 0 73 34.5t27 84.5v98q0 25 4 42q15 76 72.5 109.5t121.5 33.5q26 0 43.5 -5t17.5 -13q1 -24 -8 -39t-22 -13q-18 3 -30 3q-22 0 -32 -8.5t-13.5 -27t-3.5 -55.5v-148v-13
q-2 -32 -9 -51.5t-19 -42.5q-1 -2 -6 -11t-5 -17q0 -11 12 -24q27 -30 27 -87v-135q0 -60 8 -84q8 -23 39 -23q5 -1 20 -6.5t28.5 -15.5t13.5 -24q0 -7 -17 -12t-41 -5q-40 0 -82.5 14.5t-75.5 48t-41 88.5q-2 22 -2 33v98z" />
    <glyph glyph-name="braceright" unicode="}" horiz-adv-x="443" 
d="M312 48q0 -25 -4 -42q-15 -76 -72.5 -109.5t-121.5 -33.5q-26 0 -43.5 5t-17.5 13q-1 23 8.5 38t22.5 12q16 -4 31 -4q32 0 39 22q8 24 8 81v139v14q2 32 9 51.5t19 42.5q11 18 11 27q0 12 -12 25q-27 30 -27 86v149q0 37 -3.5 55.5t-14 26.5t-31.5 8q-22 0 -61 -9
q1 31 31.5 54.5t71.5 23.5q40 0 76 -26q81 -61 81 -161v-98q0 -33 11.5 -59.5t33.5 -42.5q9 -6 16 -10t12 -7q15 -8 21 -13.5t6 -13.5v-27q-46 0 -73 -34.5t-27 -84.5v-98z" />
    </font>
</defs>
</svg>
