<?xml version="1.0" standalone="no"?>
<!DOCTYPE svg PUBLIC "-//W3C//DTD SVG 1.1//EN" "http://www.w3.org/Graphics/SVG/1.1/DTD/svg11.dtd" >
<svg>
<metadata>
Created by FontForge 20090622 at Fri Apr 19 07:43:10 2019
 By deploy user
Lococo Bold
</metadata>
<defs>
<font id="Lococo-Bold" horiz-adv-x="571" >
  <font-face 
    font-family="Lococo"
    font-weight="250"
    font-stretch="normal"
    units-per-em="1000"
    panose-1="2 0 6 3 0 0 0 0 0 0"
    ascent="800"
    descent="-200"
    x-height="479"
    cap-height="764"
    bbox="-90 -278 1115 1092"
    underline-thickness="50"
    underline-position="-100"
    unicode-range="U+0020-U+F8FE"
  />
<missing-glyph horiz-adv-x="364" 
d="M66 633v-600h199v600h-199zM298 0h-265v666h265v-666z" />
    <glyph glyph-name=".notdef" horiz-adv-x="364" 
d="M66 633v-600h199v600h-199zM298 0h-265v666h265v-666z" />
    <glyph glyph-name=".null" horiz-adv-x="0" 
 />
    <glyph glyph-name="nonmarkingreturn" horiz-adv-x="333" 
 />
    <glyph glyph-name="space" unicode=" " horiz-adv-x="300" 
 />
    <glyph glyph-name="exclam" unicode="!" horiz-adv-x="298" 
d="M210 96l-199 2l-6 739l223 7zM110 60q39 -2 69 -30t31 -68q0 -38 -30 -69q-30 -32 -65 -32t-70 26q-35 25 -36 72q-1 43 30 72q32 30 71 29z" />
    <glyph glyph-name="quotedbl" unicode="&#x22;" horiz-adv-x="574" 
d="M208 449l-133 1l-30 308l218 -3zM449 452l-133 1l-30 309l218 -4z" />
    <glyph glyph-name="numbersign" unicode="#" horiz-adv-x="760" 
d="M366 344l14 88q-33 -1 -97 -1l-15 -88q65 0 98 1zM690 436l-186 -2l-15 -89q59 1 176 1v-120l-196 -3l-44 -263l-118 21l39 241l-98 -2l-43 -259l-118 22l38 236l-114 -2l-4 124q46 1 138 1l14 87l-128 -2l-3 124q50 1 151 1l32 199l122 -16l-30 -182q32 1 97 1l31 196
l123 -17l-30 -178q56 1 167 1z" />
    <glyph glyph-name="dollar" unicode="$" horiz-adv-x="829" 
d="M313 880l116 -2l2 -106q108 -1 181 -37q32 -15 59 -42q43 -42 89 -124l-162 -90q8 -14 22 -43q13 -28 19 -47q24 -64 24 -128q1 -100 -61 -172q-62 -69 -157 -90l2 -120l-127 -2q-1 39 -1 116q-154 12 -241 87q-75 69 -83 138l142 70q-6 12 -20.5 39t-21 42t-15 41.5
t-10.5 57.5t0 71q4 69 73 134q68 65 171 89q0 79 -1 118z" />
    <glyph glyph-name="percent" unicode="%" horiz-adv-x="736" 
d="M484 98q32 3 55.5 -21t24.5 -58q0 -29 -24 -54q-24 -26 -52 -26q-29 0 -56 21q-26 19 -28 57q-2 34 25 56q28 23 55 25zM192 920q32 3 56 -21t24 -58q0 -29 -24 -55q-24 -25 -51 -25q-33 0 -58.5 21t-26.5 57q-2 33 26 56q26 23 54 25zM15 13l487 969l164 -103l-477 -954
z" />
    <glyph glyph-name="quotesingle" unicode="'" horiz-adv-x="319" 
d="M77 441l-24 304l196 -3l-45 -302z" />
    <glyph glyph-name="parenleft" unicode="(" horiz-adv-x="472" 
d="M186 -220l-12 33q-8 21 -27 87q-18 61 -34 133q-14 61 -28 162q-12 87 -14 183q-5 220 114 471q14 31 43 85l7 10l167 -91q0 -1 -5 -10.5t-17.5 -31.5t-23.5 -45q-25 -53 -40 -91q-48 -122 -47 -270q1 -157 40 -337q30 -132 59 -211l11 -30q-6 -1 -96 -20
q-44 -9 -71 -16.5t-26 -10.5z" />
    <glyph glyph-name="parenright" unicode=")" horiz-adv-x="428" 
d="M186 922l16 -31q5 -9 38 -83q29 -69 51 -128q21 -61 48 -157q23 -84 38 -180q33 -217 -53 -481q-11 -35 -31 -90l-6 -11l-177 69q-1 1 3 11l13.5 33.5t17.5 47.5q17 49 28 95q33 129 12 274q-23 163 -83 329q-46 124 -86 202l-15 28q2 1 93 32q45 17 69.5 27t23.5 13z
" />
    <glyph glyph-name="asterisk" unicode="*" horiz-adv-x="579" 
d="M252 716l-10 96l137 6l3 -94l90 28l37 -128l-91 -26l58 -71q-40 -31 -60 -45l-39 -27l-64 85l-59 -86l-108 71l81 76l-99 21l31 135z" />
    <glyph glyph-name="plus" unicode="+" horiz-adv-x="640" 
d="M232 483l-2 149l214 11l-6 -160l133 -6l-5 -163l-130 4l-5 -173l-212 9l3 167l-177 4l5 159z" />
    <glyph glyph-name="comma" unicode="," horiz-adv-x="399" 
d="M27 -146l114 278l188 -75l-212 -235z" />
    <glyph glyph-name="hyphen" unicode="-" horiz-adv-x="410" 
d="M-1 156l-1 196l343 -4l-4 -191z" />
    <glyph glyph-name="period" unicode="." horiz-adv-x="304" 
d="M155 140q31 3 55 -20.5t24 -57.5q0 -30 -24 -55t-51 -25q-28 0 -57 20q-26 19 -28 58q-2 33 26 56q27 23 55 24z" />
    <glyph glyph-name="slash" unicode="/" horiz-adv-x="670" 
d="M-8 -168l432 999l176 -95l-430 -977z" />
    <glyph glyph-name="zero" unicode="0" horiz-adv-x="501" 
d="M213 529v-136h1l-2 -163l17 1q0 91 1 136h-1l2 162h-18zM427 387q4 -188 4 -234q0 -57 -59.5 -118t-142.5 -61q-53 -1 -107.5 27.5t-87 69t-29.5 71.5q1 31 1 218q-3 218 -3 242q0 57 59.5 117.5t143.5 60.5q83 0 153 -58.5t70 -111.5q0 -4 -2 -223z" />
    <glyph glyph-name="one" unicode="1" horiz-adv-x="384" 
d="M-1 758l90 1h225v-758h-226l1 584h-91q5 2 1 173z" />
    <glyph glyph-name="two" unicode="2" horiz-adv-x="461" 
d="M190 771q27 0 45.5 -1.5t39 -7t33.5 -15.5t24.5 -27.5t16.5 -42t4.5 -60t-7.5 -80.5q-10 -73 -63 -216l-55 -156l163 -1v-161h-395l164 559l-160 5q23 80 50 126q43 75 140 78z" />
    <glyph glyph-name="three" unicode="3" horiz-adv-x="411" 
d="M87 771h254l1 -774l-338 1l3 269l153 -4l-1 27h-122l1 201l128 -3v28l-79 2v253z" />
    <glyph glyph-name="four" unicode="4" horiz-adv-x="466" 
d="M396 -2l-193 2l1 101h-202l-1 520l151 5l5 -365l42 -3l7 502h185z" />
    <glyph glyph-name="five" unicode="5" horiz-adv-x="464" 
d="M243 1h-231v191l150 -1v17l-150 2v184v15v43v14v5v2v1v3v12l1 36l1 36v11v2v1v8v21v63v63v20v8h151q143 0 214 1v-170l-195 -1v-2v-3v-8v-1v-1v-4v-12v-1v-1v-2v-1v-1v-1v-1v-1v-1v-1v-1v-1v-1v-1v-1v-1h-1v-1v-1v-1v-1v-1v-1v-1v-1v-1v-1v-1v-1v-1v-1v-1v-1v-1v-1
q0 -27 -1 -36v-15v-5v-14v-42v-18h50q51 2 107 -54.5t55 -130.5q1 -76 -51 -142q-53 -65 -100 -64z" />
    <glyph glyph-name="six" unicode="6" horiz-adv-x="617" 
d="M168 756l204 -3l-124 -368l-50 -166l38 1l79 260q8 0 13 -1q30 -3 77 -23q58 -23 99.5 -74.5t43.5 -133.5q4 -113 -85 -187.5t-203 -68.5q-96 2 -158.5 55.5t-80.5 112.5q-21 65 -2 156l2 10l4 14q1 7 5 16q66 221 138 400z" />
    <glyph glyph-name="seven" unicode="7" horiz-adv-x="503" 
d="M-1 758l80 1l355 -1l-156 -757l-187 -1q88 412 118 581l-211 4z" />
    <glyph glyph-name="eight" unicode="8" horiz-adv-x="501" 
d="M255 230l-4 120l-50 -2q-1 -39 -1 -118h55zM6 360q-3 218 -3 242q0 57 59.5 117.5t143.5 60.5q83 0 153 -58.5t70 -111.5q0 -4 -2 -223q4 -188 4 -234q0 -57 -59.5 -118t-142.5 -61q-53 -1 -107.5 27.5t-87 69t-29.5 71.5q1 31 1 218zM197 532l2 -116l52 2l-4 116z" />
    <glyph glyph-name="nine" unicode="9" horiz-adv-x="622" 
d="M387 -5l-207 6l130 372l52 168l-38 -1l-83 -263q-1 0 -2.5 0.5t-3 0.5t-4 0.5t-4.5 0.5q-29 3 -78 23q-58 27 -95 71q-46 58 -47 143q-3 114 88 189t207 67q52 -2 96 -20t72.5 -45.5t46.5 -54.5t26 -53q20 -66 0 -158l-2 -11l-4 -14q-4 -9 -5 -16q-65 -211 -145 -405z
" />
    <glyph glyph-name="colon" unicode=":" horiz-adv-x="301" 
d="M146 511q32 3 55.5 -20.5t24.5 -57.5q0 -31 -24 -56t-52 -25t-56 20q-27 21 -28 58q-2 35 25 57q29 23 55 24zM152 149q32 3 55.5 -21t24.5 -58q0 -30 -24 -55t-52 -25t-56 20q-27 21 -28 58q-2 34 25 56q28 23 55 25z" />
    <glyph glyph-name="semicolon" unicode=";" horiz-adv-x="375" 
d="M226 375q32 3 56 -21t24 -57q0 -31 -24 -56t-51 -25q-32 0 -58 21.5t-27 56.5q-1 34 26 57t54 24zM21 -150l118 284l96 -39l-140 -277z" />
    <glyph glyph-name="less" unicode="&#x3c;" horiz-adv-x="632" 
d="M549 668l5 -208l-144 -94l149 -72l3 -208l-501 239v102z" />
    <glyph glyph-name="equal" unicode="=" horiz-adv-x="642" 
d="M50 419l3 187h512l8 -179zM55 169l-4 202l520 3l-6 -206z" />
    <glyph glyph-name="greater" unicode="&#x3e;" horiz-adv-x="632" 
d="M71 88l-3 208l145 93l-149 73l-1 208l500 -243l-2 -102z" />
    <glyph glyph-name="question" unicode="?" horiz-adv-x="618" 
d="M331 123q36 36 87 36t87 -36q37 -36 37 -87t-37 -87q-36 -37 -87 -37t-87 37q-36 36 -36 87t36 87zM546 189l-237 4q4 323 -4 367q-4 22 -10 -8l-5 -48l-3 -89l-274 5q-1 28 4.5 63t25.5 79.5t51.5 81t88.5 62.5t131 27q97 1 163 -55q66 -55 69 -125q4 -76 0 -364z" />
    <glyph glyph-name="A" unicode="A" horiz-adv-x="1049" 
d="M474 274l5 -265l-476 3l378 758l242 3l357 -764h-460l-7 267z" />
    <glyph glyph-name="B" unicode="B" horiz-adv-x="864" 
d="M2 492l-3 269q101 0 194 0.5t154 0.5t107.5 0.5t69.5 0.5h22q62 0 117 -50.5t55 -138.5q0 -58 -26.5 -101.5t-52.5 -61.5l-10 -7l5 -2q37 -12 56 -22q29 -14 49 -31q23 -20 39 -53t16 -70q-1 -145 -134 -203q-40 -18 -75 -21h-583v210h206l1 33l-206 1l-1 213h206l1 31z
" />
    <glyph glyph-name="C" unicode="C" horiz-adv-x="835" 
d="M3 382q-2 108 43.5 198.5t136.5 147.5t212 58q166 0 264 -87q36 -30 54 -54l18 -24q3 -4 8 -12l9 -14l4 -6l-335 -168l292 -93q30 -10 43.5 -15.5t12.5 -6.5q-3 -16 -11 -40.5t-25.5 -63.5t-46 -75.5t-66 -69.5t-93.5 -52t-121 -17q-182 5 -292 123q-102 111 -107 271z
" />
    <glyph glyph-name="D" unicode="D" horiz-adv-x="881" 
d="M0 421v341q321 1 546 1q58 2 124 -44q37 -26 70 -68q33 -41 53 -113.5t19 -160.5q-5 -146 -69 -240q-43 -64 -95 -99.5t-95 -37.5q-18 -1 -553 1l-2 392q278 -2 278 3v26z" />
    <glyph glyph-name="E" unicode="E" horiz-adv-x="812" 
d="M0 -1l1 763h566l-2 -253l-172 2l-1 -26l283 -2l-2 -202l-268 3l-1 -30l338 1v-255z" />
    <glyph glyph-name="F" unicode="F" horiz-adv-x="820" 
d="M387 -2l-386 1l2 765l747 -2v-289l-238 -1l1 -228h-127z" />
    <glyph glyph-name="G" unicode="G" horiz-adv-x="822" 
d="M11 391q1 86 39 157.5t97 116.5t129 69t139 23q112 -5 193 -60q51 -34 85 -72t43 -59l-321 -156l337 10l-4 -421l-340 -1q-67 0 -137.5 28.5t-129.5 77.5t-96 125t-34 162z" />
    <glyph glyph-name="H" unicode="H" horiz-adv-x="816" 
d="M2 -1l-1 763h351l-2 -290h34l4 290h358l1 -761l-361 -1l-1 294l-35 1l-2 -295z" />
    <glyph glyph-name="I" unicode="I" horiz-adv-x="444" 
d="M1 -3l-1 767l375 -1l-1 -766h-373z" />
    <glyph glyph-name="J" unicode="J" horiz-adv-x="854" 
d="M438 762h346q2 -406 -6 -513q-6 -94 -99 -172q-43 -37 -107.5 -58t-135.5 -20q-108 3 -191.5 40.5t-129 89.5t-73.5 116t-36 113.5t-5 88.5l401 2l2 -126l9 -75q6 -33 12 -5q13 53 13 519z" />
    <glyph glyph-name="K" unicode="K" horiz-adv-x="893" 
d="M7 3l-2 755l279 1v-188h36l2 188l460 1l-308 -382l349 -378l-502 1l3 187h-35l-4 -186z" />
    <glyph glyph-name="L" unicode="L" horiz-adv-x="732" 
d="M0 1v761l331 1l-5 -423l336 -1l-3 -341z" />
    <glyph glyph-name="M" unicode="M" horiz-adv-x="959" 
d="M294 1h-294v762l447 -177l443 179l-1 -767l-326 1l2 248l-28 1v-247l-216 -1l3 249h-27z" />
    <glyph glyph-name="N" unicode="N" horiz-adv-x="817" 
d="M269 0l-265 2v760l352 -354l-2 346l393 8l-2 -762l-442 1v233l-34 -2v-232z" />
    <glyph glyph-name="O" unicode="O" horiz-adv-x="850" 
d="M195 723q89 52 195 52t196 -52t142 -142q52 -88 52 -195t-52 -196q-54 -90 -142 -142q-89 -52 -196 -52q-106 0 -195 52q-88 52 -142 142q-52 89 -52 196q0 105 52 195t142 142z" />
    <glyph glyph-name="P" unicode="P" horiz-adv-x="841" 
d="M4 508v251l589 3q64 0 121.5 -62.5t57.5 -161.5q-2 -106 -51 -174q-49 -67 -110 -68l-218 -1v-293l-386 1l-5 473h176l1 31z" />
    <glyph glyph-name="Q" unicode="Q" horiz-adv-x="858" 
d="M410 785q70 -1 133.5 -28t104.5 -71q59 -58 92.5 -133t31.5 -123q3 -129 -69 -244l-8 -13l94 -115l-31 -66l-5 1l-68 2l-136 3q-95 2 -147 0q-33 0 -73 9.5t-85.5 29.5t-88.5 54t-78 77.5t-56.5 106t-22.5 134.5q-2 98 36.5 174t101.5 119t133.5 64t140.5 19z" />
    <glyph glyph-name="R" unicode="R" horiz-adv-x="839" 
d="M3 528l-1 232h589q63 -4 108 -60t44 -136q0 -38 -15 -72t-38 -54q-49 -42 -78 -49l-15 -5l173 -381l-403 -1l-1 195l-26 -1l-2 -195l-339 2l4 496h180l2 29h-182z" />
    <glyph glyph-name="S" unicode="S" horiz-adv-x="864" 
d="M435 784q119 0 200 -36q35 -15 64 -44q28 -26 47.5 -53.5t48.5 -78.5l-169 -93q12 -22 23 -45q42 -81 45 -183q3 -125 -90 -205.5t-219 -75.5q-75 1 -139 16.5t-107 40.5t-74.5 56.5t-47 62.5t-19.5 61l148 73q-7 16 -16 30l-29 59q-10 22 -21 70q-5 22 -3 102
q6 86 104 164q47 37 114 58.5t140 20.5z" />
    <glyph glyph-name="T" unicode="T" horiz-adv-x="789" 
d="M1 443l-2 317l721 1l-1 -321h-160l-6 -438h-394l-2 441h-156z" />
    <glyph glyph-name="U" unicode="U" horiz-adv-x="849" 
d="M3 722v38l377 1l-3 -298l34 -1l4 297l364 1q-1 -346 -5 -437q-1 -47 -28.5 -101.5t-73 -103.5t-115.5 -81.5t-148 -32.5q-75 -1 -153 29q-76 31 -131 76q-56 46 -90 98.5t-34 95.5v86q1 39 1 119q0 46 0.5 120t0.5 94z" />
    <glyph glyph-name="V" unicode="V" horiz-adv-x="870" 
d="M385 -7l-377 770l379 -3l3 -204l27 -1l2 205l381 1z" />
    <glyph glyph-name="W" unicode="W" horiz-adv-x="1184" 
d="M394 8l-364 756h352v-270h29v270l298 1l-1 -271l32 -1l1 273l374 -4l-377 -750l-168 237z" />
    <glyph glyph-name="X" unicode="X" horiz-adv-x="883" 
d="M205 425l-202 334l403 2l-2 -234l37 -1l-2 235l354 2l-173 -393l194 -369l-378 3l1 257l-32 1l-3 -260l-404 -1z" />
    <glyph glyph-name="Y" unicode="Y" horiz-adv-x="849" 
d="M192 400l-190 363l378 -2l-2 -272h35l4 271l363 2l-202 -365l-3 -396l-376 1z" />
    <glyph glyph-name="Z" unicode="Z" horiz-adv-x="860" 
d="M-1 404l-1 357l779 -2l-198 -352h212l-7 -411l-784 4l248 405z" />
    <glyph glyph-name="bracketleft" unicode="[" horiz-adv-x="358" 
d="M-90 932l301 1l77 -1l1 -268l-136 6q0 -11 -0.5 -49t-1 -114t-0.5 -154q0 -74 -0.5 -155.5t-1 -125t-0.5 -62.5l125 -3l-1 -224l-363 8v1141z" />
    <glyph glyph-name="backslash" unicode="\" horiz-adv-x="707" 
d="M444 -204l-442 985l180 88l456 -979z" />
    <glyph glyph-name="bracketright" unicode="]" horiz-adv-x="464" 
d="M17 924l86 1l288 3l4 -1154l-362 1l-1 224l140 3q0 144 1 325q0 75 0.5 152.5t1 118t0.5 56.5l-159 2z" />
    <glyph glyph-name="asciicircum" unicode="^" horiz-adv-x="617" 
d="M264 397l-243 -4l187 363l150 -1l190 -362l-233 8l-30 174z" />
    <glyph glyph-name="underscore" unicode="_" horiz-adv-x="637" 
d="M-2 -178l6 165l559 -1l4 -166z" />
    <glyph glyph-name="grave" unicode="`" horiz-adv-x="402" 
d="M235 492l-179 150l148 115l129 -180z" />
    <glyph glyph-name="a" unicode="a" horiz-adv-x="694" 
d="M303 169l3 -169l-303 2l240 482l154 2l227 -486h-292l-5 169h-24z" />
    <glyph glyph-name="b" unicode="b" 
d="M3 314l-1 169q343 2 344 2q38 0 73 -32t35 -87q0 -37 -16.5 -64.5t-33.5 -38.5l-6 -4l3 -2q13 -3 35 -14q66 -29 66 -97q-2 -98 -95 -132q-21 -8 -37 -9h-367v133h130l1 21h-130l-1 134h130l1 20z" />
    <glyph glyph-name="c" unicode="c" horiz-adv-x="563" 
d="M6 242q-1 106 67 182q69 76 184 76q148 0 223 -118l5 -8l-214 -107l223 -73q-8 -40 -34 -86q-28 -52 -77.5 -85.5t-121.5 -32.5q-115 3 -184 76q-70 74 -71 176z" />
    <glyph glyph-name="d" unicode="d" horiz-adv-x="575" 
d="M-1 264v212q201 1 340 1q20 0 45 -10.5t54.5 -34.5t48.5 -75t18 -120q-2 -113 -62 -177q-53 -57 -99 -59h-116h-153q-49 1 -76 1l-1 245q172 -1 174 1v17z" />
    <glyph glyph-name="e" unicode="e" horiz-adv-x="530" 
d="M2 3v471h350l-1 -156l-106 1l-1 -16l175 -1l-1 -125l-166 2v-19l208 1v-157z" />
    <glyph glyph-name="f" unicode="f" horiz-adv-x="537" 
d="M241 3l-240 1l1 475h465v-181h-148v-142h-79z" />
    <glyph glyph-name="g" unicode="g" horiz-adv-x="548" 
d="M-3 256q4 108 85.5 173.5t177.5 63.5q42 -1 81.5 -17t66.5 -39q46 -38 60 -68l-208 -101l218 6l-3 -273h-220q-59 -1 -118 29.5t-100 91t-40 134.5z" />
    <glyph glyph-name="h" unicode="h" horiz-adv-x="541" 
d="M3 -1v480h220l-1 -183h21l3 182l225 1v-478l-226 -1l-1 185h-22l-1 -185z" />
    <glyph glyph-name="i" unicode="i" horiz-adv-x="306" 
d="M2 1l-1 481l235 -1v-480h-234z" />
    <glyph glyph-name="j" unicode="j" horiz-adv-x="570" 
d="M279 405l1 75h221q1 -247 -4 -328q-5 -63 -66 -112q-60 -49 -153 -47q-69 2 -122 25.5t-82 57t-47 74t-23 72.5t-3 57l256 1l1 -80l7 -54q3 -13 6 2q5 16 6 99q2 110 2 158z" />
    <glyph glyph-name="k" unicode="k" horiz-adv-x="587" 
d="M3 2l-1 475h176l-1 -118h23l1 119h290l-194 -240l220 -238h-316l2 118h-23l-2 -117z" />
    <glyph glyph-name="l" unicode="l" horiz-adv-x="491" 
d="M2 0v483h209l-3 -268l213 -1l-2 -216z" />
    <glyph glyph-name="m" unicode="m" horiz-adv-x="633" 
d="M187 3h-186v482l283 -112l280 113l-1 -485l-206 1l2 156l-18 1v-156l-137 -1l2 158h-17z" />
    <glyph glyph-name="n" unicode="n" horiz-adv-x="541" 
d="M168 1l-169 1v482l224 -235l-2 236l251 -1l-2 -483h-281v148l-21 -1v-147z" />
    <glyph glyph-name="o" unicode="o" 
d="M71 420q74 74 178 74q105 0 179 -74t74 -179q0 -104 -74 -178t-179 -74q-104 0 -178 74t-74 178q0 105 74 179z" />
    <glyph glyph-name="p" unicode="p" horiz-adv-x="555" 
d="M1 323v158l371 2q40 0 77 -40q38 -39 36 -101q0 -67 -32 -111q-31 -42 -69 -42l-138 -1v-185l-244 1l-3 298l111 1l1 19z" />
    <glyph glyph-name="q" unicode="q" horiz-adv-x="565" 
d="M259 491q55 -1 101 -27t72 -63t39.5 -72.5t13.5 -60.5q1 -81 -47 -157l-1 -3l58 -72l-19 -41l-3 1l-220 3q-32 -1 -72 13.5t-81 43t-69.5 81.5t-29.5 118q-1 62 23 109.5t63.5 74t83.5 39.5t88 13z" />
    <glyph glyph-name="r" unicode="r" horiz-adv-x="559" 
d="M1 336l-1 146q338 3 374 -2q45 -8 70.5 -40.5t23.5 -75.5q-2 -46 -28 -75t-52 -41l-9 -3l111 -243l-257 -1l-1 124h-16l-1 -124l-216 1l2 316h115l1 18h-116z" />
    <glyph glyph-name="s" unicode="s" horiz-adv-x="553" 
d="M264 492q98 -1 143 -35q24 -18 40.5 -38t35.5 -56l-103 -57l12 -20q8 -12 18 -49q12 -36 12 -69q1 -78 -55 -125q-57 -47 -133 -46q-107 0 -168.5 46.5t-66.5 97.5l90 44l-16 30l-17 34q-14 45 -9 95q5 55 66 101q64 47 151 47z" />
    <glyph glyph-name="t" unicode="t" horiz-adv-x="521" 
d="M0 284l-1 199l451 -2l1 -199h-99l-6 -279l-246 -1l-2 282h-98z" />
    <glyph glyph-name="u" unicode="u" horiz-adv-x="568" 
d="M1 458v24h243l-2 -191l19 1v192l232 -1q1 -66 2.5 -139.5t2 -104t0.5 -38.5q2 -63 -65 -135q-30 -33 -76 -54t-96 -21q-47 0 -96 19.5t-86 49.5q-79 67 -79 128v132q1 53 1 138z" />
    <glyph glyph-name="v" unicode="v" horiz-adv-x="578" 
d="M247 -9l-247 493l249 -2l2 -128h17v128h240z" />
    <glyph glyph-name="w" unicode="w" horiz-adv-x="757" 
d="M230 -4l-231 484h220v-169h18v169h187l-1 -169h20v170l244 2l-245 -482l-106 157z" />
    <glyph glyph-name="x" unicode="x" horiz-adv-x="585" 
d="M133 267l-126 210l253 1l-2 -147h24l-2 147l222 1l-109 -247l122 -231l-237 2l1 162h-20l-2 -163l-253 -1z" />
    <glyph glyph-name="y" unicode="y" horiz-adv-x="557" 
d="M121 253l-119 227l236 -2l-2 -169h22l3 169l226 1l-126 -228l-2 -247h-234z" />
    <glyph glyph-name="z" unicode="z" 
d="M1 253l1 228l490 -1l-124 -222h133l-8 -253l-489 -3l173 250z" />
    <glyph glyph-name="braceleft" unicode="{" horiz-adv-x="433" 
d="M364 -191l-192 -46l-1 1q-1 0 -4 2t-7 5.5t-9 11l-11.5 17.5t-14 25t-15.5 34q-13 28 -17 156q-4 125 -11 163q-6 39 -22 72q-9 21 -18.5 37.5t-14.5 23t-6 6.5q50 128 68 189q23 75 33 231q8 91 44 161l-4 12q-1 1 -1 2l5 -14l14 22l174 -92q0 -1 -11 -15
q-35 -38 -76 -116q-11 -24 -16 -120q-4 -93 -12 -119t-22 -59q-14 -30 -26 -53l-11 -20q3 3 19.5 -11.5t33.5 -55t17 -95.5q0 -29 -7 -104q-6 -57 5 -93q31 -90 112 -155zM161 912q-1 1 -1 4q0 -2 1 -4z" />
    <glyph glyph-name="bar" unicode="|" horiz-adv-x="455" 
d="M183 -198v1032l201 -4l2 -1024z" />
    <glyph glyph-name="braceright" unicode="}" horiz-adv-x="442" 
d="M161 911l62 15l2 -1q2 -1 8 -6.5t13 -14.5t17.5 -28.5t21.5 -45.5t16 -156q4 -125 11 -163q13 -78 49 -123l12 -16q-50 -128 -68 -189q-24 -79 -34 -230q-5 -65 -22.5 -113t-32.5 -67l-3 -4l-174 93q0 1 4 5l7 9q39 44 76 117q11 24 16 119q4 93 12 119q17 55 49 112
l11 21q-1 -2 -8.5 2.5t-18 17t-20 30.5t-16.5 47.5t-7 63.5q1 36 8 104q6 59 -6 93q-14 45 -43 85t-51 57l-21 17z" />
    <glyph glyph-name="asciitilde" unicode="~" horiz-adv-x="619" 
d="M272 719q-20 -1 -36.5 -12.5t-22.5 -24.5l-5 -11l-68 53q8 13 24 33q48 59 95 59q34 -1 80 -23q48 -20 60 -19q30 0 72 33l13 11l66 -48q-15 -25 -23 -35q-50 -65 -123 -63q-32 0 -76 23q-44 24 -56 24z" />
    <glyph glyph-name="exclamdown" unicode="&#xa1;" horiz-adv-x="290" 
d="M16 647l199 -2l6 -736l-222 -6zM116 683q-38 1 -69 30q-30 29 -30 68q0 35 29 67q30 32 64 33q36 0 70 -26q35 -26 36 -71q2 -44 -30 -73q-33 -29 -70 -28z" />
    <glyph glyph-name="cent" unicode="&#xa2;" horiz-adv-x="835" 
d="M3 382q-2 138 71 243q73 108 203 145v80h173v-67q129 -12 206 -80q41 -36 55 -56q10 -12 33 -45l8 -13l-335 -168l292 -93q30 -10 43.5 -15.5t12.5 -6.5q-3 -19 -12.5 -48t-34 -75t-58 -85t-89.5 -70.5t-123 -38.5v-79h-173v99q-126 41 -197 142q-72 103 -75 231z" />
    <glyph glyph-name="currency" unicode="&#xa4;" horiz-adv-x="725" 
d="M395 508q-37 37 -89 37t-89 -37q-36 -38 -36 -89t36 -89q38 -36 89 -36q52 0 89 36q37 37 37 89t-37 89zM91 73l-144 139l71 73l2 2l30 29q-21 50 -21 103q0 56 23 110l-3 3l-26 24l-9 8l-1 1l-4 3l-8 7l-27 23l-2 1l-1 2l-2 1l-1 1l-1 1l-1 1l-1 1l-1 1l-1 1h-1l-1 1
l-1 1l-1 1h-1v1l-1 1h-1l-1 1l-1 1l-1 1l-1 1l-1 1h-1l-1 1l-2 2l-1 1l-2 1l-1 1l-1 1l-1 1l-1 1l-2 1l-2 2l-1 1l130 152l3 -2l9 -8l1 -1l1 -1l1 -1l2 -1l1 -1l1 -1l1 -1l1 -1h1l1 -1v-1h1l1 -1l1 -1l1 -1h1v-1l1 -1h1l1 -1l1 -1l1 -1l1 -1l1 -1h1l1 -1l1 -2l2 -1l1 -1
l2 -1l1 -1l1 -2l2 -1h1l1 -1l1 -1l1 -1l1 -1l1 -1l1 -1h1l1 -1v-1h1l1 -1l1 -1h1v-1l1 -1l1 -1l1 -1l2 -1l9 -8l3 -2l2 -2l4 -3l8 -8l2 -1l1 -1l1 -1l1 -1l1 -1l1 -1l1 -1l1 -1h1v-1l1 -1h1l1 -1v-1h1l1 -1v-1h1l1 -1l1 -1l1 -1l1 -1l1 -1h1l1 -1l1 -1l1 -1l1 -1l1 -1l10 -9
q54 24 113 24q50 0 92 -16l20 20l8 9q3 1 3 3l2 2h1v1h1l1 2l9 8l25 25l26 24l8 9q3 1 3 3l140 -144q-1 0 -12 -11l-25 -25l-26 -24l-8 -9q-1 0 -1 -1q-1 0 -12 -11l-11 -12q33 -60 33 -130q0 -65 -28 -121l9 -8l2 -1l1 -1l1 -1l1 -1l1 -1h1l1 -1l1 -1q3 -1 3 -3l2 -2
q1 0 12 -11l27 -23l26 -24l9 -8q3 -2 3 -3l-133 -149l-4 3l-8 8l-27 24l-1 1l-2 2l-1 1l-2 1l-1 1l-1 1l-1 1l-1 1l-1 1l-1 1l-1 1h-1v1l-1 1l-1 1h-1l-1 1v1h-1l-1 1l-1 1l-1 1h-1l-1 1l-1 1l-1 2l-9 7v1l-1 1h-1l-1 1l-1 1l-9 8l-2 1l-1 1l-1 1l-1 1l-1 1l-1 1h-1l-1 1
l-1 1l-1 1l-1 1h-1v1l-1 1h-1v1h-1l-1 1l-1 1l-1 1l-1 1h-1l-1 1l-1 1l-1 1v1h-1l-2 2l-1 1q-47 -19 -101 -19q-63 0 -120 27l-24 -24z" />
    <glyph glyph-name="yen" unicode="&#xa5;" horiz-adv-x="846" 
d="M120 539l-118 224l378 -2l-2 -222h35l4 221l360 -3l-121 -218h51l-1 -136q-84 0 -126 -1q-1 -1 -1 -2q-1 -2 -1 -3q1 -15 1 -44h128l-1 -132l-122 -1l8 -219l-401 4q1 71 1 213l-147 -1l1 136h146v47h-147l1 139h74z" />
    <glyph glyph-name="brokenbar" unicode="&#xa6;" horiz-adv-x="446" 
d="M221 358v396l154 1l1 -396zM214 -197v396l154 1l1 -396z" />
    <glyph glyph-name="section" unicode="&#xa7;" horiz-adv-x="668" 
d="M320 830q120 4 179 -34q31 -20 51 -43.5t48 -68.5l-123 -77q5 -6 15 -23q8 -13 25 -60q17 -45 20 -85q3 -43 -11 -83l7 -6q-16 -18 -23 -27q-17 -28 -41 -49l-30 -35l22 -18q16 -12 43 -48q30 -37 45 -75q36 -90 -7 -169t-134 -113q-133 -49 -225 -18q-84 26 -110 80
l84 91l-32 28l-35 32q-33 41 -53 104q-21 70 36 153q-50 44 -57 94l108 60q-1 3 -4 7.5l-8.5 13t-9.5 15.5q-14 25 -22 42q-19 46 -18 116q2 68 76 130q73 61 184 66z" />
    <glyph glyph-name="dieresis" unicode="&#xa8;" horiz-adv-x="539" 
d="M179 703q31 3 55 -21t24 -58q0 -30 -24 -55t-51 -25q-28 0 -57 20q-26 19 -28 58q-2 33 26 56q26 23 55 25zM390 703q31 3 55 -21t24 -58q0 -30 -24 -55t-51 -25q-28 0 -57 20q-26 19 -28 58q-2 33 26 56q26 23 55 25z" />
    <glyph glyph-name="copyright" unicode="&#xa9;" horiz-adv-x="953" 
d="M584 515q-59 59 -141 59q-83 0 -142 -59q-58 -58 -58 -142q0 -83 58 -141t142 -58q83 0 141 58q59 59 59 141q0 83 -59 142zM271 779q82 35 172 35t171 -35q163 -67 235 -234q35 -82 35 -171.5t-35 -171.5q-71 -163 -235 -234q-81 -35 -171 -35t-172 35q-163 71 -234 234
q-35 82 -35 171.5t35 171.5q72 166 234 234zM312 379q-2 60 35 99q37 42 101 42q28 0 50 -6.5t38 -21t20 -18.5t14 -18l3 -5l-117 -59l122 -39q-3 -12 -9 -26t-19.5 -37t-39.5 -36.5t-59 -12.5q-62 2 -100 41.5t-39 96.5z" />
    <glyph glyph-name="ordfeminine" unicode="&#xaa;" horiz-adv-x="447" 
d="M194 549l2 -112l-155 -1l162 332l174 -331h-163l-4 112h-16z" />
    <glyph glyph-name="guillemotleft" unicode="&#xab;" horiz-adv-x="640" 
d="M571 436l-7 -137l-98 -55l94 -54l-7 -137l-263 170l-2 54zM291 452l-7 -137l-98 -55l95 -54l-8 -137l-262 170l-3 53z" />
    <glyph glyph-name="logicalnot" unicode="&#xac;" horiz-adv-x="649" 
d="M3 153l6 166h569l2 -170h-2v-35q1 -28 1 -77v-26v-7v-3h-200v2v7v26q0 49 -1 78v37z" />
    <glyph glyph-name="registered" unicode="&#xae;" horiz-adv-x="953" 
d="M584 515q-59 59 -141 59q-83 0 -142 -59q-58 -58 -58 -142q0 -83 58 -141t142 -58q83 0 141 58q59 59 59 141q0 83 -59 142zM271 779q82 35 172 35t171 -35q163 -67 235 -234q35 -82 35 -171.5t-35 -171.5q-71 -163 -235 -234q-81 -35 -171 -35t-172 35q-163 71 -234 234
q-35 82 -35 171.5t35 171.5q72 166 234 234zM323 423v77h196q21 -1 36 -20t14 -46q0 -20 -11.5 -35.5t-24.5 -19.5l-12 -4l57 -127h-133l-1 64h-8l-1 -65l-113 1l1 165h60l1 10h-61z" />
    <glyph glyph-name="overscore" unicode="&#xaf;" horiz-adv-x="692" 
d="M53 523l6 166l559 -2l4 -165z" />
    <glyph glyph-name="degree" unicode="&#xb0;" horiz-adv-x="578" 
d="M380 669q-25 26 -60 26t-60 -26q-25 -25 -25 -60t25 -60t60 -25t60 25q26 25 26 60t-26 60zM187 742q55 55 133 55t133 -55t55 -133t-55 -133t-133 -55t-133 55t-55 133t55 133z" />
    <glyph glyph-name="plusminus" unicode="&#xb1;" horiz-adv-x="655" 
d="M16 -16l6 166l559 -2l4 -165zM200 503l-4 160h216l-6 -160l133 -6l-5 -163l-130 4l-9 -165l-208 1l3 167l-177 4l5 159z" />
    <glyph glyph-name="uni00B2" unicode="&#xb2;" horiz-adv-x="363" 
d="M179 753q56 0 78.5 -24.5t9.5 -107.5q-6 -40 -35 -123q-30 -85 -31 -88h92v-92h-224l93 316l-91 3q20 62 41 88q21 27 67 28z" />
    <glyph glyph-name="uni00B3" unicode="&#xb3;" horiz-adv-x="333" 
d="M116 764h147v-446l-194 1l2 155l87 -3v16h-70v116l74 -2v16l-45 1z" />
    <glyph glyph-name="acute" unicode="&#xb4;" horiz-adv-x="545" 
d="M187 538l147 275l141 -98l-197 -236z" />
    <glyph glyph-name="middot" unicode="&#xb7;" horiz-adv-x="296" 
d="M147 451q32 3 56 -21t24 -58q0 -30 -24 -55t-51 -25q-32 0 -58 21.5t-27 56.5q-1 34 26 57t54 24z" />
    <glyph glyph-name="cedilla" unicode="&#xb8;" horiz-adv-x="479" 
d="M196 -246l118 284l96 -39l-140 -277z" />
    <glyph glyph-name="uni00B9" unicode="&#xb9;" horiz-adv-x="337" 
d="M101 741h48l119 1v-401l-120 1l1 308h-48q1 0 1 68z" />
    <glyph glyph-name="ordmasculine" unicode="&#xba;" horiz-adv-x="461" 
d="M263 653q-25 25 -60.5 25t-60.5 -25t-25 -60.5t25 -60.5t60.5 -25t60.5 25t25 60.5t-25 60.5zM70 726q55 55 133 55t133 -55t55 -133q0 -79 -55 -134t-133 -55t-133 55t-55 134q0 78 55 133z" />
    <glyph glyph-name="guillemotright" unicode="&#xbb;" horiz-adv-x="659" 
d="M20 67l-2 142l98 63l-101 49v141l281 -158l5 -55zM309 68l-2 141l98 64l-101 49v141l280 -158l6 -55z" />
    <glyph glyph-name="onequarter" unicode="&#xbc;" horiz-adv-x="933" 
d="M101 741h48l119 1v-401l-120 1l1 308h-48q1 0 1 68zM197 65l386 711l124 -82l-382 -696zM864 -16l-117 2l1 60h-122l-1 314l91 4l4 -221l25 -2l4 303h112z" />
    <glyph glyph-name="onehalf" unicode="&#xbd;" horiz-adv-x="920" 
d="M197 65l386 711l124 -82l-382 -696zM101 741h48l119 1v-401l-120 1l1 308h-48q1 0 1 68zM736 435q17 0 29 -1.5t25.5 -6t20 -13t13 -23.5t5 -36.5t-4.5 -51.5q-6 -42 -36 -123q-30 -85 -31 -88h93v-92h-224l93 316l-91 3q20 65 42 90t66 26z" />
    <glyph glyph-name="threequarters" unicode="&#xbe;" horiz-adv-x="933" 
d="M864 -16l-117 2l1 60h-122l-1 314l91 4l4 -221l25 -2l4 303h112zM197 65l386 711l124 -82l-382 -696zM105 771h148l1 -450l-197 1l2 156l89 -3v16h-71v117l74 -1v16l-45 1z" />
    <glyph glyph-name="questiondown" unicode="&#xbf;" horiz-adv-x="447" 
d="M229 612q-37 -37 -87 -37q-51 -1 -87 35q-38 35 -38 86q0 52 36 88q35 36 87 38q51 0 87 -36q37 -37 37 -87q0 -52 -35 -87zM252 542q-1 -318 8 -367q4 -22 10 8l4 48l2 89l274 -2q2 -27 -3.5 -62t-24.5 -80t-50 -82t-88 -63.5t-131 -28.5q-96 -3 -164 53q-66 55 -70 124
q-6 70 -4 364z" />
    <glyph glyph-name="Agrave" unicode="&#xc0;" horiz-adv-x="1049" 
d="M474 274l5 -265l-476 3l378 758l242 3l357 -764h-460l-7 267zM495 808l-219 162l103 110l178 -201z" />
    <glyph glyph-name="Aacute" unicode="&#xc1;" horiz-adv-x="1049" 
d="M474 274l5 -265l-476 3l378 758l242 3l357 -764h-460l-7 267zM413 886l179 206l102 -111l-214 -162z" />
    <glyph glyph-name="Acircumflex" unicode="&#xc2;" horiz-adv-x="1049" 
d="M474 274l5 -265l-476 3l378 758l242 3l357 -764h-460l-7 267zM477 816l-137 -2l106 204l84 -1l107 -203l-131 4l-17 98z" />
    <glyph glyph-name="Atilde" unicode="&#xc3;" horiz-adv-x="1049" 
d="M474 274l5 -265l-476 3l378 758l242 3l357 -764h-460l-7 267zM405 869q-19 -1 -35.5 -12t-23.5 -24l-5 -12l-67 54q1 1 3.5 5l7 11t12.5 16q16 18 27.5 29t30.5 21t38 9q32 -1 80 -23q48 -20 60 -19q28 0 71 33l14 11l66 -48q-9 -15 -23 -34q-49 -64 -123 -64
q-33 2 -76 24q-44 23 -57 23z" />
    <glyph glyph-name="Adieresis" unicode="&#xc4;" horiz-adv-x="1049" 
d="M474 274l5 -265l-476 3l378 758l242 3l357 -764h-460l-7 267zM537 954q24 24 57.5 24t56.5 -24q24 -24 24 -57.5t-24 -57.5q-23 -23 -56.5 -23t-57.5 23q-24 24 -24 57.5t24 57.5zM351 957q24 24 57.5 24t57.5 -24q24 -23 24 -57t-24 -58q-24 -23 -57.5 -23t-57.5 23
q-23 24 -23 58t23 57z" />
    <glyph glyph-name="Aring" unicode="&#xc5;" horiz-adv-x="1049" 
d="M528 963q-16 16 -38.5 16t-39.5 -16q-16 -16 -16 -38.5t16 -38.5q17 -16 39.5 -16t38.5 16t16 38.5t-16 38.5zM404 1009q34 36 85 36t85 -36q36 -35 36 -85q0 -49 -36 -85q-35 -35 -85 -35t-85 35q-35 37 -35 85q0 50 35 85zM474 274l5 -265l-476 3l378 758l242 3
l357 -764h-460l-7 267z" />
    <glyph glyph-name="AE" unicode="&#xc6;" horiz-adv-x="1114" 
d="M361 264l4 -265l-367 -1l383 786l2 -2l482 7l2 -281l-171 2l-1 -26l282 -2l-1 -202l-269 3v-30l338 1l-1 -255h-582h-55l-8 267z" />
    <glyph glyph-name="Ccedilla" unicode="&#xc7;" horiz-adv-x="835" 
d="M3 382q-2 108 43.5 198.5t136.5 147.5t212 58q166 0 264 -87q36 -30 54 -54l18 -24q3 -4 8 -12l9 -14l4 -6l-335 -168l292 -93q30 -10 43.5 -15.5t12.5 -6.5q-3 -16 -11 -40.5t-25.5 -63.5t-46 -75.5t-66 -69.5t-93.5 -52t-121 -17q-182 5 -292 123q-102 111 -107 271z
" />
    <glyph glyph-name="Egrave" unicode="&#xc8;" horiz-adv-x="812" 
d="M0 -1l1 763h566l-2 -253l-172 2l-1 -26l283 -2l-2 -202l-268 3l-1 -30l338 1v-255zM349 797l-218 162l102 110l179 -201z" />
    <glyph glyph-name="Eacute" unicode="&#xc9;" horiz-adv-x="812" 
d="M0 -1l1 763h566l-2 -253l-172 2l-1 -26l283 -2l-2 -202l-268 3l-1 -30l338 1v-255zM215 865l179 206l101 -111l-213 -162z" />
    <glyph glyph-name="Ecircumflex" unicode="&#xca;" horiz-adv-x="812" 
d="M0 -1l1 763h566l-2 -253l-172 2l-1 -26l283 -2l-2 -202l-268 3l-1 -30l338 1v-255zM267 799l-137 -2l106 204h84l107 -204l-131 5l-17 98z" />
    <glyph glyph-name="Edieresis" unicode="&#xcb;" horiz-adv-x="812" 
d="M0 -1l1 763h566l-2 -253l-172 2l-1 -26l283 -2l-2 -202l-268 3l-1 -30l338 1v-255zM131 955q24 24 57.5 24t56.5 -24q24 -23 24 -56.5t-24 -57.5q-23 -24 -56.5 -24t-57.5 24t-24 57.5t24 56.5zM360 953q24 24 57.5 24t56.5 -24q24 -24 24 -57.5t-24 -57.5
q-23 -23 -56.5 -23t-57.5 23q-24 24 -24 57.5t24 57.5z" />
    <glyph glyph-name="Igrave" unicode="&#xcc;" horiz-adv-x="444" 
d="M1 -3l-1 767l375 -1l-1 -766h-373zM165 799l-219 162l103 110l178 -200z" />
    <glyph glyph-name="Iacute" unicode="&#xcd;" horiz-adv-x="444" 
d="M1 -3l-1 767l375 -1l-1 -766h-373zM84 860l178 206l102 -111l-213 -163z" />
    <glyph glyph-name="Icircumflex" unicode="&#xce;" horiz-adv-x="444" 
d="M1 -3l-1 767l375 -1l-1 -766h-373zM180 796l-137 -2l105 204h85l107 -204l-132 5l-16 98z" />
    <glyph glyph-name="Idieresis" unicode="&#xcf;" horiz-adv-x="452" 
d="M1 -3l-1 767l375 -1l-1 -766h-373zM25 951q24 24 57.5 24t56.5 -24q24 -23 24 -56.5t-24 -57.5q-23 -24 -56.5 -24t-57.5 24t-24 57.5t24 56.5zM244 944q24 24 57.5 24t56.5 -24q24 -24 24 -57.5t-24 -57.5q-23 -23 -56.5 -23t-57.5 23q-24 24 -24 57.5t24 57.5z" />
    <glyph glyph-name="Eth" unicode="&#xd0;" horiz-adv-x="881" 
d="M0 421v341q321 1 546 1q58 2 124 -44q37 -26 70 -68q33 -41 53 -113.5t19 -160.5q-5 -146 -69 -240q-43 -64 -95 -99.5t-95 -37.5q-18 -1 -553 1l-2 392q278 -2 278 3v26z" />
    <glyph glyph-name="Ntilde" unicode="&#xd1;" horiz-adv-x="817" 
d="M259 859q-20 -1 -36.5 -12t-22.5 -24l-5 -12l-68 54q0 1 3 5l8 11t13 16q50 61 95 59q32 -1 80 -22q48 -20 60 -20q29 0 72 34l13 10l66 -47q-6 -15 -23 -35q-49 -64 -123 -64q-33 2 -76 24q-44 23 -56 23zM269 0l-265 2v760l352 -354l-2 346l393 8l-2 -762l-442 1v233
l-34 -2v-232z" />
    <glyph glyph-name="Ograve" unicode="&#xd2;" horiz-adv-x="850" 
d="M195 723q89 52 195 52t196 -52t142 -142q52 -88 52 -195t-52 -196q-54 -90 -142 -142q-89 -52 -196 -52q-106 0 -195 52q-88 52 -142 142q-52 89 -52 196q0 105 52 195t142 142zM480 801l-218 162l103 110l178 -200z" />
    <glyph glyph-name="Oacute" unicode="&#xd3;" horiz-adv-x="850" 
d="M195 723q89 52 195 52t196 -52t142 -142q52 -88 52 -195t-52 -196q-54 -90 -142 -142q-89 -52 -196 -52q-106 0 -195 52q-88 52 -142 142q-52 89 -52 196q0 105 52 195t142 142zM357 872l179 206l102 -111l-214 -163z" />
    <glyph glyph-name="Ocircumflex" unicode="&#xd4;" horiz-adv-x="850" 
d="M195 723q89 52 195 52t196 -52t142 -142q52 -88 52 -195t-52 -196q-54 -90 -142 -142q-89 -52 -196 -52q-106 0 -195 52q-88 52 -142 142q-52 89 -52 196q0 105 52 195t142 142zM375 813l-137 -2l105 205l85 -1l107 -204l-132 5l-16 98z" />
    <glyph glyph-name="Otilde" unicode="&#xd5;" horiz-adv-x="850" 
d="M195 723q89 52 195 52t196 -52t142 -142q52 -88 52 -195t-52 -196q-54 -90 -142 -142q-89 -52 -196 -52q-106 0 -195 52q-88 52 -142 142q-52 89 -52 196q0 105 52 195t142 142zM334 881q-20 -1 -36.5 -12.5t-22.5 -24.5l-5 -11l-68 53q8 13 24 33q48 59 95 59
q34 -1 80 -23q48 -20 60 -19q30 0 72 33l13 11l66 -48q-15 -25 -23 -35q-50 -65 -123 -63q-32 0 -76 23q-44 24 -56 24z" />
    <glyph glyph-name="Odieresis" unicode="&#xd6;" horiz-adv-x="850" 
d="M195 723q89 52 195 52t196 -52t142 -142q52 -88 52 -195t-52 -196q-54 -90 -142 -142q-89 -52 -196 -52q-106 0 -195 52q-88 52 -142 142q-52 89 -52 196q0 105 52 195t142 142zM214 950q24 24 57.5 24t57.5 -24q24 -23 24 -56.5t-24 -57.5t-57.5 -24t-57.5 24
q-23 24 -23 57.5t23 56.5zM432 954q24 24 57.5 24t56.5 -24q24 -24 24 -57.5t-24 -57.5q-23 -23 -56.5 -23t-57.5 23q-24 24 -24 57.5t24 57.5z" />
    <glyph glyph-name="multiply" unicode="&#xd7;" horiz-adv-x="581" 
d="M196 406l-105 174l209 1l-1 -122h19l-1 121l184 1l-90 -204l101 -191l-197 1l1 134h-17l-1 -135h-210z" />
    <glyph glyph-name="Oslash" unicode="&#xd8;" horiz-adv-x="948" 
d="M258 346l213 221q-15 4 -35 4q-76 0 -130 -54q-53 -53 -53 -128q0 -20 5 -43zM608 447l-218 -235q22 -6 46 -6q75 0 128 53q54 54 54 130q0 31 -10 58zM634 738l119 123l125 -124l-112 -120q71 -104 71 -228q2 -107 -52.5 -201t-148 -148.5t-200.5 -52.5q-109 0 -204 56
l-81 -87l-144 128l88 92q-61 97 -61 213q-2 106 52.5 200t149 148.5t200.5 52.5q107 0 198 -52z" />
    <glyph glyph-name="Ugrave" unicode="&#xd9;" horiz-adv-x="849" 
d="M3 722v38l377 1l-3 -298l34 -1l4 297l364 1q-1 -346 -5 -437q-1 -47 -28.5 -101.5t-73 -103.5t-115.5 -81.5t-148 -32.5q-75 -1 -153 29q-76 31 -131 76q-56 46 -90 98.5t-34 95.5v86q1 39 1 119q0 46 0.5 120t0.5 94zM409 797l-219 162l103 110l179 -201z" />
    <glyph glyph-name="Uacute" unicode="&#xda;" horiz-adv-x="849" 
d="M3 722v38l377 1l-3 -298l34 -1l4 297l364 1q-1 -346 -5 -437q-1 -47 -28.5 -101.5t-73 -103.5t-115.5 -81.5t-148 -32.5q-75 -1 -153 29q-76 31 -131 76q-56 46 -90 98.5t-34 95.5v86q1 39 1 119q0 46 0.5 120t0.5 94zM293 870l179 205l102 -111l-214 -162z" />
    <glyph glyph-name="Ucircumflex" unicode="&#xdb;" horiz-adv-x="849" 
d="M3 722v38l377 1l-3 -298l34 -1l4 297l364 1q-1 -346 -5 -437q-1 -47 -28.5 -101.5t-73 -103.5t-115.5 -81.5t-148 -32.5q-75 -1 -153 29q-76 31 -131 76q-56 46 -90 98.5t-34 95.5v86q1 39 1 119q0 46 0.5 120t0.5 94zM390 799l-137 -2l105 204h84l107 -204l-131 5
l-17 98z" />
    <glyph glyph-name="Udieresis" unicode="&#xdc;" horiz-adv-x="849" 
d="M3 722v38l377 1l-3 -298l34 -1l4 297l364 1q-1 -346 -5 -437q-1 -47 -28.5 -101.5t-73 -103.5t-115.5 -81.5t-148 -32.5q-75 -1 -153 29q-76 31 -131 76q-56 46 -90 98.5t-34 95.5v86q1 39 1 119q0 46 0.5 120t0.5 94zM465 947q24 24 57.5 24t57.5 -24q24 -23 24 -57
t-24 -58q-24 -23 -57.5 -23t-57.5 23q-23 24 -23 58t23 57zM236 942q24 24 57.5 24t57.5 -24q24 -23 24 -57t-24 -58q-24 -23 -57.5 -23t-57.5 23q-23 24 -23 58t23 57z" />
    <glyph glyph-name="Yacute" unicode="&#xdd;" horiz-adv-x="849" 
d="M192 400l-190 363l378 -2l-2 -272h35l4 271l363 2l-202 -365l-3 -396l-376 1zM330 872l178 206l102 -111l-214 -163z" />
    <glyph glyph-name="agrave" unicode="&#xe0;" horiz-adv-x="694" 
d="M303 169l3 -169l-303 2l240 482l154 2l227 -486h-292l-5 169h-24zM335 515l-163 121l77 83l133 -151z" />
    <glyph glyph-name="aacute" unicode="&#xe1;" horiz-adv-x="694" 
d="M303 169l3 -169l-303 2l240 482l154 2l227 -486h-292l-5 169h-24zM271 570l136 156l77 -84l-162 -124z" />
    <glyph glyph-name="acircumflex" unicode="&#xe2;" horiz-adv-x="694" 
d="M303 169l3 -169l-303 2l240 482l154 2l227 -486h-292l-5 169h-24zM316 517l-108 -1l83 162l67 -1l85 -161l-104 3l-13 78z" />
    <glyph glyph-name="atilde" unicode="&#xe3;" horiz-adv-x="694" 
d="M303 169l3 -169l-303 2l240 482l154 2l227 -486h-292l-5 169h-24zM255 563q-17 0 -32 -10t-19 -21l-5 -11l-58 47q1 1 3 4.5t6 9.5t11 14q45 53 83 51q31 -2 70 -19q42 -17 52 -17q26 0 62 29l12 10l57 -42q-12 -20 -20 -30q-41 -56 -106 -56q-30 2 -67 21q-38 20 -49 20
z" />
    <glyph glyph-name="adieresis" unicode="&#xe4;" horiz-adv-x="694" 
d="M303 169l3 -169l-303 2l240 482l154 2l227 -486h-292l-5 169h-24zM191 649q21 21 51 21t50 -21q21 -21 21 -50.5t-21 -50.5q-20 -21 -50 -21t-51 21t-21 50.5t21 50.5zM364 653q21 21 50.5 21t50.5 -21t21 -50.5t-21 -50.5t-50.5 -21t-50.5 21t-21 50.5t21 50.5z" />
    <glyph glyph-name="aring" unicode="&#xe5;" horiz-adv-x="694" 
d="M351 644q-16 17 -36 9.5t-25.5 -26.5t8.5 -36q15 -17 36 -9.5t26.5 26.5t-9.5 36zM266 676q25 24 59 24t58 -24t24 -58t-24 -59q-24 -24 -58 -24t-59 24q-24 25 -24 59t24 58zM303 169l3 -169l-303 2l240 482l154 2l227 -486h-292l-5 169h-24z" />
    <glyph glyph-name="ae" unicode="&#xe6;" horiz-adv-x="708" 
d="M222 164l2 -161l-223 -1l233 479l1 -2q98 1 294 5l1 -171l-105 1v-16l172 -1l-1 -123l-163 2l-1 -18h206v-155h-355h-34l-4 162z" />
    <glyph glyph-name="ccedilla" unicode="&#xe7;" horiz-adv-x="532" 
d="M1 242q-1 100 63 171t174 73q80 0 138 -36q36 -23 74 -76l4 -7l-202 -102l210 -69q-6 -36 -32 -82q-64 -114 -187 -111q-109 3 -175 72q-66 72 -67 167z" />
    <glyph glyph-name="egrave" unicode="&#xe8;" horiz-adv-x="530" 
d="M2 3v471h350l-1 -156l-106 1l-1 -16l175 -1l-1 -125l-166 2v-19l208 1v-157zM186 511l-164 122l77 82l134 -150z" />
    <glyph glyph-name="eacute" unicode="&#xe9;" horiz-adv-x="530" 
d="M2 3v471h350l-1 -156l-106 1l-1 -16l175 -1l-1 -125l-166 2v-19l208 1v-157zM93 541l136 156l77 -84l-163 -124z" />
    <glyph glyph-name="ecircumflex" unicode="&#xea;" horiz-adv-x="530" 
d="M2 3v471h350l-1 -156l-106 1l-1 -16l175 -1l-1 -125l-166 2v-19l208 1v-157zM177 498l-109 -2l84 162h67l85 -162l-104 3l-13 78z" />
    <glyph glyph-name="edieresis" unicode="&#xeb;" horiz-adv-x="530" 
d="M2 3v471h350l-1 -156l-106 1l-1 -16l175 -1l-1 -125l-166 2v-19l208 1v-157zM52 640q21 21 50.5 21t50.5 -21t21 -50.5t-21 -50.5t-50.5 -21t-50.5 21t-21 50.5t21 50.5zM224 635q21 21 50.5 21t50.5 -21t21 -50.5t-21 -50.5t-50.5 -21t-50.5 21t-21 50.5t21 50.5z" />
    <glyph glyph-name="igrave" unicode="&#xec;" horiz-adv-x="306" 
d="M2 1l-1 481l235 -1v-480h-234zM135 538l-164 122l77 82l134 -150z" />
    <glyph glyph-name="iacute" unicode="&#xed;" horiz-adv-x="354" 
d="M2 1l-1 481l235 -1v-480h-234zM71 566l136 157l77 -85l-162 -123z" />
    <glyph glyph-name="icircumflex" unicode="&#xee;" horiz-adv-x="318" 
d="M2 1l-1 481l235 -1v-480h-234zM122 520l-109 -2l83 162h67l85 -162l-104 3l-13 78z" />
    <glyph glyph-name="idieresis" unicode="&#xef;" horiz-adv-x="356" 
d="M2 1l-1 481l235 -1v-480h-234zM-24 646q21 21 50.5 21t50.5 -21t21 -50.5t-21 -50.5t-50.5 -21t-50.5 21t-21 50.5t21 50.5zM164 643q21 21 50.5 21t50.5 -21t21 -50.5t-21 -50.5t-50.5 -21t-50.5 21t-21 50.5t21 50.5z" />
    <glyph glyph-name="eth" unicode="&#xf0;" 
d="M71 420q74 74 178 74q105 0 179 -74t74 -179q0 -104 -74 -178t-179 -74q-104 0 -178 74t-74 178q0 105 74 179z" />
    <glyph glyph-name="ntilde" unicode="&#xf1;" horiz-adv-x="541" 
d="M168 1l-169 1v482l224 -235l-2 236l251 -1l-2 -483h-281v148l-21 -1v-147zM155 574q-22 -2 -38 -14t-21 -21.5t-5 -12.5l-68 53q8 13 24 33q48 61 95 58q36 -2 80 -22q48 -20 60 -19q30 0 72 33l13 11l66 -48q-15 -25 -23 -35q-50 -65 -123 -63q-32 0 -76 23
q-43 24 -56 24z" />
    <glyph glyph-name="ograve" unicode="&#xf2;" 
d="M71 420q74 74 178 74q105 0 179 -74t74 -179q0 -104 -74 -178t-179 -74q-104 0 -178 74t-74 178q0 105 74 179zM295 532l-164 122l77 82l133 -150z" />
    <glyph glyph-name="oacute" unicode="&#xf3;" 
d="M71 420q74 74 178 74q105 0 179 -74t74 -179q0 -104 -74 -178t-179 -74q-104 0 -178 74t-74 178q0 105 74 179zM236 575l136 156l77 -84l-162 -124z" />
    <glyph glyph-name="ocircumflex" unicode="&#xf4;" 
d="M71 420q74 74 178 74q105 0 179 -74t74 -179q0 -104 -74 -178t-179 -74q-104 0 -178 74t-74 178q0 105 74 179zM249 523l-109 -2l84 162h67l85 -162l-104 4l-14 78z" />
    <glyph glyph-name="otilde" unicode="&#xf5;" horiz-adv-x="573" 
d="M71 420q74 74 178 74q105 0 179 -74t74 -179q0 -104 -74 -178t-179 -74q-104 0 -178 74t-74 178q0 105 74 179zM226 593q-20 -1 -36.5 -12.5t-22.5 -24.5l-6 -11l-67 53q8 13 24 33q45 59 95 59q32 -1 80 -23q48 -20 60 -19q30 0 72 33l13 11l66 -48q-10 -17 -23 -35
q-50 -65 -123 -63q-33 2 -76 24q-44 23 -56 23z" />
    <glyph glyph-name="odieresis" unicode="&#xf6;" 
d="M71 420q74 74 178 74q105 0 179 -74t74 -179q0 -104 -74 -178t-179 -74q-104 0 -178 74t-74 178q0 105 74 179zM90 632q21 21 50.5 21t50.5 -21q21 -20 21 -50t-21 -51t-50.5 -21t-50.5 21t-21 51t21 50zM315 629q21 21 50.5 21t50.5 -21t21 -50.5t-21 -50.5t-50.5 -21
t-50.5 21t-21 50.5t21 50.5z" />
    <glyph glyph-name="divide" unicode="&#xf7;" horiz-adv-x="594" 
d="M91 283l-2 195l435 -4l-5 -191h-428zM301 652q32 3 56 -21t24 -58q0 -29 -24 -55q-24 -25 -51 -25q-32 0 -58 21.5t-27 56.5q-2 34 25 56q28 23 55 25zM301 269q32 3 56 -21t24 -58q0 -30 -24 -55t-51 -25q-32 0 -58 21.5t-27 56.5q-2 34 25 56q28 23 55 25z" />
    <glyph glyph-name="oslash" unicode="&#xf8;" 
d="M71 420q74 74 178 74q105 0 179 -74t74 -179q0 -104 -74 -178t-179 -74q-104 0 -178 74t-74 178q0 105 74 179z" />
    <glyph glyph-name="ugrave" unicode="&#xf9;" horiz-adv-x="568" 
d="M1 458v24h243l-2 -191l19 1v192l232 -1q1 -66 2.5 -139.5t2 -104t0.5 -38.5q2 -63 -65 -135q-30 -33 -76 -54t-96 -21q-47 0 -96 19.5t-86 49.5q-79 67 -79 128v132q1 53 1 138zM277 522l-164 122l77 82l134 -150z" />
    <glyph glyph-name="uacute" unicode="&#xfa;" horiz-adv-x="568" 
d="M1 458v24h243l-2 -191l19 1v192l232 -1q1 -66 2.5 -139.5t2 -104t0.5 -38.5q2 -63 -65 -135q-30 -33 -76 -54t-96 -21q-47 0 -96 19.5t-86 49.5q-79 67 -79 128v132q1 53 1 138zM207 564l136 156l77 -84l-162 -123z" />
    <glyph glyph-name="ucircumflex" unicode="&#xfb;" horiz-adv-x="568" 
d="M1 458v24h243l-2 -191l19 1v192l232 -1q1 -66 2.5 -139.5t2 -104t0.5 -38.5q2 -63 -65 -135q-30 -33 -76 -54t-96 -21q-47 0 -96 19.5t-86 49.5q-79 67 -79 128v132q1 53 1 138zM247 515l-109 -2l84 163l67 -1l85 -162l-104 4l-14 78z" />
    <glyph glyph-name="udieresis" unicode="&#xfc;" horiz-adv-x="568" 
d="M1 458v24h243l-2 -191l19 1v192l232 -1q1 -66 2.5 -139.5t2 -104t0.5 -38.5q2 -63 -65 -135q-30 -33 -76 -54t-96 -21q-47 0 -96 19.5t-86 49.5q-79 67 -79 128v132q1 53 1 138zM311 627q21 21 50.5 21t50.5 -21q21 -20 21 -50t-21 -51t-50.5 -21t-50.5 21t-21 51t21 50z
M101 624q21 21 50.5 21t50.5 -21t21 -50.5t-21 -50.5t-50.5 -21t-50.5 21t-21 50.5t21 50.5z" />
    <glyph glyph-name="yacute" unicode="&#xfd;" horiz-adv-x="557" 
d="M121 253l-119 227l236 -2l-2 -169h22l3 169l226 1l-126 -228l-2 -247h-234zM214 563l136 156l77 -84l-162 -123z" />
    <glyph glyph-name="ydieresis" unicode="&#xff;" horiz-adv-x="557" 
d="M121 253l-119 227l236 -2l-2 -169h22l3 169l226 1l-126 -228l-2 -247h-234zM298 625q21 21 51 21t51 -21t21 -50.5t-21 -50.5t-51 -21t-51 21q-20 21 -20 50.5t20 50.5zM96 627q21 21 50.5 21t50.5 -21t21 -50.5t-21 -50.5t-50.5 -21t-50.5 21t-21 50.5t21 50.5z" />
    <glyph glyph-name="quoteleft" unicode="&#x2018;" horiz-adv-x="360" 
d="M198 426l-152 70l146 281l99 -61z" />
    <glyph glyph-name="quoteright" unicode="&#x2019;" horiz-adv-x="393" 
d="M56 495l116 289l151 -82l-170 -255z" />
    <glyph glyph-name="quotedblleft" unicode="&#x201c;" horiz-adv-x="584" 
d="M209 431l-179 92l158 257l131 -73zM445 405l-190 66l119 276l141 -53z" />
    <glyph glyph-name="quotedblright" unicode="&#x201d;" horiz-adv-x="626" 
d="M129 779l187 -75l-134 -270l-137 60zM383 797l173 -103l-174 -246l-127 81z" />
    <glyph glyph-name="ellipsis" unicode="&#x2026;" horiz-adv-x="792" 
d="M155 140q31 3 55 -20.5t24 -57.5q0 -30 -24 -55t-51 -25q-28 0 -57 20q-26 19 -28 58q-2 33 26 56q27 23 55 24zM399 140q31 3 55 -20.5t24 -57.5q0 -30 -24 -55t-51 -25q-28 0 -57 20q-26 19 -28 58q-2 33 26 56q27 23 55 24zM643 140q31 3 55 -20.5t24 -57.5
q0 -30 -24 -55t-51 -25q-28 0 -57 20q-26 19 -28 58q-2 33 26 56q27 23 55 24z" />
    <glyph glyph-name="uni3000" unicode="&#x3000;" horiz-adv-x="1000" 
 />
    <glyph glyph-name="uniF8FE" unicode="&#xf8fe;" horiz-adv-x="300" 
 />
    <glyph glyph-name="NULL" horiz-adv-x="0" 
 />
    <glyph glyph-name="CR" horiz-adv-x="333" 
 />
    </font>
</defs>
</svg>
